<?xml version="1.0" standalone="no"?><!DOCTYPE svg PUBLIC "-//W3C//DTD SVG 1.1//EN" "http://www.w3.org/Graphics/SVG/1.1/DTD/svg11.dtd" ><svg xmlns="http://www.w3.org/2000/svg"><metadata></metadata><defs><font id="1.002;UKWN;TitilliumWeb-Black" horiz-adv-x="1650"><font-face font-family="Titillium Web Black" font-weight="900" font-stretch="normal" units-per-em="1000" panose-1="0 0 10 0 0 0 0 0 0 0" ascent="1133" descent="-388" x-height="0" bbox="-112 -388 1030 1081" underline-thickness="127" underline-position="-64" unicode-range="U+0020-f6c3" /><missing-glyph horiz-adv-x="235"  /><glyph glyph-name="space" unicode=" " d="" /><glyph glyph-name="exclam" unicode="!" d="M31 0 l0 198 l228 0 l0 -198 l-228 0 ZM38 244 l-14 426 l242 0 l-14 -426 l-214 0 Z" /><glyph glyph-name="quotedbl" unicode="&quot;" d="M45 420 l-32 250 l239 0 l-31 -250 l-176 0 ZM323 420 l-32 250 l239 0 l-31 -250 l-176 0 Z" /><glyph glyph-name="numbersign" unicode="#" d="M57 0 l3 113 l-55 0 l7 177 l53 0 l2 80 l-55 0 l7 177 l52 0 l4 123 l176 0 l-4 -123 l62 0 l4 123 l177 0 l-4 -123 l58 0 l-7 -177 l-55 0 l-2 -80 l56 0 l-4 -177 l-57 0 l-3 -113 l-177 0 l3 113 l-62 0 l-3 -113 l-176 0 ZM243 370 l-2 -80 l62 0 l2 80 l-62 0 Z" /><glyph glyph-name="dollar" unicode="$" d="M520 468 q-138 15 -201 15 q-63 0 -73 -3.5 q-10 -3.5 -10 -14 q0 -10.5 12 -16.5 q12 -6 66.5 -18 q54.5 -12 89.5 -22.5 q35 -10.5 67 -26.5 q32 -16 47 -38 q30 -45 30 -131 q0 -117 -59.5 -169 q-59.5 -52 -179.5 -56 l0 -73 l-62 0 l0 73 q-116 6 -204 28 l-31 7 l9 173 q150 -22 246 -22 q29 0 40 5.5 q11 5.5 11 16.5 q0 11 -11.5 15 q-11.5 4 -63.5 12 q-137 22 -186.5 68 q-49.5 46 -49.5 149 q0 127 59 177 q59 50 181 52 l0 82 l62 0 l0 -82 q89 -4 185 -19 l32 -5 l-6 -177 Z" /><glyph glyph-name="percent" unicode="%" d="M228 -59 l158 760 l44 -9 l-159 -759 l-43 8 ZM17 489.5 q0 97.5 32 138 q32 40.5 113.5 40.5 q81.5 0 112 -40 q30.5 -40 30.5 -138 q0 -98 -31 -138.5 q-31 -40.5 -113 -40.5 q-82 0 -113 40.5 q-31 40.5 -31 138 ZM176 551.5 q-3 10.5 -15 10.5 q-12 0 -15 -11 q-3 -11 -3 -53.5 q0 -42.5 2 -57.5 q2 -15 5 -18.5 q3 -3.5 13 -3.5 q10 0 13 11 q3 11 3 61.5 q0 50.5 -3 61 ZM361 166.5 q0 97.5 32 138 q32 40.5 113.5 40.5 q81.5 0 112 -40 q30.5 -40 30.5 -138 q0 -98 -31 -138.5 q-31 -40.5 -113 -40.5 q-82 0 -113 40.5 q-31 40.5 -31 138 ZM520 228.5 q-3 10.5 -15 10.5 q-12 0 -15 -11 q-3 -11 -3 -53.5 q0 -42.5 2 -57.5 q2 -15 5 -18.5 q3 -3.5 13 -3.5 q10 0 13 11 q3 11 3 61.5 q0 50.5 -3 61 Z" /><glyph glyph-name="ampersand" unicode="&amp;" d="M337 683 q183 0 229 -93 q19 -36 19 -98 q0 -62 -26 -94 q-26 -32 -119 -56 l59 -51 q11 21 16 40 l182 -7 q-25 -97 -58 -156 l65 -56 l-46 -125 l-135 55 q-89 -55 -238 -55 q-149 0 -214 44.5 q-65 44.5 -65 158.5 q0 78 27 121 q27 43 81 66 q-27 41 -27 123 q0 183 250 183 ZM304 498 q0 -33 25 -58 q36 25 36 58 q0 45 -30.5 45 q-30.5 0 -30.5 -45 ZM308 168 q19 0 35 4 l-107 90 q-4 -13 -4 -33 q0 -61 76 -61 Z" /><glyph glyph-name="quotesingle" unicode="&#39;" d="M45 420 l-32 250 l239 0 l-31 -250 l-176 0 Z" /><glyph glyph-name="parenleft" unicode="(" d="M297.5 680 q-12.5 -44 -33.5 -163 q-21 -119 -21 -215.5 q0 -96.5 18.5 -203 q18.5 -106.5 37.5 -164.5 l19 -59 l-203 0 q-63 111 -89 281 q-10 72 -10 166.5 q0 94.5 25 206.5 q25 112 49 167 l25 54 l203 0 q-8 -26 -20.5 -70 Z" /><glyph glyph-name="parenright" unicode=")" d="M28.5 -50 q12.5 44 33.5 163 q21 119 21 215.5 q0 96.5 -18.5 203 q-18.5 106.5 -37.5 164.5 l-19 59 l203 0 q63 -111 89 -281 q10 -72 10 -166.5 q0 -94.5 -25 -206.5 q-25 -112 -49 -167 l-25 -54 l-203 0 q8 26 20.5 70 Z" /><glyph glyph-name="asterisk" unicode="*" d="M390 469 l-101 7 l38 -95 l-125 -41 l-26 98 l-78 -65 l-78 107 l85 54 l-86 54 l78 108 l77 -65 l25 99 l127 -41 l-38 -94 l102 8 l0 -134 Z" /><glyph glyph-name="plus" unicode="+" d="M44 164 l0 180 l141 0 l0 139 l180 0 l0 -139 l141 0 l0 -180 l-141 0 l0 -141 l-180 0 l0 141 l-141 0 Z" /><glyph glyph-name="comma" unicode="," d="M13 -103 l22 296 l242 0 l-79 -296 l-185 0 Z" /><glyph glyph-name="hyphen" unicode="-" d="M29 161 l0 181 l298 0 l0 -181 l-298 0 Z" /><glyph glyph-name="period" unicode="." d="M27 0 l0 199 l228 0 l0 -199 l-228 0 Z" /><glyph glyph-name="slash" unicode="/" d="M15 -30 l303 750 l217 -44 l-303 -750 l-217 44 Z" /><glyph glyph-name="zero" unicode="0" d="M13 329.5 q0 181.5 59 262 q59 80.5 204 80.5 q145 0 202 -79.5 q57 -79.5 57 -262 q0 -182.5 -57.5 -263 q-57.5 -80.5 -203.5 -80.5 q-146 0 -203.5 80.5 q-57.5 80.5 -57.5 262 ZM291 479 q-6 5 -17 5 q-11 0 -17 -5 q-6 -5 -10 -22 q-7 -30 -7 -127.5 q0 -97.5 6.5 -126 q6.5 -28.5 27.5 -28.5 q21 0 27.5 28.5 q6.5 28.5 6.5 103.5 q0 75 -1.5 104 q-1.5 29 -5.5 46 q-4 17 -10 22 Z" /><glyph glyph-name="one" unicode="1" d="M467 659 l0 -659 l-227 0 l0 416 l-138 -55 l-60 162 l234 136 l191 0 Z" /><glyph glyph-name="two" unicode="2" d="M501 0 l-458 0 l0 172 l87 84 q28 26 54 52 q0 0 42 42 q17 17 31 38 q14 21 16.5 31.5 q2.5 10.5 2.5 21.5 q0 26 -15 33 q-15 7 -53 7 q-72 0 -132 -11 l-21 -4 l-10 171 q104 37 217.5 37 q113.5 0 178 -51.5 q64.5 -51.5 64.5 -143 q0 -91.5 -30 -143.5 q-30 -52 -112 -109 l-67 -47 l205 0 l0 -180 Z" /><glyph glyph-name="three" unicode="3" d="M225 672 q147 0 213.5 -42 q66.5 -42 66.5 -148 q0 -55 -13.5 -84 q-13.5 -29 -47.5 -53 q38 -29 54 -57.5 q16 -28.5 16 -80.5 q0 -125 -65 -172.5 q-65 -47.5 -201 -47.5 q-83 0 -180 19 l-33 7 l6 175 q115 -10 164 -10 q49 0 65 5.5 q16 5.5 16 24 q0 18.5 -11 25.5 q-11 7 -42 10 l-141 0 l0 177 l132 0 q54 0 54 30.5 q0 30.5 -69 30.5 q-47 0 -138 -7 l-26 -2 l-5 171 q115 29 185 29 Z" /><glyph glyph-name="four" unicode="4" d="M289 0 l0 80 l-271 0 l0 162 l90 417 l262 0 l-129 -391 l49 0 l20 113 l206 7 l0 -120 l25 0 l0 -188 l-25 0 l0 -80 l-227 0 Z" /><glyph glyph-name="five" unicode="5" d="M506 659 l0 -200 l-283 0 l-5 -44 q43 15 89 15 q116 0 170 -47 q54 -47 54 -166 q0 -230 -250 -230 q-47 0 -113 9.5 q-66 9.5 -108 19.5 l-43 10 l17 163 q135 -20 225 -20 q51 0 51 27.5 q0 27.5 -48 27.5 q-32 0 -68 -9 l-12 -3 l-148 18 l14 429 l458 0 Z" /><glyph glyph-name="six" unicode="6" d="M306 489 q-39 0 -56 -17 q-17 -17 -20 -51 l10 4 q35 14 73 14 q114 0 168 -54.5 q54 -54.5 54 -170 q0 -115.5 -67 -171.5 q-67 -56 -184 -56 q-138 0 -203 84 q-65 84 -65 252 q0 201 82 279 q39 38 87 54 q48 16 98 16 q87 0 198 -26 l37 -8 l-16 -166 q-112 17 -196 17 ZM286 262 q-31 0 -57 -12 q0 -46 11 -65.5 q11 -19.5 44 -19.5 q47 0 47 48.5 q0 48.5 -45 48.5 Z" /><glyph glyph-name="seven" unicode="7" d="M49 449 l0 210 l452 0 l0 -221 l-176 -451 l-224 46 l166 391 l0 25 l-218 0 Z" /><glyph glyph-name="eight" unicode="8" d="M274 672 q187 0 234 -90 q18 -36 18 -94.5 q0 -58.5 -15.5 -92.5 q-15.5 -34 -60.5 -60 q52 -25 69 -57.5 q17 -32.5 17 -102.5 q0 -188 -262 -188 q-262 0 -262 190 q0 65 19 97.5 q19 32.5 68 61.5 q-43 26 -59 59.5 q-16 33.5 -16 98.5 q0 178 250 178 ZM274 156 q21 0 30.5 9.5 q9.5 9.5 9.5 38.5 q0 29 -26 55 l-27 0 q-27 -22 -27 -62.5 q0 -40.5 40 -40.5 ZM273 505 q-18 0 -24.5 -11 q-6.5 -11 -6.5 -36 q0 -25 19 -48 l27 0 q19 20 19 50 q0 45 -34 45 Z" /><glyph glyph-name="nine" unicode="9" d="M243 170 q39 0 56 17 q17 17 20 51 l-10 -4 q-35 -14 -73 -14 q-114 0 -168 54.5 q-54 54.5 -54 170 q0 115.5 67 171.5 q67 56 184 56 q138 0 203 -84 q65 -84 65 -252 q0 -201 -81 -279 q-40 -38 -88 -54 q-48 -16 -98 -16 q-87 0 -198 25 l-37 9 l16 166 q112 -17 196 -17 ZM263 397 q31 0 57 12 q0 46 -11 65.5 q-11 19.5 -44 19.5 q-47 0 -47 -48.5 q0 -48.5 45 -48.5 Z" /><glyph glyph-name="colon" unicode=":" d="M30 0 l0 199 l228 0 l0 -199 l-228 0 ZM30 265 l0 199 l228 0 l0 -199 l-228 0 Z" /><glyph glyph-name="semicolon" unicode=";" d="M13 -103 l22 296 l242 0 l-79 -296 l-185 0 ZM38 265 l0 199 l228 0 l0 -199 l-228 0 Z" /><glyph glyph-name="less" unicode="&lt;" d="M462 293 l-239 -32 l239 -43 l0 -231 l-386 158 l0 221 l386 151 l0 -224 Z" /><glyph glyph-name="equal" unicode="=" d="M59 282 l0 170 l432 0 l0 -170 l-432 0 ZM59 57 l0 170 l432 0 l0 -170 l-432 0 Z" /><glyph glyph-name="greater" unicode="&gt;" d="M326 261 l-239 32 l0 224 l386 -151 l0 -221 l-386 -158 l0 231 l239 43 Z" /><glyph glyph-name="question" unicode="?" d="M456 496 q0 -74 -18.5 -108.5 q-18.5 -34.5 -69.5 -70.5 q-77 -55 -79 -81 l-1 -19 l-175 0 q-23 31 -23 73 q0 42 16.5 65.5 q16.5 23.5 61 56.5 q44.5 33 53.5 44 q9 11 9 30.5 q0 19.5 -14 28 q-14 8.5 -46 8.5 q-62 0 -125 -11 l-21 -3 l-7 157 q113 37 223.5 37 q110.5 0 163 -47 q52.5 -47 52.5 -160 ZM88 0 l0 180 l228 0 l0 -180 l-228 0 Z" /><glyph glyph-name="at" unicode="@" d="M1008 315 l0 -17 q0 -172 -49 -235 q-49 -63 -176.5 -63 q-127.5 0 -181.5 53 q-70 -53 -153 -53 q-111 0 -160 58.5 q-49 58.5 -49 186.5 q0 260 184 260 q31 0 60.5 -9.5 q29.5 -9.5 43.5 -19.5 l14 -9 l0 25 l224 0 l0 -192 q0 -79 9 -105.5 q9 -26.5 31.5 -26.5 q22.5 0 29 24 q6.5 24 6.5 106 l0 18 q0 81 -15.5 131 q-15.5 50 -55 79.5 q-39.5 29.5 -96 40 q-56.5 10.5 -138.5 10.5 q-82 0 -133 -7 q-51 -7 -96 -27 q-45 -20 -71 -55 q-56 -75 -56 -227 q0 -145 30 -211 q18 -37 42 -59 q24 -22 64 -35 q67 -23 201 -23 l143 10 l3 -153 q-98 -9 -146 -9 q-147 0 -242 26 q-95 26 -151 86.5 q-56 60.5 -78.5 147.5 q-22.5 87 -22.5 219.5 q0 132.5 33.5 224.5 q33.5 92 100.5 145 q67 53 157 76 q90 23 213 23 q249 0 365 -95.5 q116 -95.5 116 -318.5 ZM465 252 q0 -43 7.5 -58.5 q7.5 -15.5 26.5 -15.5 q19 0 47 11 q-5 34 -5 90 l0 41 q-15 4 -35.5 4 q-20.5 0 -30.5 -14.5 q-10 -14.5 -10 -57.5 Z" /><glyph glyph-name="A" unicode="a" d="M-5 0 l148 670 l351 0 l151 -670 l-234 0 l-19 77 l-153 0 l-16 -77 l-228 0 ZM307 488 l-38 -234 l99 0 l-36 234 l-25 0 Z" /><glyph glyph-name="B" unicode="b" d="M30 670 l303 0 q245 0 245 -166 q0 -63 -13.5 -97 q-13.5 -34 -55.5 -64 q49 -21 67.5 -51.5 q18.5 -30.5 18.5 -101.5 q0 -190 -258 -190 l-307 0 l0 670 ZM316 265 l-54 0 l0 -110 l54 0 q35 0 47 11.5 q12 11.5 12 43 q0 31.5 -13 43.5 q-13 12 -46 12 ZM313 517 l-51 0 l0 -107 l52 0 q30 0 42 13 q12 13 12 41.5 q0 28.5 -13 40.5 q-13 12 -42 12 Z" /><glyph glyph-name="C" unicode="c" d="M519 13 q-106 -26 -217 -26 q-111 0 -171 31.5 q-60 31.5 -86.5 105.5 q-26.5 74 -26.5 213 q0 199 61.5 272.5 q61.5 73.5 234.5 73.5 q72 0 170 -20 l35 -7 l-6 -179 q-82 10 -151.5 10 q-69.5 0 -89.5 -26.5 q-20 -26.5 -20 -109.5 q0 -83 9.5 -115 q9.5 -32 30.5 -42.5 q21 -10.5 68 -10.5 l156 6 l3 -176 Z" /><glyph glyph-name="D" unicode="d" d="M323 0 l-293 0 l0 670 l283 0 q173 0 249 -78 q76 -78 76 -249.5 q0 -171.5 -73 -257 q-73 -85.5 -242 -85.5 ZM404 331 q0 90 -18.5 120 q-18.5 30 -82.5 30 l-41 0 l0 -292 l41 0 q52 0 77 26 q24 26 24 116 Z" /><glyph glyph-name="E" unicode="e" d="M30 0 l0 670 l502 0 l0 -185 l-270 0 l0 -57 l210 0 l0 -183 l-210 0 l0 -60 l270 0 l0 -185 l-502 0 Z" /><glyph glyph-name="F" unicode="f" d="M30 0 l0 670 l483 0 l0 -189 l-251 0 l0 -108 l191 0 l0 -189 l-191 0 l0 -184 l-232 0 Z" /><glyph glyph-name="G" unicode="g" d="M592 394 l0 -374 q-181 -29 -268 -29 q-87 0 -148.5 19.5 q-61.5 19.5 -96.5 64.5 q-35 45 -48.5 106 q-13.5 61 -13.5 155 q0 193 72 270 q72 77 243 77 q51 0 115 -8.5 q64 -8.5 102 -16.5 l38 -9 l0 -175 q-144 13 -204.5 13 q-60.5 0 -79 -5.5 q-18.5 -5.5 -29.5 -13 q-11 -7.5 -16 -29.5 q-7 -31 -7 -109 q0 -78 18 -113.5 q18 -35.5 73 -35.5 l34 1 l0 50 l-30 0 l-1 162 l247 0 Z" /><glyph glyph-name="H" unicode="h" d="M393 0 l0 234 l-131 0 l0 -234 l-232 0 l0 670 l232 0 l0 -247 l131 0 l0 247 l232 0 l0 -670 l-232 0 Z" /><glyph glyph-name="I" unicode="i" d="M30 0 l0 670 l232 0 l0 -670 l-232 0 Z" /><glyph glyph-name="J" unicode="j" d="M294 670 l0 -493 q0 -98 -48 -144 q-37 -37 -134 -43 q-37 -3 -97 -3 l0 191 q13 0 19 0.5 q6 0.5 12.5 6 q6.5 5.5 8.5 12.5 q2 7 4 25 q3 28 3 100 l0 348 l232 0 Z" /><glyph glyph-name="K" unicode="k" d="M262 223 l0 -223 l-232 0 l0 670 l232 0 l0 -237 l40 0 l75 237 l230 0 l-107 -324 l117 -346 l-233 0 l-81 223 l-41 0 Z" /><glyph glyph-name="L" unicode="l" d="M480 0 l-450 0 l0 670 l232 0 l0 -481 l218 0 l0 -189 Z" /><glyph glyph-name="M" unicode="m" d="M30 0 l0 670 l345 0 l52 -256 l43 256 l355 0 l0 -670 l-232 0 l0 345 l-11 0 l-58 -338 l-194 0 l-57 338 l-11 0 l0 -345 l-232 0 Z" /><glyph glyph-name="N" unicode="n" d="M30 0 l0 670 l228 0 l154 -254 l14 0 l0 254 l232 0 l0 -670 l-229 0 l-152 273 l-15 0 l0 -273 l-232 0 Z" /><glyph glyph-name="O" unicode="o" d="M250 335 q0 -85 16.5 -122.5 q16.5 -37.5 69 -37.5 q52.5 0 68.5 37 q16 37 16 123.5 q0 86.5 -15.5 123 q-15.5 36.5 -68.5 36.5 q-53 0 -69.5 -37.5 q-16.5 -37.5 -16.5 -122.5 ZM654 335 q0 -183 -76 -265.5 q-76 -82.5 -242.5 -82.5 q-166.5 0 -243 83 q-76.5 83 -76.5 265.5 q0 182.5 76 265 q76 82.5 243 82.5 q167 0 243 -82.5 q76 -82.5 76 -265.5 Z" /><glyph glyph-name="P" unicode="p" d="M293 142 l-31 0 l0 -142 l-232 0 l0 670 l263 0 q159 0 231.5 -55 q72.5 -55 72.5 -206.5 q0 -151.5 -73 -209 q-73 -57.5 -231 -57.5 ZM262 325 l21 0 q43 0 61.5 19 q18.5 19 18.5 65 q0 46 -17.5 62 q-17.5 16 -62.5 16 l-21 0 l0 -162 Z" /><glyph glyph-name="Q" unicode="q" d="M332 -13 q-167 0 -241.5 81.5 q-74.5 81.5 -74.5 266.5 q0 185 73.5 266.5 q73.5 81.5 242.5 81.5 q169 0 244 -81.5 q75 -81.5 75 -277.5 q0 -196 -96 -276 l80 -119 l-176 -87 l-98 146 q-9 -1 -29 -1 ZM244 335 q0 -83 18.5 -121.5 q18.5 -38.5 70 -38.5 q51.5 0 68 38 q16.5 38 16.5 122.5 q0 84.5 -16.5 122 q-16.5 37.5 -68 37.5 q-51.5 0 -70 -38.5 q-18.5 -38.5 -18.5 -121.5 Z" /><glyph glyph-name="R" unicode="r" d="M319 173 l-57 0 l0 -173 l-232 0 l0 670 l282 0 q155 0 222 -51.5 q67 -51.5 67 -191 q0 -139.5 -74 -199.5 l66 -228 l-236 0 l-38 173 ZM318 356 q49 0 49 65.5 q0 65.5 -55 65.5 l-51 0 l0 -131 l57 0 Z" /><glyph glyph-name="S" unicode="s" d="M540 477 q-141 15 -205 15 q-64 0 -74.5 -3.5 q-10.5 -3.5 -10.5 -14.5 q0 -11 12 -17 q12 -6 75.5 -20 q63.5 -14 104 -27.5 q40.5 -13.5 73 -38 q32.5 -24.5 43 -60 q10.5 -35.5 10.5 -95.5 q0 -124 -66 -177 q-66 -53 -199 -53 q-64 0 -134.5 9 q-70.5 9 -108.5 18 l-39 9 l10 177 q153 -22 251 -22 q52 0 52 23 q0 10 -12 14.5 q-12 4.5 -65 12.5 q-140 22 -190.5 68.5 q-50.5 46.5 -50.5 152.5 q0 135 65 185 q65 50 200 50 q95 0 223 -19 l42 -7 l-6 -180 Z" /><glyph glyph-name="T" unicode="t" d="M9 481 l0 189 l500 0 l0 -189 l-130 0 l0 -481 l-232 0 l0 481 l-138 0 Z" /><glyph glyph-name="U" unicode="u" d="M258 670 l0 -439 q0 -29 14.5 -41 q14.5 -12 48.5 -12 q34 0 48 12 q14 12 14 41 l0 439 l232 0 l0 -426 q0 -142 -71 -199.5 q-71 -57.5 -223.5 -57.5 q-152.5 0 -223.5 56 q-71 56 -71 197 l0 430 l232 0 Z" /><glyph glyph-name="V" unicode="v" d="M602 670 l-131 -670 l-342 0 l-136 670 l246 0 l52 -436 l18 0 l47 436 l246 0 Z" /><glyph glyph-name="W" unicode="w" d="M85 0 l-79 670 l231 0 l32 -436 l18 0 l45 426 l253 0 l50 -426 l18 0 l20 436 l233 0 l-74 -670 l-339 0 l-33 412 l-10 1 l-34 -413 l-331 0 Z" /><glyph glyph-name="X" unicode="x" d="M228 670 l61 -184 l78 184 l228 0 l-145 -319 l136 -351 l-238 0 l-59 178 l-61 -178 l-236 0 l143 321 l-143 349 l236 0 Z" /><glyph glyph-name="Y" unicode="y" d="M410 0 l-232 0 l0 210 l-191 460 l246 0 l63 -197 l65 197 l245 0 l-196 -460 l0 -210 Z" /><glyph glyph-name="Z" unicode="z" d="M19 481 l0 189 l530 0 l0 -189 l-217 -275 l0 -17 l217 0 l0 -189 l-530 0 l0 180 l222 284 l0 17 l-222 0 Z" /><glyph glyph-name="bracketleft" unicode="[" d="M322 749 l0 -181 l-64 0 l0 -510 l64 0 l0 -181 l-289 0 l0 872 l289 0 Z" /><glyph glyph-name="backslash" unicode="\" d="M232 720 l303 -750 l-217 -44 l-303 750 l217 44 Z" /><glyph glyph-name="bracketright" unicode="]" d="M17 568 l0 181 l289 0 l0 -872 l-289 0 l0 181 l64 0 l0 510 l-64 0 Z" /><glyph glyph-name="asciicircum" unicode="^" d="M378 313 l-59 217 l-63 -217 l-210 0 l144 357 l254 0 l144 -357 l-210 0 Z" /><glyph glyph-name="underscore" unicode="_" d="M40 -185 l0 127 l520 0 l0 -127 l-520 0 Z" /><glyph glyph-name="grave" unicode="`" d="M78 723 l237 0 l43 -166 l-171 0 l-109 166 Z" /><glyph glyph-name="a" unicode="a" d="M518 342 l0 -190 q9 -7 24 -11 l-3 -142 q-78 -12 -107 -12 q-29 0 -53 8.5 q-24 8.5 -32 17.5 l-8 9 q-62 -35 -150.5 -35 q-88.5 0 -133.5 40.5 q-45 40.5 -45 130.5 q0 90 51 120.5 q51 30.5 161 34.5 l72 3 l0 9 q0 19 -42 19 q-91 0 -182 -10 l-33 -3 l-5 152 q132 35 241 35 q114 0 177 -34 q68 -36 68 -142 ZM256 141 q19 0 38 15 l0 37 l-34 -2 q-26 -2 -26 -26 q0 -24 22 -24 Z" /><glyph glyph-name="b" unicode="b" d="M355 518 q198 0 198 -257 q0 -154 -59 -214 q-59 -60 -215 -60 q-64 0 -207 17 l-45 6 l0 680 l224 0 l0 -188 q66 16 104 16 ZM283 168 q44 0 44 88 q0 47 -10 64 q-10 17 -34 17 l-32 -7 l0 -159 q13 -3 32 -3 Z" /><glyph glyph-name="c" unicode="c" d="M266 518 q69 0 153 -20 l28 -6 l-7 -177 q-103 8 -138 8 q-35 0 -47.5 -15.5 q-12.5 -15.5 -12.5 -55 q0 -39.5 12.5 -54.5 q12.5 -15 44.5 -15 l143 7 l7 -175 q-96 -28 -183 -28 q-144 0 -197 59.5 q-53 59.5 -53 208 q0 148.5 57 206 q57 57.5 193 57.5 Z" /><glyph glyph-name="d" unicode="d" d="M542 690 l0 -690 l-221 0 l-2 22 q-55 -35 -105 -35 q-110 0 -154 67.5 q-44 67.5 -44 197.5 q0 266 221 266 l81 -6 l0 178 l224 0 ZM286 337 q-27 0 -35.5 -22 q-8.5 -22 -8.5 -62.5 q0 -40.5 9 -62.5 q9 -22 36 -22 l31 3 l0 163 q-22 3 -32 3 Z" /><glyph glyph-name="e" unicode="e" d="M239 187 q1 -35 45 -35 q100 0 200 6 l39 3 l5 -145 q-133 -29 -264.5 -29 q-131.5 0 -190 60.5 q-58.5 60.5 -58.5 196 q0 135.5 63 205 q63 69.5 196.5 69.5 q133.5 0 198.5 -57 q65 -57 65 -175 l-10 -99 l-289 0 ZM314 309 q0 29 -8.5 41 q-8.5 12 -29.5 12 q-21 0 -29 -12 q-8 -12 -9 -41 l76 0 Z" /><glyph glyph-name="f" unicode="f" d="M269 324 l0 -324 l-224 0 l0 324 l-27 0 l0 181 l27 0 l0 4 q0 108 36 151 q36 43 136 43 q49 0 115 -10 l19 -3 l0 -162 q-82 0 -82 -13 l0 -10 l80 0 l0 -181 l-80 0 Z" /><glyph glyph-name="g" unicode="g" d="M92 -196 q-80 26 -80 115 q0 36 14 64 q14 28 50 56 q-36 25 -36 75 q0 11 14.5 29.5 q14.5 18.5 29.5 30.5 l14 13 q-81 38 -81 144 q0 106 57.5 146.5 q57.5 40.5 190.5 40.5 q33 0 87 -8 l16 -3 l185 3 l0 -131 l-47 0 q9 -25 9 -41 q0 -108 -55 -144.5 q-55 -36.5 -187 -36.5 q-20 0 -38 3 q-4 -6 -4 -12 q0 -10 118 -10 q118 0 159.5 -35 q41.5 -35 41.5 -127.5 q0 -92.5 -68 -144 q-68 -51.5 -194 -51.5 q-126 0 -196 24 ZM195 -53 q0 -13 76 -13 q76 0 76 16 q0 10 -13 12.5 q-13 2.5 -53 2.5 l-77 4 q-9 -5 -9 -22 ZM236 311 q9 -8 30 -8 q21 0 30 8 q9 8 9 28 q0 20 -9 28 q-9 8 -30 8 q-21 0 -30 -8 q-9 -8 -9 -28 q0 -20 9 -28 Z" /><glyph glyph-name="h" unicode="h" d="M252 0 l-224 0 l0 690 l224 0 l0 -189 q70 17 107 17 q109 0 152.5 -57 q43.5 -57 43.5 -200 l0 -261 l-224 0 l0 238 q0 87 -38 87 l-41 -6 l0 -319 Z" /><glyph glyph-name="i" unicode="i" d="M28 0 l0 505 l224 0 l0 -505 l-224 0 ZM27 537 l0 153 l226 0 l0 -153 l-226 0 Z" /><glyph glyph-name="j" unicode="j" d="M27 538 l0 152 l226 0 l0 -152 l-226 0 ZM28 66 l0 439 l224 0 l0 -432 q0 -105 -15.5 -143 q-15.5 -38 -30 -56 q-14.5 -18 -45.5 -36 q-48 -26 -150 -58 l-72 170 q62 29 75.5 46 q13.5 17 13.5 70 Z" /><glyph glyph-name="k" unicode="k" d="M252 0 l-224 0 l0 690 l224 0 l0 -347 l29 0 l45 162 l221 0 l-72 -244 l78 -261 l-224 0 l-47 148 l-30 0 l0 -148 Z" /><glyph glyph-name="l" unicode="l" d="M28 0 l0 690 l224 0 l0 -690 l-224 0 Z" /><glyph glyph-name="m" unicode="m" d="M252 0 l-224 0 l0 505 l223 0 l0 -26 q66 39 129.5 39 q63.5 0 104.5 -45 q71 45 150 45 q117 0 160 -62.5 q43 -62.5 43 -200.5 l0 -255 l-224 0 l0 228 q0 97 -33 97 l-43 -6 q7 -21 7 -87 l0 -232 l-224 0 l0 228 q0 97 -32 97 l-37 -5 l0 -320 Z" /><glyph glyph-name="n" unicode="n" d="M252 0 l-224 0 l0 505 l223 0 l0 -26 q63 39 110 39 q108 0 151 -58.5 q43 -58.5 43 -206.5 l0 -253 l-224 0 l0 238 q0 87 -36 87 l-43 -7 l0 -318 Z" /><glyph glyph-name="o" unicode="o" d="M81.5 455.5 q66.5 62.5 200.5 62.5 q134 0 200.5 -62.5 q66.5 -62.5 66.5 -203.5 q0 -141 -66.5 -203 q-66.5 -62 -200.5 -62 q-134 0 -200.5 62 q-66.5 62 -66.5 203 q0 141 66.5 203.5 ZM250 186 q9 -18 32 -18 q23 0 32 18 q9 18 9 66.5 q0 48.5 -9 66.5 q-9 18 -32 18 q-23 0 -32 -18 q-9 -18 -9 -66.5 q0 -48.5 9 -66.5 Z" /><glyph glyph-name="p" unicode="p" d="M356 518 q106 0 152 -68 q46 -68 46 -202.5 q0 -134.5 -50.5 -197.5 q-50.5 -63 -169.5 -63 q-24 0 -68 10 l-14 3 l0 -195 l-224 0 l0 700 l221 0 l2 -26 q49 39 105 39 ZM284 168 q44 0 44 88 q0 47 -10 64 q-10 17 -34 17 l-32 -7 l0 -159 q13 -3 32 -3 Z" /><glyph glyph-name="q" unicode="q" d="M214 -13 q-198 0 -198 258 q0 150 64.5 212 q64.5 62 209.5 62 q61 0 207 -13 l45 -4 l0 -696 l-224 0 l0 198 q-66 -17 -104 -17 ZM286 338 q-44 0 -44 -88 q0 -47 10 -64 q10 -17 34 -17 l32 6 l0 160 q-13 3 -32 3 Z" /><glyph glyph-name="r" unicode="r" d="M252 0 l-224 0 l0 505 l224 0 l0 -47 q63 60 106 60 l0 -208 q-34 0 -88 -27 l-18 -9 l0 -274 Z" /><glyph glyph-name="s" unicode="s" d="M457 335 q-124 14 -169 14 q-45 0 -45 -8 q0 -6 78.5 -14.5 q78.5 -8.5 114.5 -45 q36 -36.5 36 -124.5 q0 -88 -54.5 -129 q-54.5 -41 -167.5 -41 q-63 0 -120 6.5 q-57 6.5 -82 13.5 l-26 7 l5 151 q124 -17 172.5 -17 q48.5 0 48.5 9 q0 5 -79 15.5 q-79 10.5 -114.5 47 q-35.5 36.5 -35.5 114.5 q0 102 58.5 143 q58.5 41 165.5 41 q114 0 195 -20 l27 -6 l-8 -157 Z" /><glyph glyph-name="t" unicode="t" d="M273 324 l0 -104 q0 -25 6.5 -33.5 q6.5 -8.5 26.5 -8.5 l45 1 l3 -174 q-86 -18 -132 -18 q-93 0 -133 38.5 q-40 38.5 -40 142.5 l0 156 l-39 0 l0 181 l39 0 l0 100 l224 0 l0 -100 l81 0 l0 -181 l-81 0 Z" /><glyph glyph-name="u" unicode="u" d="M325 505 l224 0 l0 -505 l-222 0 l0 24 q-64 -37 -114 -37 q-106 0 -148 61.5 q-42 61.5 -42 195.5 l0 261 l224 0 l0 -246 q0 -45 8 -62 q8 -17 26 -17 l44 6 l0 319 Z" /><glyph glyph-name="v" unicode="v" d="M1 505 l238 0 l36 -318 l13 0 l34 318 l224 0 l-85 -505 l-375 0 l-85 505 Z" /><glyph glyph-name="w" unicode="w" d="M10 505 l247 0 l10 -318 l12 0 l23 305 l203 0 l32 -305 l12 0 l11 318 l221 0 l-51 -505 l-319 0 l-17 218 l-19 -218 l-305 0 l-60 505 Z" /><glyph glyph-name="x" unicode="x" d="M98 250 l-99 255 l240 0 l40 -142 l40 142 l220 0 l-89 -251 l86 -254 l-242 0 l-40 127 l-33 -127 l-222 0 l99 250 Z" /><glyph glyph-name="y" unicode="y" d="M86 0 l-85 505 l238 0 l36 -318 l14 0 l32 318 l225 0 l-119 -700 l-246 0 l63 195 l-158 0 Z" /><glyph glyph-name="z" unicode="z" d="M24 310 l0 195 l451 0 l0 -173 l-153 -137 l156 0 l0 -195 l-454 0 l0 183 l148 127 l-148 0 Z" /><glyph glyph-name="braceleft" unicode="{" d="M273 518 l3 -81 q0 -51 -11.5 -74.5 q-11.5 -23.5 -44.5 -41.5 q32 -18 44 -41.5 q12 -23.5 12 -68.5 l-3 -98 q0 -38 13 -50.5 q13 -12.5 58 -16.5 l0 -180 q-117 0 -169.5 13 q-52.5 13 -76.5 31 q-52 42 -52 128 q0 21 6.5 81 q6.5 60 6.5 71 q0 31 -44 40 l0 169 q44 8 44 34 l-13 153 q0 82 38 118 q42 38 104 48 q65 9 156 9 l0 -180 q-46 -4 -58.5 -15 q-12.5 -11 -12.5 -48 Z" /><glyph glyph-name="bar" unicode="|" d="M34 -220 l0 923 l218 0 l0 -923 l-218 0 Z" /><glyph glyph-name="braceright" unicode="}" d="M86 105 l-3 81 q0 52 11.5 75 q11.5 23 44.5 41 q-32 18 -44 41.5 q-12 23.5 -12 68.5 l3 98 q0 38 -13 50.5 q-13 12.5 -58 16.5 l0 180 q117 0 169.5 -13 q52.5 -13 75.5 -32 q53 -41 53 -127 q0 -21 -6.5 -81 q-6.5 -60 -6.5 -71 q0 -31 44 -40 l0 -169 q-44 -8 -44 -34 l13 -153 q0 -82 -38 -117 q-42 -39 -105 -48 q-64 -10 -155 -10 l0 180 q46 4 58.5 15 q12.5 11 12.5 48 Z" /><glyph glyph-name="asciitilde" unicode="~" d="M435.5 152.5 q-34.5 -16.5 -63.5 -16.5 q-29 0 -102 22 q-73 22 -92 22 q-19 0 -46.5 -10 q-27.5 -10 -43.5 -20 l-17 -10 l-10 172 q21 21 58 37 q37 16 66 16 q29 0 98.5 -22 q69.5 -22 90.5 -22 q39 0 88 29 l17 10 l8 -171 q-17 -20 -51.5 -36.5 Z" /><glyph glyph-name="nonbreakingspace" unicode=" " d="" /><glyph glyph-name="exclamdown" unicode="¡" d="M259 505 l0 -198 l-228 0 l0 198 l228 0 ZM252 261 l14 -426 l-242 0 l14 426 l214 0 Z" /><glyph glyph-name="cent" unicode="¢" d="M248 -86 l0 128 q-115 3 -161 51.5 q-46 48.5 -46 162 q0 113.5 49 160.5 q49 47 158 50 l0 125 l60 0 l0 -126 q87 -2 168 -15 l24 -4 l-6 -150 q-102 4 -183 4 q-27 0 -37.5 -11 q-10.5 -11 -10.5 -35.5 q0 -24.5 10.5 -35 q10.5 -10.5 37.5 -10.5 l185 4 l6 -148 q-83 -17 -194 -21 l0 -129 l-60 0 Z" /><glyph glyph-name="sterling" unicode="£" d="M95 183 l0 143 l-62 0 l0 60 l62 0 l0 41 q0 75 12 122.5 q12 47.5 40.5 74 q28.5 26.5 69 36.5 q40.5 10 89.5 10 q90 0 164 -16 l27 -5 l-6 -166 q-71 4 -114.5 4 q-43.5 0 -62 -15.5 q-18.5 -15.5 -18.5 -57.5 l0 -28 l137 0 l0 -60 l-137 0 l0 -143 l93 0 l118 15 l18 -182 l-121 -16 l-371 0 l0 183 l62 0 Z" /><glyph glyph-name="currency" unicode="¤" d="M138 438 q58 45 134.5 45 q76.5 0 136.5 -48 l59 60 l43 -43 l-60 -59 q45 -59 45 -134 q0 -75 -45 -134 l60 -59 l-43 -43 l-59 59 q-60 -47 -136.5 -47 q-76.5 0 -134.5 44 l-56 -56 l-43 43 l56 55 q-47 60 -47 137.5 q0 77.5 47 137.5 l-56 56 l43 43 l56 -57 ZM206.5 194 q25.5 -26 64.5 -26 q39 0 65.5 26 q26.5 26 26.5 65 q0 39 -27 64 q-26 27 -65 27 q-39 0 -64 -27 q-26 -25 -26 -64 q0 -39 25.5 -65 Z" /><glyph glyph-name="yen" unicode="¥" d="M48 299 l0 60 l80 0 l-112 298 l236 0 l37 -207 l41 207 l236 0 l-118 -298 l80 0 l0 -60 l-104 0 l-24 -62 l0 -30 l128 0 l0 -60 l-128 0 l0 -147 l-226 0 l0 147 l-126 0 l0 60 l126 0 l0 30 l-24 62 l-102 0 Z" /><glyph glyph-name="brokenbar" unicode="¦" d="M33 703 l218 0 l0 -395 l-218 0 l0 395 ZM33 170 l218 0 l0 -390 l-218 0 l0 390 Z" /><glyph glyph-name="section" unicode="§" d="M546 469 q-170 20 -215.5 20 q-45.5 0 -60 -5.5 q-14.5 -5.5 -14.5 -20 q0 -14.5 18 -22.5 q18 -8 84 -21 q125 -25 170 -57 q45 -32 45 -115.5 q0 -83.5 -45 -126.5 q20 -23 27.5 -44 q7.5 -21 7.5 -66 q0 -206 -247 -206 q-60 0 -130 12.5 q-70 12.5 -110 25.5 l-39 13 l17 160 q8 -3 102.5 -17 q94.5 -14 129.5 -14 q54 0 54 28 q0 13 -22 20.5 q-22 7.5 -118.5 26.5 q-96.5 19 -137 53 q-40.5 34 -40.5 104.5 q0 70.5 43 122.5 q-29 33 -32 70 q-1 13 -1 39 q0 124 65.5 172.5 q65.5 48.5 183.5 48.5 q48 0 116 -10 q68 -10 111 -20 l44 -11 l-6 -160 ZM253 280 q-11 -18 -11 -33 q0 -15 7.5 -20 q7.5 -5 53.5 -19 q46 -14 50 -16 q9 19 9 41 q0 22 -61 34 q-36 8 -48 13 Z" /><glyph glyph-name="dieresis" unicode="¨" d="M234 559 l0 154 l164 0 l0 -154 l-164 0 ZM24 559 l0 154 l164 0 l0 -154 l-164 0 Z" /><glyph glyph-name="copyright" unicode="©" d="M301 150 q-121 0 -199.5 82 q-78.5 82 -78.5 203.5 q0 121.5 78 202 q78 80.5 199.5 80.5 q121.5 0 197.5 -82 q76 -82 76 -203.5 q0 -121.5 -76 -202 q-76 -80.5 -197 -80.5 ZM146 592.5 q-61 -65.5 -61 -158.5 q0 -93 61 -158.5 q61 -65.5 152.5 -65.5 q91.5 0 152.5 65 q61 65 61 158 q0 93 -61.5 159 q-61.5 66 -152.5 66 q-91 0 -152 -65.5 ZM307 269 q-69 0 -98.5 36 q-29.5 36 -29.5 130 q0 94 30.5 128.5 q30.5 34.5 101.5 34.5 q28 0 58 -8 l22 -7 l-7 -86 l-22 3 q-39 3 -45 3 q-20 0 -27.5 -13.5 q-7.5 -13.5 -7.5 -50.5 q0 -75 35 -75 q19 0 45 2 l22 3 l7 -82 l-21 -9 q-27 -9 -63 -9 Z" /><glyph glyph-name="ordfeminine" unicode="ª" d="M274 379 q-37 0 -67 19 q-36 -19 -81 -19 q-110 0 -110 92 q0 49 31.5 65.5 q31.5 16.5 93.5 18.5 l47 2 l0 5 q0 10 -24 10 l-133 -7 l-2 82 q71 19 145 19 q74 0 109 -22 q35 -22 35 -73 l0 -103 q4 -3 16 -5 l-2 -78 q-44 -6 -58 -6 ZM147 474 q0 -11 15.5 -11 q15.5 0 25.5 8 l0 20 l-18 -1 q-23 -1 -23 -16 Z" /><glyph glyph-name="guillemotleft" unicode="«" d="M335 422 l-114 -169 l114 -169 l-162 -74 l-159 230 l0 21 l161 235 l160 -74 ZM605 422 l-114 -169 l114 -169 l-162 -74 l-159 230 l0 21 l161 235 l160 -74 Z" /><glyph glyph-name="logicalnot" unicode="¬" d="M537 543 l0 -312 l-151 0 l0 161 l-385 0 l0 151 l536 0 Z" /><glyph glyph-name="registered" unicode="®" d="M301 150 q-121 0 -199.5 81.5 q-78.5 81.5 -78.5 203.5 q0 122 78 202.5 q78 80.5 199 80.5 q121 0 197.5 -82.5 q76.5 -82.5 76.5 -203.5 q0 -121 -76 -201.5 q-76 -80.5 -197 -80.5 ZM147 592 q-62 -66 -62 -158 q0 -92 62 -158 q62 -66 152.5 -66 q90.5 0 151.5 65 q61 65 61 158 q0 93 -61.5 159 q-61.5 66 -151.5 66 q-90 0 -152 -66 ZM274 276 l-96 0 l0 315 l136 0 q52 0 83 -25.5 q31 -25.5 31 -72 q0 -46.5 -8 -68 q-8 -21.5 -30 -39.5 l41 -110 l-100 0 l-28 93 l-29 0 l0 -93 ZM273 519 l0 -79 l28 0 q34 0 34 39.5 q0 39.5 -35 39.5 l-27 0 Z" /><glyph glyph-name="macron" unicode="¯" d="M60 563 l0 144 l327 0 l0 -144 l-327 0 Z" /><glyph glyph-name="degree" unicode="°" d="M166.5 432 q-41.5 41 -41.5 108 q0 67 41.5 108.5 q41.5 41.5 108.5 41.5 q67 0 108.5 -41.5 q41.5 -41.5 41.5 -108.5 q0 -67 -41.5 -108 q-41.5 -41 -108.5 -41 q-67 0 -108.5 41 ZM275.5 577 q-16.5 0 -26 -10 q-9.5 -10 -9.5 -26.5 q0 -16.5 9.5 -26.5 q9.5 -10 25.5 -10 q16 0 26.5 10 q10.5 10 10.5 26 q0 16 -10 26.5 q-10 10.5 -26.5 10.5 Z" /><glyph glyph-name="plusminus" unicode="±" d="M44 251 l0 170 l141 0 l0 84 l180 0 l0 -84 l141 0 l0 -170 l-141 0 l0 -71 l-180 0 l0 71 l-141 0 ZM44 170 l462 0 l0 -170 l-462 0 l0 170 Z" /><glyph glyph-name="twosuperior" unicode="²" d="M301 273 l-258 0 l0 112 l55 50 q12 12 29.5 28 q17.5 16 25 23 q7.5 7 15.5 17 q14 17 14 34 q0 23 -46 23 l-85 -5 l-6 103 q66 16 131 16 q132 0 132 -119 q0 -27 -4 -37 l-5 -17 q-2 -6 -8.5 -15 q-6.5 -9 -9.5 -13.5 q-3 -4.5 -13 -14.5 q0 0 -16 -16 q-25 -25 -39 -37 l-20 -15 l108 0 l0 -117 Z" /><glyph glyph-name="threesuperior" unicode="³" d="M148 422 l-82 0 l0 102 l77 0 q31 0 31 18 q0 18 -40 18 l-95 -5 l-3 99 q75 16 115 16 q86 0 124.5 -24 q38.5 -24 38.5 -86 q0 -31 -8 -48 q-8 -17 -28 -31 q22 -17 31.5 -33.5 q9.5 -16.5 9.5 -46.5 q0 -72 -37.5 -100 q-37.5 -28 -116.5 -28 q-48 0 -111 12 l-21 4 l3 101 q67 -6 92 -6 q25 0 32 1 q19 2 19 18.5 q0 16.5 -31 18.5 Z" /><glyph glyph-name="acute" unicode="´" d="M219 723 l237 0 l-109 -166 l-171 0 l43 166 Z" /><glyph glyph-name="mu" unicode="µ" d="M315 505 l224 0 l0 -505 l-222 0 l-1 22 q-29 -19 -71 -22 l0 -248 l-224 0 l0 753 l224 0 l0 -246 q0 -46 5.5 -62.5 q5.5 -16.5 20.5 -16.5 l44 6 l0 319 Z" /><glyph glyph-name="paragraph" unicode="¶" d="M557 511 l-70 0 l0 -511 l-228 0 l0 210 l-7 0 q-99 0 -167.5 71 q-68.5 71 -68.5 173 q0 102 69.5 174 q69.5 72 168.5 72 l303 0 l0 -189 Z" /><glyph glyph-name="periodcentered" unicode="·" d="M30 149 l0 200 l205 0 l0 -200 l-205 0 Z" /><glyph glyph-name="cedilla" unicode="¸" d="M476 -33 q79 -1 108.5 -18.5 q29.5 -17.5 29.5 -72.5 q0 -55 -31.5 -81 q-31.5 -26 -95.5 -26 q-65 0 -110 8 l-17 3 l4 78 q31 -1 48 -1 q38 0 38 22 q0 12 -8 16 q-8 4 -30 4 l-9 0 l0 112 l73 0 l0 -44 Z" /><glyph glyph-name="onesuperior" unicode="¹" d="M297 670 l0 -397 l-157 0 l0 221 l-83 -34 l-36 128 l141 82 l135 0 Z" /><glyph glyph-name="ordmasculine" unicode="º" d="M53 633 q38 33 124 33 q86 0 123.5 -33 q37.5 -33 37.5 -110.5 q0 -77.5 -37.5 -110.5 q-37.5 -33 -123.5 -33 q-86 0 -124 33 q-38 33 -38 110.5 q0 77.5 38 110.5 ZM177 479 q16 0 23 10 q7 10 7 34 q0 24 -7 33.5 q-7 9.5 -23.5 9.5 q-16.5 0 -23.5 -9.5 q-7 -9.5 -7 -33.5 q0 -44 31 -44 Z" /><glyph glyph-name="guillemotright" unicode="»" d="M19 84 l114 169 l-114 169 l162 74 l159 -230 l0 -21 l-161 -235 l-160 74 ZM289 84 l114 169 l-114 169 l162 74 l159 -230 l0 -21 l-161 -235 l-160 74 Z" /><glyph glyph-name="onequarter" unicode="¼" d="M297 670 l0 -397 l-157 0 l0 221 l-83 -34 l-36 128 l141 82 l135 0 ZM258 5 l303 750 l147 -64 l-303 -750 l-147 64 ZM760 0 l0 48 l-163 0 l0 98 l54 251 l158 0 l-78 -236 l29 0 l0 55 l147 18 l0 -73 l15 0 l0 -113 l-15 0 l0 -48 l-147 0 Z" /><glyph glyph-name="onehalf" unicode="½" d="M258 5 l303 750 l147 -64 l-303 -750 l-147 64 ZM297 670 l0 -397 l-157 0 l0 221 l-83 -34 l-36 128 l141 82 l135 0 ZM903 0 l-258 0 l0 112 l55 50 q12 12 29.5 28 q17.5 16 25 23 q7.5 7 15.5 17 q14 18 14 34 q0 23 -46 23 l-85 -5 l-6 103 q66 16 131 16 q132 0 132 -119 q0 -27 -4 -38 l-5 -16 q-2 -6 -8.5 -15 q-6.5 -9 -9.5 -13.5 q-3 -4.5 -13 -15.5 q0 0 -16 -14 q-25 -26 -39 -38 l-20 -15 l108 0 l0 -117 Z" /><glyph glyph-name="threequarters" unicode="¾" d="M760 0 l0 48 l-163 0 l0 98 l54 251 l158 0 l-78 -236 l29 0 l0 55 l147 18 l0 -73 l15 0 l0 -113 l-15 0 l0 -48 l-147 0 ZM258 5 l303 750 l147 -64 l-303 -750 l-147 64 ZM158 422 l-82 0 l0 102 l77 0 q31 0 31 18 q0 18 -40 18 l-95 -5 l-3 99 q75 16 115 16 q86 0 124.5 -24 q38.5 -24 38.5 -86 q0 -31 -8 -48 q-8 -17 -28 -31 q22 -17 31.5 -33.5 q9.5 -16.5 9.5 -46.5 q0 -72 -37.5 -100 q-37.5 -28 -116.5 -28 q-48 0 -111 12 l-21 4 l3 101 q67 -6 92 -6 q25 0 32 1 q19 2 19 18.5 q0 16.5 -31 18.5 Z" /><glyph glyph-name="questiondown" unicode="¿" d="M16 9 q0 74 18.5 108.5 q18.5 34.5 69.5 70.5 q77 55 79 81 l1 19 l175 0 q23 -31 23 -73 q0 -42 -16.5 -65.5 q-16.5 -23.5 -61 -56.5 q-44.5 -33 -53.5 -44 q-9 -11 -9 -30.5 q0 -19.5 14 -28 q14 -8.5 46 -8.5 q62 0 125 10 l21 4 l7 -157 q-113 -37 -223.5 -37 q-110.5 0 -163 47 q-52.5 47 -52.5 160 ZM384 505 l0 -180 l-228 0 l0 180 l228 0 Z" /><glyph glyph-name="Agrave" unicode="à" d="M147 849 l242 0 l34 -136 l-172 0 l-104 136 ZM-5 0 l148 670 l351 0 l151 -670 l-234 0 l-19 77 l-153 0 l-16 -77 l-228 0 ZM307 488 l-38 -234 l99 0 l-36 234 l-25 0 Z" /><glyph glyph-name="Aacute" unicode="á" d="M-5 0 l148 670 l351 0 l151 -670 l-234 0 l-19 77 l-153 0 l-16 -77 l-228 0 ZM307 488 l-38 -234 l99 0 l-36 234 l-25 0 ZM227 849 l242 0 l-109 -136 l-176 0 l43 136 Z" /><glyph glyph-name="Acircumflex" unicode="â" d="M-5 0 l148 670 l351 0 l151 -670 l-234 0 l-19 77 l-153 0 l-16 -77 l-228 0 ZM307 488 l-38 -234 l99 0 l-36 234 l-25 0 ZM138 713 l101 136 l152 0 l112 -136 l-169 0 l-15 62 l-12 -62 l-169 0 Z" /><glyph glyph-name="Atilde" unicode="ã" d="M-5 0 l148 670 l351 0 l151 -670 l-234 0 l-19 77 l-153 0 l-16 -77 l-228 0 ZM307 488 l-38 -234 l99 0 l-36 234 l-25 0 ZM485.5 754 q-10.5 -10 -38.5 -26 q-28 -16 -54 -16 q-26 0 -79.5 17 q-53.5 17 -66.5 17 q-27 0 -67 -18 l-14 -7 l-29 106 q17 20 50 39.5 q33 19.5 62.5 19.5 q29.5 0 80.5 -16 q51 -16 62 -16 q20 0 66 18 l15 5 l29 -107 q-6 -6 -16.5 -16 Z" /><glyph glyph-name="Adieresis" unicode="ä" d="M-5 0 l148 670 l351 0 l151 -670 l-234 0 l-19 77 l-153 0 l-16 -77 l-228 0 ZM307 488 l-38 -234 l99 0 l-36 234 l-25 0 ZM343 713 l0 144 l161 0 l0 -144 l-161 0 ZM136 713 l0 144 l161 0 l0 -144 l-161 0 Z" /><glyph glyph-name="Aring" unicode="å" d="M183 722 q0 96 137 96 q62 0 99.5 -23.5 q37.5 -23.5 37.5 -72.5 q0 -30 -16 -52 l53 0 l151 -670 l-234 0 l-19 77 l-153 0 l-16 -77 l-228 0 l148 670 l55 0 q-15 19 -15 52 ZM307 488 l-38 -234 l99 0 l-36 234 l-25 0 ZM320.5 743 q-30.5 0 -30.5 -21.5 q0 -21.5 30.5 -21.5 q30.5 0 30.5 21.5 q0 21.5 -30.5 21.5 Z" /><glyph glyph-name="AE" unicode="æ" d="M366 0 l0 77 l-127 0 l-16 -77 l-228 0 l148 670 l722 0 l0 -185 l-273 0 l0 -60 l213 0 l0 -177 l-213 0 l0 -63 l273 0 l0 -185 l-499 0 ZM366 256 l0 229 l-59 0 l-37 -229 l96 0 Z" /><glyph glyph-name="Ccedilla" unicode="ç" d="M330 -22 q79 -1 108.5 -18.5 q29.5 -17.5 29.5 -72.5 q0 -55 -31.5 -81 q-31.5 -26 -95.5 -26 q-52 0 -110 8 l-17 3 l4 78 q31 -1 48 -1 q38 0 38 22 q0 12 -8 16 q-8 4 -30 4 l-9 0 l0 79 q-137 8 -188 83 q-51 75 -51 269.5 q0 194.5 61.5 268 q61.5 73.5 234.5 73.5 q72 0 170 -20 l35 -7 l-6 -179 q-82 10 -151.5 10 q-69.5 0 -89.5 -26.5 q-20 -26.5 -20 -109.5 q0 -83 9.5 -115 q9.5 -32 30.5 -42.5 q21 -10.5 68 -10.5 l156 6 l3 -176 q-90 -22 -189 -25 l0 -10 Z" /><glyph glyph-name="Egrave" unicode="è" d="M30 0 l0 670 l502 0 l0 -185 l-270 0 l0 -57 l210 0 l0 -183 l-210 0 l0 -60 l270 0 l0 -185 l-502 0 ZM113 849 l242 0 l34 -136 l-172 0 l-104 136 Z" /><glyph glyph-name="Eacute" unicode="é" d="M30 0 l0 670 l502 0 l0 -185 l-270 0 l0 -57 l210 0 l0 -183 l-210 0 l0 -60 l270 0 l0 -185 l-502 0 ZM188 849 l242 0 l-109 -136 l-176 0 l43 136 Z" /><glyph glyph-name="Ecircumflex" unicode="ê" d="M30 0 l0 670 l502 0 l0 -185 l-270 0 l0 -57 l210 0 l0 -183 l-210 0 l0 -60 l270 0 l0 -185 l-502 0 ZM94 713 l101 136 l152 0 l112 -136 l-169 0 l-15 62 l-12 -62 l-169 0 Z" /><glyph glyph-name="Edieresis" unicode="ë" d="M30 0 l0 670 l502 0 l0 -185 l-270 0 l0 -57 l210 0 l0 -183 l-210 0 l0 -60 l270 0 l0 -185 l-502 0 ZM304 713 l0 144 l161 0 l0 -144 l-161 0 ZM97 713 l0 144 l161 0 l0 -144 l-161 0 Z" /><glyph glyph-name="Igrave" unicode="ì" d="M30 0 l0 670 l226 0 l0 -670 l-226 0 ZM-30 849 l242 0 l34 -136 l-172 0 l-104 136 Z" /><glyph glyph-name="Iacute" unicode="í" d="M30 0 l0 670 l232 0 l0 -670 l-232 0 ZM83 849 l242 0 l-109 -136 l-176 0 l43 136 Z" /><glyph glyph-name="Icircumflex" unicode="î" d="M30 0 l0 670 l226 0 l0 -670 l-226 0 ZM-39 713 l101 136 l152 0 l112 -136 l-169 0 l-15 62 l-12 -62 l-169 0 Z" /><glyph glyph-name="Idieresis" unicode="ï" d="M30 0 l0 670 l232 0 l0 -670 l-232 0 ZM169 713 l0 144 l161 0 l0 -144 l-161 0 ZM-38 713 l0 144 l161 0 l0 -144 l-161 0 Z" /><glyph glyph-name="Eth" unicode="ð" d="M-1 270 l0 137 l38 0 l0 263 l283 0 q173 0 249 -78 q76 -78 76 -249.5 q0 -171.5 -73 -257 q-73 -85.5 -242 -85.5 l-293 0 l0 270 l-38 0 ZM411 331 q0 90 -18.5 120 q-18.5 30 -82.5 30 l-41 0 l0 -74 l55 0 l0 -137 l-55 0 l0 -81 l41 0 q52 0 76 26 q25 26 25 116 Z" /><glyph glyph-name="Ntilde" unicode="ñ" d="M30 0 l0 670 l228 0 l154 -254 l14 0 l0 254 l232 0 l0 -670 l-229 0 l-152 273 l-15 0 l0 -273 l-232 0 ZM509.5 754 q-10.5 -10 -38.5 -26 q-28 -16 -54 -16 q-26 0 -79.5 17 q-53.5 17 -66.5 17 q-27 0 -67 -18 l-14 -7 l-29 106 q17 20 50 39.5 q33 19.5 62.5 19.5 q29.5 0 80.5 -16 q51 -16 62 -16 q20 0 66 18 l15 5 l29 -107 q-6 -6 -16.5 -16 Z" /><glyph glyph-name="Ograve" unicode="ò" d="M250 335 q0 -85 16.5 -122.5 q16.5 -37.5 69 -37.5 q52.5 0 68.5 37 q16 37 16 123.5 q0 86.5 -15.5 123 q-15.5 36.5 -68.5 36.5 q-53 0 -69.5 -37.5 q-16.5 -37.5 -16.5 -122.5 ZM654 335 q0 -183 -76 -265.5 q-76 -82.5 -242.5 -82.5 q-166.5 0 -243 83 q-76.5 83 -76.5 265.5 q0 182.5 76 265 q76 82.5 243 82.5 q167 0 243 -82.5 q76 -82.5 76 -265.5 ZM157 849 l242 0 l34 -136 l-172 0 l-104 136 Z" /><glyph glyph-name="Oacute" unicode="ó" d="M250 335 q0 -85 16.5 -122.5 q16.5 -37.5 69 -37.5 q52.5 0 68.5 37 q16 37 16 123.5 q0 86.5 -15.5 123 q-15.5 36.5 -68.5 36.5 q-53 0 -69.5 -37.5 q-16.5 -37.5 -16.5 -122.5 ZM654 335 q0 -183 -76 -265.5 q-76 -82.5 -242.5 -82.5 q-166.5 0 -243 83 q-76.5 83 -76.5 265.5 q0 182.5 76 265 q76 82.5 243 82.5 q167 0 243 -82.5 q76 -82.5 76 -265.5 ZM246 849 l242 0 l-109 -136 l-176 0 l43 136 Z" /><glyph glyph-name="Ocircumflex" unicode="ô" d="M250 335 q0 -85 16.5 -122.5 q16.5 -37.5 69 -37.5 q52.5 0 68.5 37 q16 37 16 123.5 q0 86.5 -15.5 123 q-15.5 36.5 -68.5 36.5 q-53 0 -69.5 -37.5 q-16.5 -37.5 -16.5 -122.5 ZM654 335 q0 -183 -76 -265.5 q-76 -82.5 -242.5 -82.5 q-166.5 0 -243 83 q-76.5 83 -76.5 265.5 q0 182.5 76 265 q76 82.5 243 82.5 q167 0 243 -82.5 q76 -82.5 76 -265.5 ZM153 713 l101 136 l152 0 l112 -136 l-169 0 l-15 62 l-12 -62 l-169 0 Z" /><glyph glyph-name="Otilde" unicode="õ" d="M250 335 q0 -85 16.5 -122.5 q16.5 -37.5 69 -37.5 q52.5 0 68.5 37 q16 37 16 123.5 q0 86.5 -15.5 123 q-15.5 36.5 -68.5 36.5 q-53 0 -69.5 -37.5 q-16.5 -37.5 -16.5 -122.5 ZM654 335 q0 -183 -76 -265.5 q-76 -82.5 -242.5 -82.5 q-166.5 0 -243 83 q-76.5 83 -76.5 265.5 q0 182.5 76 265 q76 82.5 243 82.5 q167 0 243 -82.5 q76 -82.5 76 -265.5 ZM501.5 754 q-10.5 -10 -38.5 -26 q-28 -16 -54 -16 q-26 0 -79.5 17 q-53.5 17 -66.5 17 q-27 0 -67 -18 l-14 -7 l-29 106 q17 20 50 39.5 q33 19.5 62.5 19.5 q29.5 0 80.5 -16 q51 -16 62 -16 q20 0 66 18 l15 5 l29 -107 q-6 -6 -16.5 -16 Z" /><glyph glyph-name="Odieresis" unicode="ö" d="M250 335 q0 -85 16.5 -122.5 q16.5 -37.5 69 -37.5 q52.5 0 68.5 37 q16 37 16 123.5 q0 86.5 -15.5 123 q-15.5 36.5 -68.5 36.5 q-53 0 -69.5 -37.5 q-16.5 -37.5 -16.5 -122.5 ZM654 335 q0 -183 -76 -265.5 q-76 -82.5 -242.5 -82.5 q-166.5 0 -243 83 q-76.5 83 -76.5 265.5 q0 182.5 76 265 q76 82.5 243 82.5 q167 0 243 -82.5 q76 -82.5 76 -265.5 ZM358 713 l0 144 l161 0 l0 -144 l-161 0 ZM151 713 l0 144 l161 0 l0 -144 l-161 0 Z" /><glyph glyph-name="multiply" unicode="×" d="M148 503 l126 -127 l127 127 l124 -123 l-127 -127 l127 -127 l-123 -123 l-128 126 l-126 -126 l-123 122 l126 128 l-126 128 l123 122 Z" /><glyph glyph-name="Oslash" unicode="ø" d="M83 -10 q3 9 26 63 q-93 83 -93 274 q0 191 76 273.5 q76 82.5 243 82.5 l28 -1 l18 42 l217 -44 l-29 -71 q85 -82 85 -269.5 q0 -187.5 -76 -270 q-76 -82.5 -243 -82.5 l-19 0 l-16 -41 l-217 44 ZM250 335 q0 -85 16.5 -122.5 q16.5 -37.5 69 -37.5 q52.5 0 68.5 37 q16 37 16 123.5 q0 86.5 -15.5 123 q-15.5 36.5 -68.5 36.5 q-53 0 -69.5 -37.5 q-16.5 -37.5 -16.5 -122.5 Z" /><glyph glyph-name="Ugrave" unicode="ù" d="M252 670 l0 -439 q0 -29 14.5 -41 q14.5 -12 50.5 -12 q36 0 50.5 12 q14.5 12 14.5 41 l0 439 l226 0 l0 -426 q0 -141 -70 -199 q-70 -58 -221 -58 q-151 0 -221 56 q-70 56 -70 197 l0 430 l226 0 ZM170 849 l242 0 l34 -136 l-172 0 l-104 136 Z" /><glyph glyph-name="Uacute" unicode="ú" d="M258 670 l0 -439 q0 -29 14.5 -41 q14.5 -12 48.5 -12 q34 0 48 12 q14 12 14 41 l0 439 l232 0 l0 -426 q0 -142 -71 -199.5 q-71 -57.5 -223.5 -57.5 q-152.5 0 -223.5 56 q-71 56 -71 197 l0 430 l232 0 ZM229 849 l242 0 l-109 -136 l-176 0 l43 136 Z" /><glyph glyph-name="Ucircumflex" unicode="û" d="M252 670 l0 -439 q0 -29 14.5 -41 q14.5 -12 50.5 -12 q36 0 50.5 12 q14.5 12 14.5 41 l0 439 l226 0 l0 -426 q0 -141 -70 -199 q-70 -58 -221 -58 q-151 0 -221 56 q-70 56 -70 197 l0 430 l226 0 ZM135 713 l101 136 l152 0 l112 -136 l-169 0 l-15 62 l-12 -62 l-169 0 Z" /><glyph glyph-name="Udieresis" unicode="ü" d="M258 670 l0 -439 q0 -29 14.5 -41 q14.5 -12 48.5 -12 q34 0 48 12 q14 12 14 41 l0 439 l232 0 l0 -426 q0 -142 -71 -199.5 q-71 -57.5 -223.5 -57.5 q-152.5 0 -223.5 56 q-71 56 -71 197 l0 430 l232 0 ZM343 713 l0 144 l161 0 l0 -144 l-161 0 ZM136 713 l0 144 l161 0 l0 -144 l-161 0 Z" /><glyph glyph-name="Yacute" unicode="ý" d="M410 0 l-232 0 l0 210 l-191 460 l246 0 l63 -197 l65 197 l245 0 l-196 -460 l0 -210 ZM236 849 l242 0 l-109 -136 l-176 0 l43 136 Z" /><glyph glyph-name="Thorn" unicode="þ" d="M290 72 l-34 0 l0 -72 l-226 0 l0 670 l226 0 l0 -70 l34 0 q78 0 131 -11.5 q53 -11.5 93 -40.5 q77 -54 77 -207 q0 -153 -72.5 -211 q-72.5 -58 -228.5 -58 ZM256 255 l24 0 q45 0 64 18.5 q19 18.5 19 65 q0 46.5 -18 62.5 q-18 16 -65 16 l-24 0 l0 -162 Z" /><glyph glyph-name="germandbls" unicode="ß" d="M252 0 l-224 0 l0 453 q0 144 68.5 197 q68.5 53 230.5 53 q162 0 225 -39.5 q63 -39.5 63 -125.5 q0 -49 -11 -68 q-11 -19 -50 -40 q-39 -21 -49.5 -29.5 q-10.5 -8.5 -10.5 -21 q0 -12.5 14.5 -21 q14.5 -8.5 75.5 -30.5 q61 -22 84.5 -53 q23.5 -31 23.5 -100 q0 -101 -42.5 -144.5 q-42.5 -43.5 -149.5 -43.5 q-104 0 -182 18 l-26 6 l7 147 q78 -10 139 -10 q38 0 38 19 q0 7 -17 15.5 q-17 8.5 -74.5 30.5 q-57.5 22 -77 47 q-19.5 25 -19.5 62.5 q0 37.5 12.5 59.5 q12.5 22 50.5 52.5 q38 30.5 38 49.5 q0 31 -47 31 q-47 0 -68.5 -12.5 q-21.5 -12.5 -21.5 -42.5 l0 -460 Z" /><glyph glyph-name="agrave" unicode="à" d="M518 342 l0 -190 q9 -7 24 -11 l-3 -142 q-78 -12 -107 -12 q-29 0 -53 8.5 q-24 8.5 -32 17.5 l-8 9 q-62 -35 -150.5 -35 q-88.5 0 -133.5 40.5 q-45 40.5 -45 130.5 q0 90 51 120.5 q51 30.5 161 34.5 l72 3 l0 9 q0 19 -42 19 q-91 0 -182 -10 l-33 -3 l-5 152 q132 35 241 35 q114 0 177 -34 q68 -36 68 -142 ZM256 141 q19 0 38 15 l0 37 l-34 -2 q-26 -2 -26 -26 q0 -24 22 -24 ZM94 723 l237 0 l43 -166 l-171 0 l-109 166 Z" /><glyph glyph-name="aacute" unicode="á" d="M518 342 l0 -190 q9 -7 24 -11 l-3 -142 q-78 -12 -107 -12 q-29 0 -53 8.5 q-24 8.5 -32 17.5 l-8 9 q-62 -35 -150.5 -35 q-88.5 0 -133.5 40.5 q-45 40.5 -45 130.5 q0 90 51 120.5 q51 30.5 161 34.5 l72 3 l0 9 q0 19 -42 19 q-91 0 -182 -10 l-33 -3 l-5 152 q132 35 241 35 q114 0 177 -34 q68 -36 68 -142 ZM256 141 q19 0 38 15 l0 37 l-34 -2 q-26 -2 -26 -26 q0 -24 22 -24 ZM221 723 l237 0 l-109 -166 l-171 0 l43 166 Z" /><glyph glyph-name="acircumflex" unicode="â" d="M518 342 l0 -190 q9 -7 24 -11 l-3 -142 q-78 -12 -107 -12 q-29 0 -53 8.5 q-24 8.5 -32 17.5 l-8 9 q-62 -35 -150.5 -35 q-88.5 0 -133.5 40.5 q-45 40.5 -45 130.5 q0 90 51 120.5 q51 30.5 161 34.5 l72 3 l0 9 q0 19 -42 19 q-91 0 -182 -10 l-33 -3 l-5 152 q132 35 241 35 q114 0 177 -34 q68 -36 68 -142 ZM256 141 q19 0 38 15 l0 37 l-34 -2 q-26 -2 -26 -26 q0 -24 22 -24 ZM101 557 l91 166 l158 0 l102 -166 l-162 0 l-15 72 l-12 -72 l-162 0 Z" /><glyph glyph-name="atilde" unicode="ã" d="M518 342 l0 -190 q9 -7 24 -11 l-3 -142 q-78 -12 -107 -12 q-29 0 -53 8.5 q-24 8.5 -32 17.5 l-8 9 q-62 -35 -150.5 -35 q-88.5 0 -133.5 40.5 q-45 40.5 -45 130.5 q0 90 51 120.5 q51 30.5 161 34.5 l72 3 l0 9 q0 19 -42 19 q-91 0 -182 -10 l-33 -3 l-5 152 q132 35 241 35 q114 0 177 -34 q68 -36 68 -142 ZM256 141 q19 0 38 15 l0 37 l-34 -2 q-26 -2 -26 -26 q0 -24 22 -24 ZM407 566.5 q-31 -19.5 -57 -19.5 q-26 0 -79.5 22 q-53.5 22 -66.5 22 q-25 0 -67 -30 l-14 -10 l-29 116 q20 24 51.5 44 q31.5 20 61 20 q29.5 0 80.5 -21.5 q51 -21.5 62 -21.5 q21 0 67 30 l14 9 l29 -117 q-21 -24 -52 -43.5 Z" /><glyph glyph-name="adieresis" unicode="ä" d="M518 342 l0 -190 q9 -7 24 -11 l-3 -142 q-78 -12 -107 -12 q-29 0 -53 8.5 q-24 8.5 -32 17.5 l-8 9 q-62 -35 -150.5 -35 q-88.5 0 -133.5 40.5 q-45 40.5 -45 130.5 q0 90 51 120.5 q51 30.5 161 34.5 l72 3 l0 9 q0 19 -42 19 q-91 0 -182 -10 l-33 -3 l-5 152 q132 35 241 35 q114 0 177 -34 q68 -36 68 -142 ZM256 141 q19 0 38 15 l0 37 l-34 -2 q-26 -2 -26 -26 q0 -24 22 -24 ZM299 559 l0 154 l164 0 l0 -154 l-164 0 ZM89 559 l0 154 l164 0 l0 -154 l-164 0 Z" /><glyph glyph-name="aring" unicode="å" d="M518 342 l0 -190 q9 -7 24 -11 l-3 -142 q-78 -12 -107 -12 q-29 0 -53 8.5 q-24 8.5 -32 17.5 l-8 9 q-62 -35 -150.5 -35 q-88.5 0 -133.5 40.5 q-45 40.5 -45 130.5 q0 90 51 120.5 q51 30.5 161 34.5 l72 3 l0 9 q0 19 -42 19 q-91 0 -182 -10 l-33 -3 l-5 152 q132 35 241 35 q114 0 177 -34 q68 -36 68 -142 ZM256 141 q19 0 38 15 l0 37 l-34 -2 q-26 -2 -26 -26 q0 -24 22 -24 ZM178 567.5 q-36 24.5 -36 74.5 q0 50 36 74.5 q36 24.5 97.5 24.5 q61.5 0 98 -24.5 q36.5 -24.5 36.5 -73.5 q0 -49 -35.5 -74.5 q-35.5 -25.5 -98 -25.5 q-62.5 0 -98.5 24.5 ZM276.5 663 q-30.5 0 -30.5 -21.5 q0 -21.5 30.5 -21.5 q30.5 0 30.5 21.5 q0 21.5 -30.5 21.5 Z" /><glyph glyph-name="ae" unicode="æ" d="M494 187 q1 -35 46 -35 q99 0 200 6 l38 3 l5 -145 q-133 -29 -243.5 -29 q-110.5 0 -156.5 34 q-102 -34 -191 -34 q-182 0 -182 170 q0 75 33 111 q35 39 177 45 l68 3 l0 9 q0 19 -42 19 q-90 0 -177 -10 l-32 -3 l-5 152 q126 35 231 35 q105 0 145 -26 q47 26 124 26 q131 0 196 -57 q65 -57 65 -175 l-10 -99 l-289 0 ZM571 309 q0 29 -9 41 q-9 12 -30.5 12 q-21.5 0 -29.5 -12 q-8 -12 -9 -41 l78 0 ZM250 141 q19 0 38 15 l0 37 l-34 -2 q-26 -2 -26 -26 q0 -24 22 -24 Z" /><glyph glyph-name="ccedilla" unicode="ç" d="M281 -33 q79 -1 108.5 -18.5 q29.5 -17.5 29.5 -72.5 q0 -55 -31.5 -81 q-31.5 -26 -95.5 -26 q-65 0 -110 8 l-17 3 l4 78 q31 -1 48 -1 q38 0 38 22 q0 12 -8 16 q-8 4 -30 4 l-9 0 l0 91 q-108 11 -149.5 71.5 q-41.5 60.5 -41.5 201 q0 140.5 57 198 q57 57.5 193 57.5 q69 0 153 -20 l28 -6 l-7 -177 q-103 8 -138 8 q-35 0 -47.5 -15.5 q-12.5 -15.5 -12.5 -55 q0 -39.5 12.5 -54.5 q12.5 -15 44.5 -15 l143 7 l7 -175 q-86 -25 -169 -28 l0 -20 Z" /><glyph glyph-name="egrave" unicode="è" d="M239 187 q1 -35 45 -35 q100 0 200 6 l39 3 l5 -145 q-133 -29 -264.5 -29 q-131.5 0 -190 60.5 q-58.5 60.5 -58.5 196 q0 135.5 63 205 q63 69.5 196.5 69.5 q133.5 0 198.5 -57 q65 -57 65 -175 l-10 -99 l-289 0 ZM314 309 q0 29 -8.5 41 q-8.5 12 -29.5 12 q-21 0 -29 -12 q-8 -12 -9 -41 l76 0 ZM105 723 l237 0 l43 -166 l-171 0 l-109 166 Z" /><glyph glyph-name="eacute" unicode="é" d="M239 187 q1 -35 45 -35 q100 0 200 6 l39 3 l5 -145 q-133 -29 -264.5 -29 q-131.5 0 -190 60.5 q-58.5 60.5 -58.5 196 q0 135.5 63 205 q63 69.5 196.5 69.5 q133.5 0 198.5 -57 q65 -57 65 -175 l-10 -99 l-289 0 ZM314 309 q0 29 -8.5 41 q-8.5 12 -29.5 12 q-21 0 -29 -12 q-8 -12 -9 -41 l76 0 ZM210 723 l237 0 l-109 -166 l-171 0 l43 166 Z" /><glyph glyph-name="ecircumflex" unicode="ê" d="M239 187 q1 -35 45 -35 q100 0 200 6 l39 3 l5 -145 q-133 -29 -264.5 -29 q-131.5 0 -190 60.5 q-58.5 60.5 -58.5 196 q0 135.5 63 205 q63 69.5 196.5 69.5 q133.5 0 198.5 -57 q65 -57 65 -175 l-10 -99 l-289 0 ZM314 309 q0 29 -8.5 41 q-8.5 12 -29.5 12 q-21 0 -29 -12 q-8 -12 -9 -41 l76 0 ZM101 557 l91 166 l158 0 l102 -166 l-162 0 l-15 72 l-12 -72 l-162 0 Z" /><glyph glyph-name="edieresis" unicode="ë" d="M239 187 q1 -35 45 -35 q100 0 200 6 l39 3 l5 -145 q-133 -29 -264.5 -29 q-131.5 0 -190 60.5 q-58.5 60.5 -58.5 196 q0 135.5 63 205 q63 69.5 196.5 69.5 q133.5 0 198.5 -57 q65 -57 65 -175 l-10 -99 l-289 0 ZM314 309 q0 29 -8.5 41 q-8.5 12 -29.5 12 q-21 0 -29 -12 q-8 -12 -9 -41 l76 0 ZM299 559 l0 154 l164 0 l0 -154 l-164 0 ZM89 559 l0 154 l164 0 l0 -154 l-164 0 Z" /><glyph glyph-name="igrave" unicode="ì" d="M28 0 l0 505 l224 0 l0 -505 l-224 0 ZM-38 723 l237 0 l43 -166 l-171 0 l-109 166 Z" /><glyph glyph-name="iacute" unicode="í" d="M28 0 l0 505 l224 0 l0 -505 l-224 0 ZM81 723 l237 0 l-109 -166 l-171 0 l43 166 Z" /><glyph glyph-name="icircumflex" unicode="î" d="M28 0 l0 505 l224 0 l0 -505 l-224 0 ZM-35 557 l91 166 l158 0 l102 -166 l-162 0 l-15 72 l-12 -72 l-162 0 Z" /><glyph glyph-name="idieresis" unicode="ï" d="M28 0 l0 505 l224 0 l0 -505 l-224 0 ZM162 559 l0 154 l164 0 l0 -154 l-164 0 ZM-48 559 l0 154 l164 0 l0 -154 l-164 0 Z" /><glyph glyph-name="eth" unicode="ð" d="M384 735 l62 -89 l-43 -29 q109 -84 109 -267 q0 -183 -63.5 -271 q-63.5 -88 -202.5 -88 q-120 0 -180 55 q-60 55 -60 165.5 q0 110.5 55 170 q55 59.5 157 59.5 q102 0 125 -18 q-11 76 -68 110 l-133 -89 l-63 89 l67 44 q-45 9 -100 18 l19 110 q140 -5 226 -32 l93 62 ZM237 302 q-31 0 -46 -25.5 q-15 -25.5 -15 -63 q0 -37.5 15.5 -59 q15.5 -21.5 54.5 -21.5 q96 0 96 153 q-45 16 -105 16 Z" /><glyph glyph-name="ntilde" unicode="ñ" d="M252 0 l-224 0 l0 505 l223 0 l0 -26 q63 39 110 39 q108 0 151 -58.5 q43 -58.5 43 -206.5 l0 -253 l-224 0 l0 238 q0 87 -36 87 l-43 -7 l0 -318 ZM427 566.5 q-31 -19.5 -57 -19.5 q-26 0 -79.5 22 q-53.5 22 -66.5 22 q-25 0 -67 -30 l-14 -10 l-29 116 q20 24 51.5 44 q31.5 20 61 20 q29.5 0 80.5 -21.5 q51 -21.5 62 -21.5 q21 0 67 30 l14 9 l29 -117 q-21 -24 -52 -43.5 Z" /><glyph glyph-name="ograve" unicode="ò" d="M81.5 455.5 q66.5 62.5 200.5 62.5 q134 0 200.5 -62.5 q66.5 -62.5 66.5 -203.5 q0 -141 -66.5 -203 q-66.5 -62 -200.5 -62 q-134 0 -200.5 62 q-66.5 62 -66.5 203 q0 141 66.5 203.5 ZM250 186 q9 -18 32 -18 q23 0 32 18 q9 18 9 66.5 q0 48.5 -9 66.5 q-9 18 -32 18 q-23 0 -32 -18 q-9 -18 -9 -66.5 q0 -48.5 9 -66.5 ZM100 723 l237 0 l43 -166 l-171 0 l-109 166 Z" /><glyph glyph-name="oacute" unicode="ó" d="M81.5 455.5 q66.5 62.5 200.5 62.5 q134 0 200.5 -62.5 q66.5 -62.5 66.5 -203.5 q0 -141 -66.5 -203 q-66.5 -62 -200.5 -62 q-134 0 -200.5 62 q-66.5 62 -66.5 203 q0 141 66.5 203.5 ZM250 186 q9 -18 32 -18 q23 0 32 18 q9 18 9 66.5 q0 48.5 -9 66.5 q-9 18 -32 18 q-23 0 -32 -18 q-9 -18 -9 -66.5 q0 -48.5 9 -66.5 ZM227 723 l237 0 l-109 -166 l-171 0 l43 166 Z" /><glyph glyph-name="ocircumflex" unicode="ô" d="M81.5 455.5 q66.5 62.5 200.5 62.5 q134 0 200.5 -62.5 q66.5 -62.5 66.5 -203.5 q0 -141 -66.5 -203 q-66.5 -62 -200.5 -62 q-134 0 -200.5 62 q-66.5 62 -66.5 203 q0 141 66.5 203.5 ZM250 186 q9 -18 32 -18 q23 0 32 18 q9 18 9 66.5 q0 48.5 -9 66.5 q-9 18 -32 18 q-23 0 -32 -18 q-9 -18 -9 -66.5 q0 -48.5 9 -66.5 ZM107 557 l91 166 l158 0 l102 -166 l-162 0 l-15 72 l-12 -72 l-162 0 Z" /><glyph glyph-name="otilde" unicode="õ" d="M81.5 455.5 q66.5 62.5 200.5 62.5 q134 0 200.5 -62.5 q66.5 -62.5 66.5 -203.5 q0 -141 -66.5 -203 q-66.5 -62 -200.5 -62 q-134 0 -200.5 62 q-66.5 62 -66.5 203 q0 141 66.5 203.5 ZM250 186 q9 -18 32 -18 q23 0 32 18 q9 18 9 66.5 q0 48.5 -9 66.5 q-9 18 -32 18 q-23 0 -32 -18 q-9 -18 -9 -66.5 q0 -48.5 9 -66.5 ZM413 566.5 q-31 -19.5 -57 -19.5 q-26 0 -79.5 22 q-53.5 22 -66.5 22 q-25 0 -67 -30 l-14 -10 l-29 116 q20 24 51.5 44 q31.5 20 61 20 q29.5 0 80.5 -21.5 q51 -21.5 62 -21.5 q21 0 67 30 l14 9 l29 -117 q-21 -24 -52 -43.5 Z" /><glyph glyph-name="odieresis" unicode="ö" d="M81.5 455.5 q66.5 62.5 200.5 62.5 q134 0 200.5 -62.5 q66.5 -62.5 66.5 -203.5 q0 -141 -66.5 -203 q-66.5 -62 -200.5 -62 q-134 0 -200.5 62 q-66.5 62 -66.5 203 q0 141 66.5 203.5 ZM250 186 q9 -18 32 -18 q23 0 32 18 q9 18 9 66.5 q0 48.5 -9 66.5 q-9 18 -32 18 q-23 0 -32 -18 q-9 -18 -9 -66.5 q0 -48.5 9 -66.5 ZM305 559 l0 154 l164 0 l0 -154 l-164 0 ZM95 559 l0 154 l164 0 l0 -154 l-164 0 Z" /><glyph glyph-name="divide" unicode="÷" d="M43 340 l464 0 l0 -170 l-464 0 l0 170 ZM175 360 l0 140 l200 0 l0 -140 l-200 0 ZM175 10 l0 140 l200 0 l0 -140 l-200 0 Z" /><glyph glyph-name="oslash" unicode="ø" d="M282 -13 l-35 1 l-35 -62 l-217 44 l62 108 q-42 63 -42 175 q0 140 66.5 202.5 q66.5 62.5 200.5 62.5 q17 0 26 -1 l41 72 l55 -11 q54 -10 108 -21 l54 -11 l-64 -113 q47 -64 47 -180 q0 -142 -66.5 -204 q-66.5 -62 -200.5 -62 ZM250 186 q9 -18 32 -18 q23 0 32 18 q9 18 9 66.5 q0 48.5 -9 66.5 q-9 18 -32 18 q-23 0 -32 -18 q-9 -18 -9 -66.5 q0 -48.5 9 -66.5 Z" /><glyph glyph-name="ugrave" unicode="ù" d="M325 505 l224 0 l0 -505 l-222 0 l0 24 q-64 -37 -114 -37 q-106 0 -148 61.5 q-42 61.5 -42 195.5 l0 261 l224 0 l0 -246 q0 -45 8 -62 q8 -17 26 -17 l44 6 l0 319 ZM117 723 l237 0 l43 -166 l-171 0 l-109 166 Z" /><glyph glyph-name="uacute" unicode="ú" d="M325 505 l224 0 l0 -505 l-222 0 l0 24 q-64 -37 -114 -37 q-106 0 -148 61.5 q-42 61.5 -42 195.5 l0 261 l224 0 l0 -246 q0 -45 8 -62 q8 -17 26 -17 l44 6 l0 319 ZM229 723 l237 0 l-109 -166 l-171 0 l43 166 Z" /><glyph glyph-name="ucircumflex" unicode="û" d="M325 505 l224 0 l0 -505 l-222 0 l0 24 q-64 -37 -114 -37 q-106 0 -148 61.5 q-42 61.5 -42 195.5 l0 261 l224 0 l0 -246 q0 -45 8 -62 q8 -17 26 -17 l44 6 l0 319 ZM116 557 l91 166 l158 0 l102 -166 l-162 0 l-15 72 l-12 -72 l-162 0 Z" /><glyph glyph-name="udieresis" unicode="ü" d="M325 505 l224 0 l0 -505 l-222 0 l0 24 q-64 -37 -114 -37 q-106 0 -148 61.5 q-42 61.5 -42 195.5 l0 261 l224 0 l0 -246 q0 -45 8 -62 q8 -17 26 -17 l44 6 l0 319 ZM314 559 l0 154 l164 0 l0 -154 l-164 0 ZM104 559 l0 154 l164 0 l0 -154 l-164 0 Z" /><glyph glyph-name="yacute" unicode="ý" d="M86 0 l-85 505 l238 0 l36 -318 l14 0 l32 318 l225 0 l-119 -700 l-246 0 l63 195 l-158 0 ZM223 723 l237 0 l-109 -166 l-171 0 l43 166 Z" /><glyph glyph-name="thorn" unicode="þ" d="M251 703 l0 -201 q67 16 104 16 q106 0 152 -68 q46 -68 46 -202.5 q0 -134.5 -50.5 -197.5 q-50.5 -63 -169.5 -63 q-23 0 -69 10 l-13 3 l0 -195 l-224 0 l0 898 l224 0 ZM283 168 q44 0 44 88 q0 47 -10 64 q-10 17 -34 17 l-32 -7 l0 -159 q13 -3 32 -3 Z" /><glyph glyph-name="ydieresis" unicode="ÿ" d="M86 0 l-85 505 l238 0 l36 -318 l14 0 l32 318 l225 0 l-119 -700 l-246 0 l63 195 l-158 0 ZM296 559 l0 154 l164 0 l0 -154 l-164 0 ZM86 559 l0 154 l164 0 l0 -154 l-164 0 Z" /><glyph glyph-name="Amacron" unicode="&#x100;" d="M-5 0 l148 670 l351 0 l151 -670 l-234 0 l-19 77 l-153 0 l-16 -77 l-228 0 ZM307 488 l-38 -234 l99 0 l-36 234 l-25 0 ZM159 713 l0 136 l321 0 l0 -136 l-321 0 Z" /><glyph glyph-name="amacron" unicode="&#x101;" d="M518 342 l0 -190 q9 -7 24 -11 l-3 -142 q-78 -12 -107 -12 q-29 0 -53 8.5 q-24 8.5 -32 17.5 l-8 9 q-62 -35 -150.5 -35 q-88.5 0 -133.5 40.5 q-45 40.5 -45 130.5 q0 90 51 120.5 q51 30.5 161 34.5 l72 3 l0 9 q0 19 -42 19 q-91 0 -182 -10 l-33 -3 l-5 152 q132 35 241 35 q114 0 177 -34 q68 -36 68 -142 ZM256 141 q19 0 38 15 l0 37 l-34 -2 q-26 -2 -26 -26 q0 -24 22 -24 ZM113 563 l0 144 l327 0 l0 -144 l-327 0 Z" /><glyph glyph-name="Abreve" unicode="&#x102;" d="M-5 0 l148 670 l351 0 l151 -670 l-234 0 l-19 77 l-153 0 l-16 -77 l-228 0 ZM307 488 l-38 -234 l99 0 l-36 234 l-25 0 ZM443 754.5 q-37 -42.5 -123 -42.5 q-86 0 -123 42.5 q-37 42.5 -37 107.5 l116 10 q5 -45 44 -45 q39 0 44 45 l116 -10 q0 -65 -37 -107.5 Z" /><glyph glyph-name="abreve" unicode="&#x103;" d="M518 342 l0 -190 q9 -7 24 -11 l-3 -142 q-78 -12 -107 -12 q-29 0 -53 8.5 q-24 8.5 -32 17.5 l-8 9 q-62 -35 -150.5 -35 q-88.5 0 -133.5 40.5 q-45 40.5 -45 130.5 q0 90 51 120.5 q51 30.5 161 34.5 l72 3 l0 9 q0 19 -42 19 q-91 0 -182 -10 l-33 -3 l-5 152 q132 35 241 35 q114 0 177 -34 q68 -36 68 -142 ZM256 141 q19 0 38 15 l0 37 l-34 -2 q-26 -2 -26 -26 q0 -24 22 -24 ZM432 708 q0 -160 -160 -160 q-160 0 -160 160 l116 10 q5 -45 44 -45 q39 0 44 45 l116 -10 Z" /><glyph glyph-name="Aogonek" unicode="&#x104;" d="M508 -219 q-155 0 -155 116 q0 64 58 103 l-19 77 l-153 0 l-16 -77 l-228 0 l148 670 l351 0 l151 -669 l0 -1 l-2 0 q-29 -14 -54.5 -40.5 q-25.5 -26.5 -25.5 -41.5 q0 -22 22 -22 l46 4 l13 -104 q-49 -15 -136 -15 ZM307 488 l-38 -234 l99 0 l-36 234 l-25 0 Z" /><glyph glyph-name="aogonek" unicode="&#x105;" d="M406 -220 q-155 0 -155 116 q0 78 90 123 l-2 3 q-62 -35 -150.5 -35 q-88.5 0 -133.5 40.5 q-45 40.5 -45 130.5 q0 90 51 120.5 q51 30.5 161 34.5 l72 3 l0 9 q0 19 -42 19 q-91 0 -182 -10 l-33 -3 l-5 152 q132 35 241 35 q114 0 177 -34 q68 -36 68 -142 l0 -190 q9 -7 24 -11 l-3 -142 q-12 -2 -27 -4 q-51 -49 -51 -74.5 q0 -25.5 22 -25.5 l46 4 l13 -104 q-49 -15 -136 -15 ZM256 141 q19 0 38 15 l0 37 l-34 -2 q-26 -2 -26 -26 q0 -24 22 -24 Z" /><glyph glyph-name="Cacute" unicode="&#x106;" d="M519 13 q-106 -26 -217 -26 q-111 0 -171 31.5 q-60 31.5 -86.5 105.5 q-26.5 74 -26.5 213 q0 199 61.5 272.5 q61.5 73.5 234.5 73.5 q72 0 170 -20 l35 -7 l-6 -179 q-82 10 -151.5 10 q-69.5 0 -89.5 -26.5 q-20 -26.5 -20 -109.5 q0 -83 9.5 -115 q9.5 -32 30.5 -42.5 q21 -10.5 68 -10.5 l156 6 l3 -176 ZM221 849 l242 0 l-109 -136 l-176 0 l43 136 Z" /><glyph glyph-name="cacute" unicode="&#x107;" d="M266 518 q69 0 153 -20 l28 -6 l-7 -177 q-103 8 -138 8 q-35 0 -47.5 -15.5 q-12.5 -15.5 -12.5 -55 q0 -39.5 12.5 -54.5 q12.5 -15 44.5 -15 l143 7 l7 -175 q-96 -28 -183 -28 q-144 0 -197 59.5 q-53 59.5 -53 208 q0 148.5 57 206 q57 57.5 193 57.5 ZM161 723 l237 0 l-109 -166 l-171 0 l43 166 Z" /><glyph glyph-name="Ccircumflex" unicode="&#x108;" d="M519 13 q-106 -26 -217 -26 q-111 0 -171 31.5 q-60 31.5 -86.5 105.5 q-26.5 74 -26.5 213 q0 199 61.5 272.5 q61.5 73.5 234.5 73.5 q72 0 170 -20 l35 -7 l-6 -179 q-82 10 -151.5 10 q-69.5 0 -89.5 -26.5 q-20 -26.5 -20 -109.5 q0 -83 9.5 -115 q9.5 -32 30.5 -42.5 q21 -10.5 68 -10.5 l156 6 l3 -176 ZM106 713 l101 136 l152 0 l112 -136 l-169 0 l-15 62 l-12 -62 l-169 0 Z" /><glyph glyph-name="ccircumflex" unicode="&#x109;" d="M266 518 q69 0 153 -20 l28 -6 l-7 -177 q-103 8 -138 8 q-35 0 -47.5 -15.5 q-12.5 -15.5 -12.5 -55 q0 -39.5 12.5 -54.5 q12.5 -15 44.5 -15 l143 7 l7 -175 q-96 -28 -183 -28 q-144 0 -197 59.5 q-53 59.5 -53 208 q0 148.5 57 206 q57 57.5 193 57.5 ZM57 557 l91 166 l158 0 l102 -166 l-162 0 l-15 72 l-12 -72 l-162 0 Z" /><glyph glyph-name="Cdotaccent" unicode="&#x10a;" d="M519 13 q-106 -26 -217 -26 q-111 0 -171 31.5 q-60 31.5 -86.5 105.5 q-26.5 74 -26.5 213 q0 199 61.5 272.5 q61.5 73.5 234.5 73.5 q72 0 170 -20 l35 -7 l-6 -179 q-82 10 -151.5 10 q-69.5 0 -89.5 -26.5 q-20 -26.5 -20 -109.5 q0 -83 9.5 -115 q9.5 -32 30.5 -42.5 q21 -10.5 68 -10.5 l156 6 l3 -176 ZM188 713 l0 143 l180 0 l0 -143 l-180 0 Z" /><glyph glyph-name="cdotaccent" unicode="&#x10b;" d="M266 518 q69 0 153 -20 l28 -6 l-7 -177 q-103 8 -138 8 q-35 0 -47.5 -15.5 q-12.5 -15.5 -12.5 -55 q0 -39.5 12.5 -54.5 q12.5 -15 44.5 -15 l143 7 l7 -175 q-96 -28 -183 -28 q-144 0 -197 59.5 q-53 59.5 -53 208 q0 148.5 57 206 q57 57.5 193 57.5 ZM149 563 l0 153 l186 0 l0 -153 l-186 0 Z" /><glyph glyph-name="Ccaron" unicode="&#x10c;" d="M519 13 q-106 -26 -217 -26 q-111 0 -171 31.5 q-60 31.5 -86.5 105.5 q-26.5 74 -26.5 213 q0 199 61.5 272.5 q61.5 73.5 234.5 73.5 q72 0 170 -20 l35 -7 l-6 -179 q-82 10 -151.5 10 q-69.5 0 -89.5 -26.5 q-20 -26.5 -20 -109.5 q0 -83 9.5 -115 q9.5 -32 30.5 -42.5 q21 -10.5 68 -10.5 l156 6 l3 -176 ZM197 712 l-101 136 l169 0 l14 -62 l13 62 l169 0 l-112 -136 l-152 0 Z" /><glyph glyph-name="ccaron" unicode="&#x10d;" d="M266 518 q69 0 153 -20 l28 -6 l-7 -177 q-103 8 -138 8 q-35 0 -47.5 -15.5 q-12.5 -15.5 -12.5 -55 q0 -39.5 12.5 -54.5 q12.5 -15 44.5 -15 l143 7 l7 -175 q-96 -28 -183 -28 q-144 0 -197 59.5 q-53 59.5 -53 208 q0 148.5 57 206 q57 57.5 193 57.5 ZM148 557 l-91 166 l162 0 l14 -72 l13 72 l162 0 l-102 -166 l-158 0 Z" /><glyph glyph-name="Dcaron" unicode="&#x10e;" d="M323 0 l-293 0 l0 670 l283 0 q173 0 249 -78 q76 -78 76 -249.5 q0 -171.5 -73 -257 q-73 -85.5 -242 -85.5 ZM404 331 q0 90 -18.5 120 q-18.5 30 -82.5 30 l-41 0 l0 -292 l41 0 q52 0 77 26 q24 26 24 116 ZM222 712 l-101 136 l169 0 l14 -62 l13 62 l169 0 l-112 -136 l-152 0 Z" /><glyph glyph-name="dcaron" unicode="&#x10f;" d="M581 454 l20 215 l204 0 l-62 -215 l-162 0 ZM542 690 l0 -690 l-221 0 l-2 22 q-55 -35 -105 -35 q-110 0 -154 67.5 q-44 67.5 -44 197.5 q0 266 221 266 l81 -6 l0 178 l224 0 ZM286 337 q-27 0 -35.5 -22 q-8.5 -22 -8.5 -62.5 q0 -40.5 9 -62.5 q9 -22 36 -22 l31 3 l0 163 q-22 3 -32 3 Z" /><glyph glyph-name="Dcroat" unicode="&#x110;" d="M-1 270 l0 137 l38 0 l0 263 l283 0 q173 0 249 -78 q76 -78 76 -249.5 q0 -171.5 -73 -257 q-73 -85.5 -242 -85.5 l-293 0 l0 270 l-38 0 ZM411 331 q0 90 -18.5 120 q-18.5 30 -82.5 30 l-41 0 l0 -74 l55 0 l0 -137 l-55 0 l0 -81 l41 0 q52 0 76 26 q25 26 25 116 Z" /><glyph glyph-name="dcroat" unicode="&#x111;" d="M542 690 l0 -38 l40 0 l0 -107 l-40 0 l0 -545 l-221 0 l-2 22 q-55 -35 -105 -35 q-110 0 -154 67.5 q-44 67.5 -44 197.5 q0 266 221 266 l81 -6 l0 33 l-61 0 l0 107 l61 0 l0 38 l224 0 ZM286 337 q-27 0 -35.5 -22 q-8.5 -22 -8.5 -62.5 q0 -40.5 9 -62.5 q9 -22 36 -22 l31 3 l0 163 q-22 3 -32 3 Z" /><glyph glyph-name="Emacron" unicode="&#x112;" d="M30 0 l0 670 l502 0 l0 -185 l-270 0 l0 -57 l210 0 l0 -183 l-210 0 l0 -60 l270 0 l0 -185 l-502 0 ZM121 713 l0 136 l321 0 l0 -136 l-321 0 Z" /><glyph glyph-name="emacron" unicode="&#x113;" d="M239 187 q1 -35 45 -35 q100 0 200 6 l39 3 l5 -145 q-133 -29 -264.5 -29 q-131.5 0 -190 60.5 q-58.5 60.5 -58.5 196 q0 135.5 63 205 q63 69.5 196.5 69.5 q133.5 0 198.5 -57 q65 -57 65 -175 l-10 -99 l-289 0 ZM314 309 q0 29 -8.5 41 q-8.5 12 -29.5 12 q-21 0 -29 -12 q-8 -12 -9 -41 l76 0 ZM113 563 l0 144 l327 0 l0 -144 l-327 0 Z" /><glyph glyph-name="Ebreve" unicode="&#x114;" d="M30 0 l0 670 l502 0 l0 -185 l-270 0 l0 -57 l210 0 l0 -183 l-210 0 l0 -60 l270 0 l0 -185 l-502 0 ZM394 754.5 q-37 -42.5 -123 -42.5 q-86 0 -123 42.5 q-37 42.5 -37 107.5 l116 10 q5 -45 44 -45 q39 0 44 45 l116 -10 q0 -65 -37 -107.5 Z" /><glyph glyph-name="ebreve" unicode="&#x115;" d="M239 187 q1 -35 45 -35 q100 0 200 6 l39 3 l5 -145 q-133 -29 -264.5 -29 q-131.5 0 -190 60.5 q-58.5 60.5 -58.5 196 q0 135.5 63 205 q63 69.5 196.5 69.5 q133.5 0 198.5 -57 q65 -57 65 -175 l-10 -99 l-289 0 ZM314 309 q0 29 -8.5 41 q-8.5 12 -29.5 12 q-21 0 -29 -12 q-8 -12 -9 -41 l76 0 ZM437 708 q0 -160 -160 -160 q-160 0 -160 160 l116 10 q5 -45 44 -45 q39 0 44 45 l116 -10 Z" /><glyph glyph-name="Edotaccent" unicode="&#x116;" d="M30 0 l0 670 l502 0 l0 -185 l-270 0 l0 -57 l210 0 l0 -183 l-210 0 l0 -60 l270 0 l0 -185 l-502 0 ZM191 713 l0 143 l180 0 l0 -143 l-180 0 Z" /><glyph glyph-name="edotaccent" unicode="&#x117;" d="M239 187 q1 -35 45 -35 q100 0 200 6 l39 3 l5 -145 q-133 -29 -264.5 -29 q-131.5 0 -190 60.5 q-58.5 60.5 -58.5 196 q0 135.5 63 205 q63 69.5 196.5 69.5 q133.5 0 198.5 -57 q65 -57 65 -175 l-10 -99 l-289 0 ZM314 309 q0 29 -8.5 41 q-8.5 12 -29.5 12 q-21 0 -29 -12 q-8 -12 -9 -41 l76 0 ZM188 563 l0 153 l186 0 l0 -153 l-186 0 Z" /><glyph glyph-name="Eogonek" unicode="&#x118;" d="M30 0 l0 670 l502 0 l0 -185 l-270 0 l0 -57 l210 0 l0 -183 l-210 0 l0 -60 l270 0 l0 -185 l-24 0 q-56 -56 -56 -80.5 q0 -24.5 22 -24.5 l46 4 l13 -104 q-49 -15 -136 -15 q-155 0 -155 116 q0 62 58 104 l-270 0 Z" /><glyph glyph-name="eogonek" unicode="&#x119;" d="M399 -220 q-155 0 -155 116 q0 53 42 91 l-14 0 q-140 0 -198.5 60.5 q-58.5 60.5 -58.5 196 q0 135.5 63 205 q63 69.5 196.5 69.5 q133.5 0 198.5 -57 q65 -57 65 -175 l-10 -99 l-289 0 q1 -35 45 -35 q100 0 200 6 l39 3 l5 -145 q-74 -64 -74 -99 q0 -22 22 -22 l46 4 l13 -104 q-49 -15 -136 -15 ZM314 309 q0 29 -8.5 41 q-8.5 12 -29.5 12 q-21 0 -29 -12 q-8 -12 -9 -41 l76 0 Z" /><glyph glyph-name="Ecaron" unicode="&#x11a;" d="M30 0 l0 670 l502 0 l0 -185 l-270 0 l0 -57 l210 0 l0 -183 l-210 0 l0 -60 l270 0 l0 -185 l-502 0 ZM190 712 l-101 136 l169 0 l14 -62 l13 62 l169 0 l-112 -136 l-152 0 Z" /><glyph glyph-name="ecaron" unicode="&#x11b;" d="M239 187 q1 -35 45 -35 q100 0 200 6 l39 3 l5 -145 q-133 -29 -264.5 -29 q-131.5 0 -190 60.5 q-58.5 60.5 -58.5 196 q0 135.5 63 205 q63 69.5 196.5 69.5 q133.5 0 198.5 -57 q65 -57 65 -175 l-10 -99 l-289 0 ZM314 309 q0 29 -8.5 41 q-8.5 12 -29.5 12 q-21 0 -29 -12 q-8 -12 -9 -41 l76 0 ZM192 557 l-91 166 l162 0 l14 -72 l13 72 l162 0 l-102 -166 l-158 0 Z" /><glyph glyph-name="Gcircumflex" unicode="&#x11c;" d="M592 394 l0 -374 q-181 -29 -268 -29 q-87 0 -148.5 19.5 q-61.5 19.5 -96.5 64.5 q-35 45 -48.5 106 q-13.5 61 -13.5 155 q0 193 72 270 q72 77 243 77 q51 0 115 -8.5 q64 -8.5 102 -16.5 l38 -9 l0 -175 q-144 13 -204.5 13 q-60.5 0 -79 -5.5 q-18.5 -5.5 -29.5 -13 q-11 -7.5 -16 -29.5 q-7 -31 -7 -109 q0 -78 18 -113.5 q18 -35.5 73 -35.5 l34 1 l0 50 l-30 0 l-1 162 l247 0 ZM142 713 l101 136 l152 0 l112 -136 l-169 0 l-15 62 l-12 -62 l-169 0 Z" /><glyph glyph-name="gcircumflex" unicode="&#x11d;" d="M92 -196 q-80 26 -80 115 q0 36 14 64 q14 28 50 56 q-36 25 -36 75 q0 11 14.5 29.5 q14.5 18.5 29.5 30.5 l14 13 q-81 38 -81 144 q0 106 57.5 146.5 q57.5 40.5 190.5 40.5 q33 0 87 -8 l16 -3 l185 3 l0 -131 l-47 0 q9 -25 9 -41 q0 -108 -55 -144.5 q-55 -36.5 -187 -36.5 q-20 0 -38 3 q-4 -6 -4 -12 q0 -10 118 -10 q118 0 159.5 -35 q41.5 -35 41.5 -127.5 q0 -92.5 -68 -144 q-68 -51.5 -194 -51.5 q-126 0 -196 24 ZM195 -53 q0 -13 76 -13 q76 0 76 16 q0 10 -13 12.5 q-13 2.5 -53 2.5 l-77 4 q-9 -5 -9 -22 ZM236 311 q9 -8 30 -8 q21 0 30 8 q9 8 9 28 q0 20 -9 28 q-9 8 -30 8 q-21 0 -30 -8 q-9 -8 -9 -28 q0 -20 9 -28 ZM107 557 l91 166 l158 0 l102 -166 l-162 0 l-15 72 l-12 -72 l-162 0 Z" /><glyph glyph-name="Gbreve" unicode="&#x11e;" d="M592 394 l0 -374 q-181 -29 -268 -29 q-87 0 -148.5 19.5 q-61.5 19.5 -96.5 64.5 q-35 45 -48.5 106 q-13.5 61 -13.5 155 q0 193 72 270 q72 77 243 77 q51 0 115 -8.5 q64 -8.5 102 -16.5 l38 -9 l0 -175 q-144 13 -204.5 13 q-60.5 0 -79 -5.5 q-18.5 -5.5 -29.5 -13 q-11 -7.5 -16 -29.5 q-7 -31 -7 -109 q0 -78 18 -113.5 q18 -35.5 73 -35.5 l34 1 l0 50 l-30 0 l-1 162 l247 0 ZM447 754.5 q-37 -42.5 -123 -42.5 q-86 0 -123 42.5 q-37 42.5 -37 107.5 l116 10 q5 -45 44 -45 q39 0 44 45 l116 -10 q0 -65 -37 -107.5 Z" /><glyph glyph-name="gbreve" unicode="&#x11f;" d="M92 -196 q-80 26 -80 115 q0 36 14 64 q14 28 50 56 q-36 25 -36 75 q0 11 14.5 29.5 q14.5 18.5 29.5 30.5 l14 13 q-81 38 -81 144 q0 106 57.5 146.5 q57.5 40.5 190.5 40.5 q33 0 87 -8 l16 -3 l185 3 l0 -131 l-47 0 q9 -25 9 -41 q0 -108 -55 -144.5 q-55 -36.5 -187 -36.5 q-20 0 -38 3 q-4 -6 -4 -12 q0 -10 118 -10 q118 0 159.5 -35 q41.5 -35 41.5 -127.5 q0 -92.5 -68 -144 q-68 -51.5 -194 -51.5 q-126 0 -196 24 ZM195 -53 q0 -13 76 -13 q76 0 76 16 q0 10 -13 12.5 q-13 2.5 -53 2.5 l-77 4 q-9 -5 -9 -22 ZM236 311 q9 -8 30 -8 q21 0 30 8 q9 8 9 28 q0 20 -9 28 q-9 8 -30 8 q-21 0 -30 -8 q-9 -8 -9 -28 q0 -20 9 -28 ZM443 708 q0 -160 -160 -160 q-160 0 -160 160 l116 10 q5 -45 44 -45 q39 0 44 45 l116 -10 Z" /><glyph glyph-name="Gdotaccent" unicode="&#x120;" d="M592 394 l0 -374 q-181 -29 -268 -29 q-87 0 -148.5 19.5 q-61.5 19.5 -96.5 64.5 q-35 45 -48.5 106 q-13.5 61 -13.5 155 q0 193 72 270 q72 77 243 77 q51 0 115 -8.5 q64 -8.5 102 -16.5 l38 -9 l0 -175 q-144 13 -204.5 13 q-60.5 0 -79 -5.5 q-18.5 -5.5 -29.5 -13 q-11 -7.5 -16 -29.5 q-7 -31 -7 -109 q0 -78 18 -113.5 q18 -35.5 73 -35.5 l34 1 l0 50 l-30 0 l-1 162 l247 0 ZM211 706 l0 153 l186 0 l0 -153 l-186 0 Z" /><glyph glyph-name="gdotaccent" unicode="&#x121;" d="M92 -196 q-80 26 -80 115 q0 36 14 64 q14 28 50 56 q-36 25 -36 75 q0 11 14.5 29.5 q14.5 18.5 29.5 30.5 l14 13 q-81 38 -81 144 q0 106 57.5 146.5 q57.5 40.5 190.5 40.5 q33 0 87 -8 l16 -3 l185 3 l0 -131 l-47 0 q9 -25 9 -41 q0 -108 -55 -144.5 q-55 -36.5 -187 -36.5 q-20 0 -38 3 q-4 -6 -4 -12 q0 -10 118 -10 q118 0 159.5 -35 q41.5 -35 41.5 -127.5 q0 -92.5 -68 -144 q-68 -51.5 -194 -51.5 q-126 0 -196 24 ZM195 -53 q0 -13 76 -13 q76 0 76 16 q0 10 -13 12.5 q-13 2.5 -53 2.5 l-77 4 q-9 -5 -9 -22 ZM236 311 q9 -8 30 -8 q21 0 30 8 q9 8 9 28 q0 20 -9 28 q-9 8 -30 8 q-21 0 -30 -8 q-9 -8 -9 -28 q0 -20 9 -28 ZM189 563 l0 153 l186 0 l0 -153 l-186 0 Z" /><glyph glyph-name="Gcommaaccent" unicode="&#x122;" d="M202 -260 l20 215 l204 0 l-62 -215 l-162 0 ZM592 394 l0 -374 q-181 -29 -268 -29 q-87 0 -148.5 19.5 q-61.5 19.5 -96.5 64.5 q-35 45 -48.5 106 q-13.5 61 -13.5 155 q0 193 72 270 q72 77 243 77 q51 0 115 -8.5 q64 -8.5 102 -16.5 l38 -9 l0 -175 q-144 13 -204.5 13 q-60.5 0 -79 -5.5 q-18.5 -5.5 -29.5 -13 q-11 -7.5 -16 -29.5 q-7 -31 -7 -109 q0 -78 18 -113.5 q18 -35.5 73 -35.5 l34 1 l0 50 l-30 0 l-1 162 l247 0 Z" /><glyph glyph-name="gcommaaccent" unicode="&#x123;" d="M390 778 l-20 -215 l-204 0 l62 215 l162 0 ZM92 -196 q-80 26 -80 115 q0 36 14 64 q14 28 50 56 q-36 25 -36 75 q0 11 14.5 29.5 q14.5 18.5 29.5 30.5 l14 13 q-81 38 -81 144 q0 106 57.5 146.5 q57.5 40.5 190.5 40.5 q33 0 87 -8 l16 -3 l185 3 l0 -131 l-47 0 q9 -25 9 -41 q0 -108 -55 -144.5 q-55 -36.5 -187 -36.5 q-20 0 -38 3 q-4 -6 -4 -12 q0 -10 118 -10 q118 0 159.5 -35 q41.5 -35 41.5 -127.5 q0 -92.5 -68 -144 q-68 -51.5 -194 -51.5 q-126 0 -196 24 ZM195 -53 q0 -13 76 -13 q76 0 76 16 q0 10 -13 12.5 q-13 2.5 -53 2.5 l-77 4 q-9 -5 -9 -22 ZM236 311 q9 -8 30 -8 q21 0 30 8 q9 8 9 28 q0 20 -9 28 q-9 8 -30 8 q-21 0 -30 -8 q-9 -8 -9 -28 q0 -20 9 -28 Z" /><glyph glyph-name="Hcircumflex" unicode="&#x124;" d="M393 0 l0 234 l-131 0 l0 -234 l-232 0 l0 670 l232 0 l0 -247 l131 0 l0 247 l232 0 l0 -670 l-232 0 ZM145 713 l101 136 l152 0 l112 -136 l-169 0 l-15 62 l-12 -62 l-169 0 Z" /><glyph glyph-name="hcircumflex" unicode="&#x125;" d="M252 0 l-224 0 l0 690 l224 0 l0 -189 q70 17 107 17 q109 0 152.5 -57 q43.5 -57 43.5 -200 l0 -261 l-224 0 l0 238 q0 87 -38 87 l-41 -6 l0 -319 ZM114 741 l91 166 l158 0 l102 -166 l-162 0 l-15 72 l-12 -72 l-162 0 Z" /><glyph glyph-name="Hbar" unicode="&#x126;" d="M4 473 l0 132 l28 0 l0 65 l232 0 l0 -65 l131 0 l0 65 l232 0 l0 -65 l28 0 l0 -132 l-28 0 l0 -473 l-232 0 l0 234 l-131 0 l0 -234 l-232 0 l0 473 l-28 0 ZM264 423 l131 0 l0 50 l-131 0 l0 -50 Z" /><glyph glyph-name="hbar" unicode="&#x127;" d="M252 0 l-224 0 l0 545 l-40 0 l0 107 l40 0 l0 38 l224 0 l0 -38 l61 0 l0 -107 l-61 0 l0 -44 q70 17 107 17 q109 0 152.5 -57 q43.5 -57 43.5 -200 l0 -261 l-224 0 l0 238 q0 87 -38 87 l-41 -6 l0 -319 Z" /><glyph glyph-name="Itilde" unicode="&#x128;" d="M30 0 l0 670 l232 0 l0 -670 l-232 0 ZM312.5 754 q-10.5 -10 -38.5 -26 q-28 -16 -54 -16 q-26 0 -79.5 17 q-53.5 17 -66.5 17 q-27 0 -67 -18 l-14 -7 l-29 106 q17 20 50 39.5 q33 19.5 62.5 19.5 q29.5 0 80.5 -16 q51 -16 62 -16 q20 0 67 18 l14 5 l29 -107 q-6 -6 -16.5 -16 Z" /><glyph glyph-name="itilde" unicode="&#x129;" d="M28 0 l0 505 l224 0 l0 -505 l-224 0 ZM271 566.5 q-31 -19.5 -57 -19.5 q-26 0 -79.5 22 q-53.5 22 -66.5 22 q-25 0 -67 -30 l-14 -10 l-29 116 q20 24 51.5 44 q31.5 20 61 20 q29.5 0 80.5 -21.5 q51 -21.5 62 -21.5 q21 0 67 30 l14 9 l29 -117 q-21 -24 -52 -43.5 Z" /><glyph glyph-name="Imacron" unicode="&#x12a;" d="M30 0 l0 670 l232 0 l0 -670 l-232 0 ZM-14 713 l0 136 l321 0 l0 -136 l-321 0 Z" /><glyph glyph-name="imacron" unicode="&#x12b;" d="M28 0 l0 505 l224 0 l0 -505 l-224 0 ZM-27 563 l0 144 l327 0 l0 -144 l-327 0 Z" /><glyph glyph-name="Ibreve" unicode="&#x12c;" d="M30 0 l0 670 l232 0 l0 -670 l-232 0 ZM269 754.5 q-37 -42.5 -123 -42.5 q-86 0 -123 42.5 q-37 42.5 -37 107.5 l116 10 q5 -45 44 -45 q39 0 44 45 l116 -10 q0 -65 -37 -107.5 Z" /><glyph glyph-name="ibreve" unicode="&#x12d;" d="M28 0 l0 505 l224 0 l0 -505 l-224 0 ZM297 708 q0 -160 -160 -160 q-160 0 -160 160 l116 10 q5 -45 44 -45 q39 0 44 45 l116 -10 Z" /><glyph glyph-name="Iogonek" unicode="&#x12e;" d="M30 0 l0 670 l232 0 l0 -670 l-24 0 q-57 -54 -57 -80 q0 -26 22 -26 l46 4 l13 -104 q-49 -15 -136 -15 q-155 0 -155 116 q0 63 60 105 l-1 0 Z" /><glyph glyph-name="iogonek" unicode="&#x12f;" d="M115 -220 q-155 0 -155 116 q0 68 68 110 l0 499 l224 0 l0 -505 q-29 -16 -55.5 -41.5 q-26.5 -25.5 -26.5 -41.5 q0 -22 22 -22 l46 4 l13 -104 q-49 -15 -136 -15 ZM27 537 l0 153 l226 0 l0 -153 l-226 0 Z" /><glyph glyph-name="Idotaccent" unicode="&#x130;" d="M30 0 l0 670 l232 0 l0 -670 l-232 0 ZM53 706 l0 153 l186 0 l0 -153 l-186 0 Z" /><glyph glyph-name="dotlessi" unicode="&#x131;" d="M28 0 l0 505 l224 0 l0 -505 l-224 0 Z" /><glyph glyph-name="Jcircumflex" unicode="&#x134;" d="M294 670 l0 -493 q0 -98 -48 -144 q-37 -37 -134 -43 q-37 -3 -97 -3 l0 191 q13 0 19 0.5 q6 0.5 12.5 6 q6.5 5.5 8.5 12.5 q2 7 4 25 q3 28 3 100 l0 348 l232 0 ZM2 713 l101 136 l152 0 l112 -136 l-169 0 l-15 62 l-12 -62 l-169 0 Z" /><glyph glyph-name="jcircumflex" unicode="&#x135;" d="M28 66 l0 439 l224 0 l0 -432 q0 -105 -15.5 -143 q-15.5 -38 -30 -56 q-14.5 -18 -45.5 -36 q-48 -26 -150 -58 l-72 170 q62 29 75.5 46 q13.5 17 13.5 70 ZM-35 557 l91 166 l158 0 l102 -166 l-162 0 l-15 72 l-12 -72 l-162 0 Z" /><glyph glyph-name="Kcommaaccent" unicode="&#x136;" d="M174 -260 l20 215 l204 0 l-62 -215 l-162 0 ZM262 223 l0 -223 l-232 0 l0 670 l232 0 l0 -237 l40 0 l75 237 l230 0 l-107 -324 l117 -346 l-233 0 l-81 223 l-41 0 Z" /><glyph glyph-name="kcommaaccent" unicode="&#x137;" d="M178 -260 l20 215 l204 0 l-62 -215 l-162 0 ZM252 0 l-224 0 l0 690 l224 0 l0 -347 l29 0 l45 162 l221 0 l-72 -244 l78 -261 l-224 0 l-47 148 l-30 0 l0 -148 Z" /><glyph glyph-name="Lacute" unicode="&#x139;" d="M480 0 l-450 0 l0 670 l232 0 l0 -481 l218 0 l0 -189 ZM83 849 l242 0 l-109 -136 l-176 0 l43 136 Z" /><glyph glyph-name="lacute" unicode="&#x13a;" d="M28 0 l0 690 l224 0 l0 -690 l-224 0 ZM71 907 l237 0 l-109 -166 l-171 0 l43 166 Z" /><glyph glyph-name="Lcommaaccent" unicode="&#x13b;" d="M135 -260 l20 215 l204 0 l-62 -215 l-162 0 ZM480 0 l-450 0 l0 670 l232 0 l0 -481 l218 0 l0 -189 Z" /><glyph glyph-name="lcommaaccent" unicode="&#x13c;" d="M28 -260 l20 215 l204 0 l-62 -215 l-162 0 ZM28 0 l0 690 l224 0 l0 -690 l-224 0 Z" /><glyph glyph-name="Lcaron" unicode="&#x13d;" d="M318 488 l20 215 l204 0 l-62 -215 l-162 0 ZM480 0 l-450 0 l0 670 l232 0 l0 -481 l218 0 l0 -189 Z" /><glyph glyph-name="lcaron" unicode="&#x13e;" d="M292 454 l20 215 l204 0 l-62 -215 l-162 0 ZM28 0 l0 690 l224 0 l0 -690 l-224 0 Z" /><glyph glyph-name="Lslash" unicode="&#x141;" d="M34 670 l232 0 l0 -201 l74 37 l0 -187 l-74 -37 l0 -93 l218 0 l0 -189 l-450 0 l0 166 l-31 -15 l0 187 l31 15 l0 317 Z" /><glyph glyph-name="lslash" unicode="&#x142;" d="M41 690 l224 0 l0 -242 l39 20 l0 -187 l-39 -20 l0 -261 l-224 0 l0 149 l-37 -18 l0 187 l37 18 l0 354 Z" /><glyph glyph-name="Nacute" unicode="&#x143;" d="M30 0 l0 670 l228 0 l154 -254 l14 0 l0 254 l232 0 l0 -670 l-229 0 l-152 273 l-15 0 l0 -273 l-232 0 ZM255 849 l242 0 l-109 -136 l-176 0 l43 136 Z" /><glyph glyph-name="nacute" unicode="&#x144;" d="M252 0 l-224 0 l0 505 l223 0 l0 -26 q63 39 110 39 q108 0 151 -58.5 q43 -58.5 43 -206.5 l0 -253 l-224 0 l0 238 q0 87 -36 87 l-43 -7 l0 -318 ZM213 723 l237 0 l-109 -166 l-171 0 l43 166 Z" /><glyph glyph-name="Ncommaaccent" unicode="&#x145;" d="M242 -260 l20 215 l204 0 l-62 -215 l-162 0 ZM30 0 l0 670 l228 0 l154 -254 l14 0 l0 254 l232 0 l0 -670 l-229 0 l-152 273 l-15 0 l0 -273 l-232 0 Z" /><glyph glyph-name="ncommaaccent" unicode="&#x146;" d="M179 -260 l20 215 l204 0 l-62 -215 l-162 0 ZM252 0 l-224 0 l0 505 l223 0 l0 -26 q63 39 110 39 q108 0 151 -58.5 q43 -58.5 43 -206.5 l0 -253 l-224 0 l0 238 q0 87 -36 87 l-43 -7 l0 -318 Z" /><glyph glyph-name="Ncaron" unicode="&#x147;" d="M30 0 l0 670 l228 0 l154 -254 l14 0 l0 254 l232 0 l0 -670 l-229 0 l-152 273 l-15 0 l0 -273 l-232 0 ZM263 712 l-101 136 l169 0 l14 -62 l13 62 l169 0 l-112 -136 l-152 0 Z" /><glyph glyph-name="ncaron" unicode="&#x148;" d="M252 0 l-224 0 l0 505 l223 0 l0 -26 q63 39 110 39 q108 0 151 -58.5 q43 -58.5 43 -206.5 l0 -253 l-224 0 l0 238 q0 87 -36 87 l-43 -7 l0 -318 ZM197 557 l-91 166 l162 0 l14 -72 l13 72 l162 0 l-102 -166 l-158 0 Z" /><glyph glyph-name="Eng" unicode="&#x14a;" d="M30 0 l0 670 l228 0 l154 -254 l14 0 l0 254 l232 0 l0 -670 q0 -103 -21 -148 q-13 -28 -27.5 -45.5 q-14.5 -17.5 -46.5 -34.5 q-45 -24 -151 -58 l-72 170 q62 29 75.5 46 q13.5 17 13.5 70 l-152 273 l-15 0 l0 -273 l-232 0 Z" /><glyph glyph-name="eng" unicode="&#x14b;" d="M331 66 l0 172 q0 87 -36 87 l-43 -7 l0 -318 l-224 0 l0 505 l223 0 l0 -26 q63 39 110 39 q108 0 151 -58.5 q43 -58.5 43 -206.5 l0 -180 q0 -105 -15.5 -143 q-15.5 -38 -30 -56 q-14.5 -18 -45.5 -36 q-48 -26 -150 -58 l-72 170 q62 29 75.5 46 q13.5 17 13.5 70 Z" /><glyph glyph-name="Omacron" unicode="&#x14c;" d="M250 335 q0 -85 16.5 -122.5 q16.5 -37.5 69 -37.5 q52.5 0 68.5 37 q16 37 16 123.5 q0 86.5 -15.5 123 q-15.5 36.5 -68.5 36.5 q-53 0 -69.5 -37.5 q-16.5 -37.5 -16.5 -122.5 ZM654 335 q0 -183 -76 -265.5 q-76 -82.5 -242.5 -82.5 q-166.5 0 -243 83 q-76.5 83 -76.5 265.5 q0 182.5 76 265 q76 82.5 243 82.5 q167 0 243 -82.5 q76 -82.5 76 -265.5 ZM175 713 l0 136 l321 0 l0 -136 l-321 0 Z" /><glyph glyph-name="omacron" unicode="&#x14d;" d="M81.5 455.5 q66.5 62.5 200.5 62.5 q134 0 200.5 -62.5 q66.5 -62.5 66.5 -203.5 q0 -141 -66.5 -203 q-66.5 -62 -200.5 -62 q-134 0 -200.5 62 q-66.5 62 -66.5 203 q0 141 66.5 203.5 ZM250 186 q9 -18 32 -18 q23 0 32 18 q9 18 9 66.5 q0 48.5 -9 66.5 q-9 18 -32 18 q-23 0 -32 -18 q-9 -18 -9 -66.5 q0 -48.5 9 -66.5 ZM119 563 l0 144 l327 0 l0 -144 l-327 0 Z" /><glyph glyph-name="Obreve" unicode="&#x14e;" d="M250 335 q0 -85 16.5 -122.5 q16.5 -37.5 69 -37.5 q52.5 0 68.5 37 q16 37 16 123.5 q0 86.5 -15.5 123 q-15.5 36.5 -68.5 36.5 q-53 0 -69.5 -37.5 q-16.5 -37.5 -16.5 -122.5 ZM654 335 q0 -183 -76 -265.5 q-76 -82.5 -242.5 -82.5 q-166.5 0 -243 83 q-76.5 83 -76.5 265.5 q0 182.5 76 265 q76 82.5 243 82.5 q167 0 243 -82.5 q76 -82.5 76 -265.5 ZM458 754.5 q-37 -42.5 -123 -42.5 q-86 0 -123 42.5 q-37 42.5 -37 107.5 l116 10 q5 -45 44 -45 q39 0 44 45 l116 -10 q0 -65 -37 -107.5 Z" /><glyph glyph-name="obreve" unicode="&#x14f;" d="M81.5 455.5 q66.5 62.5 200.5 62.5 q134 0 200.5 -62.5 q66.5 -62.5 66.5 -203.5 q0 -141 -66.5 -203 q-66.5 -62 -200.5 -62 q-134 0 -200.5 62 q-66.5 62 -66.5 203 q0 141 66.5 203.5 ZM250 186 q9 -18 32 -18 q23 0 32 18 q9 18 9 66.5 q0 48.5 -9 66.5 q-9 18 -32 18 q-23 0 -32 -18 q-9 -18 -9 -66.5 q0 -48.5 9 -66.5 ZM444 708 q0 -160 -160 -160 q-160 0 -160 160 l116 10 q5 -45 44 -45 q39 0 44 45 l116 -10 Z" /><glyph glyph-name="Ohungarumlaut" unicode="&#x150;" d="M250 335 q0 -85 16.5 -122.5 q16.5 -37.5 69 -37.5 q52.5 0 68.5 37 q16 37 16 123.5 q0 86.5 -15.5 123 q-15.5 36.5 -68.5 36.5 q-53 0 -69.5 -37.5 q-16.5 -37.5 -16.5 -122.5 ZM654 335 q0 -183 -76 -265.5 q-76 -82.5 -242.5 -82.5 q-166.5 0 -243 83 q-76.5 83 -76.5 265.5 q0 182.5 76 265 q76 82.5 243 82.5 q167 0 243 -82.5 q76 -82.5 76 -265.5 ZM181 849 l187 0 l-89 -136 l-131 0 l33 136 ZM396 849 l187 0 l-89 -136 l-131 0 l33 136 Z" /><glyph glyph-name="ohungarumlaut" unicode="&#x151;" d="M81.5 455.5 q66.5 62.5 200.5 62.5 q134 0 200.5 -62.5 q66.5 -62.5 66.5 -203.5 q0 -141 -66.5 -203 q-66.5 -62 -200.5 -62 q-134 0 -200.5 62 q-66.5 62 -66.5 203 q0 141 66.5 203.5 ZM250 186 q9 -18 32 -18 q23 0 32 18 q9 18 9 66.5 q0 48.5 -9 66.5 q-9 18 -32 18 q-23 0 -32 -18 q-9 -18 -9 -66.5 q0 -48.5 9 -66.5 ZM120 725 l192 0 l-89 -166 l-136 0 l33 166 ZM340 725 l192 0 l-89 -166 l-136 0 l33 166 Z" /><glyph glyph-name="OE" unicode="&#x152;" d="M869 670 l0 -185 l-239 0 l0 -58 l179 0 l0 -181 l-179 0 l0 -61 l239 0 l0 -185 l-385 0 q-114 -13 -193 -13 q-156 0 -214.5 81 q-58.5 81 -58.5 272 q0 191 61 267 q61 76 222 76 l183 -13 l385 0 ZM357 175 l41 0 l0 318 q-28 2 -41 2 q-71 0 -91 -30.5 q-20 -30.5 -20 -124.5 q0 -74 6.5 -102.5 q6.5 -28.5 18.5 -38.5 q29 -24 86 -24 Z" /><glyph glyph-name="oe" unicode="&#x153;" d="M547 187 q1 -35 45 -35 q100 0 200 6 l39 3 l5 -145 q-133 -29 -247 -29 q-114 0 -155 44 q-47 -44 -152 -44 q-134 0 -200.5 62 q-66.5 62 -66.5 203 q0 141 66.5 203.5 q66.5 62.5 190.5 62.5 q124 0 170 -48 q43 48 143 48 q131 0 196 -57 q65 -57 65 -175 l-10 -99 l-289 0 ZM250 186 q9 -18 32 -18 q23 0 32 18 q9 18 9 66.5 q0 48.5 -9 66.5 q-9 18 -32 18 q-23 0 -32 -18 q-9 -18 -9 -66.5 q0 -48.5 9 -66.5 ZM624 309 q0 29 -9 41 q-9 12 -30.5 12 q-21.5 0 -29.5 -12 q-8 -12 -9 -41 l78 0 Z" /><glyph glyph-name="Racute" unicode="&#x154;" d="M319 173 l-57 0 l0 -173 l-232 0 l0 670 l282 0 q155 0 222 -51.5 q67 -51.5 67 -191 q0 -139.5 -74 -199.5 l66 -228 l-236 0 l-38 173 ZM226 849 l242 0 l-109 -136 l-176 0 l43 136 ZM318 356 q49 0 49 65.5 q0 65.5 -55 65.5 l-51 0 l0 -131 l57 0 Z" /><glyph glyph-name="racute" unicode="&#x155;" d="M252 0 l-224 0 l0 505 l224 0 l0 -47 q63 60 106 60 l0 -208 q-34 0 -88 -27 l-18 -9 l0 -274 ZM100 723 l237 0 l-109 -166 l-171 0 l43 166 Z" /><glyph glyph-name="Rcommaaccent" unicode="&#x156;" d="M319 173 l-57 0 l0 -173 l-232 0 l0 670 l282 0 q155 0 222 -51.5 q67 -51.5 67 -191 q0 -139.5 -74 -199.5 l66 -228 l-236 0 l-38 173 ZM193 -260 l20 215 l204 0 l-62 -215 l-162 0 ZM318 356 q49 0 49 65.5 q0 65.5 -55 65.5 l-51 0 l0 -131 l57 0 Z" /><glyph glyph-name="rcommaaccent" unicode="&#x157;" d="M28 -260 l20 215 l204 0 l-62 -215 l-162 0 ZM252 0 l-224 0 l0 505 l224 0 l0 -47 q63 60 106 60 l0 -208 q-34 0 -88 -27 l-18 -9 l0 -274 Z" /><glyph glyph-name="Rcaron" unicode="&#x158;" d="M319 173 l-57 0 l0 -173 l-232 0 l0 670 l282 0 q155 0 222 -51.5 q67 -51.5 67 -191 q0 -139.5 -74 -199.5 l66 -228 l-236 0 l-38 173 ZM234 712 l-101 136 l169 0 l14 -62 l13 62 l169 0 l-112 -136 l-152 0 ZM318 356 q49 0 49 65.5 q0 65.5 -55 65.5 l-51 0 l0 -131 l57 0 Z" /><glyph glyph-name="rcaron" unicode="&#x159;" d="M252 0 l-224 0 l0 505 l224 0 l0 -47 q63 60 106 60 l0 -208 q-34 0 -88 -27 l-18 -9 l0 -274 ZM96 557 l-91 166 l162 0 l14 -72 l13 72 l162 0 l-102 -166 l-158 0 Z" /><glyph glyph-name="Sacute" unicode="&#x15a;" d="M540 477 q-141 15 -205 15 q-64 0 -74.5 -3.5 q-10.5 -3.5 -10.5 -14.5 q0 -11 12 -17 q12 -6 75.5 -20 q63.5 -14 104 -27.5 q40.5 -13.5 73 -38 q32.5 -24.5 43 -60 q10.5 -35.5 10.5 -95.5 q0 -124 -66 -177 q-66 -53 -199 -53 q-64 0 -134.5 9 q-70.5 9 -108.5 18 l-39 9 l10 177 q153 -22 251 -22 q52 0 52 23 q0 10 -12 14.5 q-12 4.5 -65 12.5 q-140 22 -190.5 68.5 q-50.5 46.5 -50.5 152.5 q0 135 65 185 q65 50 200 50 q95 0 223 -19 l42 -7 l-6 -180 ZM204 849 l242 0 l-109 -136 l-176 0 l43 136 Z" /><glyph glyph-name="sacute" unicode="&#x15b;" d="M457 335 q-124 14 -169 14 q-45 0 -45 -8 q0 -6 78.5 -14.5 q78.5 -8.5 114.5 -45 q36 -36.5 36 -124.5 q0 -88 -54.5 -129 q-54.5 -41 -167.5 -41 q-63 0 -120 6.5 q-57 6.5 -82 13.5 l-26 7 l5 151 q124 -17 172.5 -17 q48.5 0 48.5 9 q0 5 -79 15.5 q-79 10.5 -114.5 47 q-35.5 36.5 -35.5 114.5 q0 102 58.5 143 q58.5 41 165.5 41 q114 0 195 -20 l27 -6 l-8 -157 ZM193 723 l237 0 l-109 -166 l-171 0 l43 166 Z" /><glyph glyph-name="Scircumflex" unicode="&#x15c;" d="M540 477 q-141 15 -205 15 q-64 0 -74.5 -3.5 q-10.5 -3.5 -10.5 -14.5 q0 -11 12 -17 q12 -6 75.5 -20 q63.5 -14 104 -27.5 q40.5 -13.5 73 -38 q32.5 -24.5 43 -60 q10.5 -35.5 10.5 -95.5 q0 -124 -66 -177 q-66 -53 -199 -53 q-64 0 -134.5 9 q-70.5 9 -108.5 18 l-39 9 l10 177 q153 -22 251 -22 q52 0 52 23 q0 10 -12 14.5 q-12 4.5 -65 12.5 q-140 22 -190.5 68.5 q-50.5 46.5 -50.5 152.5 q0 135 65 185 q65 50 200 50 q95 0 223 -19 l42 -7 l-6 -180 ZM112 713 l101 136 l152 0 l112 -136 l-169 0 l-15 62 l-12 -62 l-169 0 Z" /><glyph glyph-name="scircumflex" unicode="&#x15d;" d="M457 335 q-124 14 -169 14 q-45 0 -45 -8 q0 -6 78.5 -14.5 q78.5 -8.5 114.5 -45 q36 -36.5 36 -124.5 q0 -88 -54.5 -129 q-54.5 -41 -167.5 -41 q-63 0 -120 6.5 q-57 6.5 -82 13.5 l-26 7 l5 151 q124 -17 172.5 -17 q48.5 0 48.5 9 q0 5 -79 15.5 q-79 10.5 -114.5 47 q-35.5 36.5 -35.5 114.5 q0 102 58.5 143 q58.5 41 165.5 41 q114 0 195 -20 l27 -6 l-8 -157 ZM70 557 l91 166 l158 0 l102 -166 l-162 0 l-15 72 l-12 -72 l-162 0 Z" /><glyph glyph-name="Scedilla" unicode="&#x15e;" d="M294 -33 q79 -1 108.5 -18.5 q29.5 -17.5 29.5 -72.5 q0 -55 -31.5 -81 q-31.5 -26 -95.5 -26 q-65 0 -110 8 l-17 3 l4 78 q31 -1 48 -1 q38 0 38 22 q0 12 -8 16 q-8 4 -30 4 l-9 0 l0 91 q-98 8 -175 26 l-25 6 l10 177 q153 -22 251 -22 q52 0 52 23 q0 10 -12 14.5 q-12 4.5 -65 12.5 q-140 22 -190.5 68.5 q-50.5 46.5 -50.5 152.5 q0 135 65 185 q65 50 200 50 q95 0 223 -19 l42 -7 l-6 -180 q-141 15 -205 15 q-64 0 -74.5 -3.5 q-10.5 -3.5 -10.5 -14.5 q0 -11 12 -17 q12 -6 75.5 -20 q63.5 -14 104 -27.5 q40.5 -13.5 73 -38 q32.5 -24.5 43 -60 q10.5 -35.5 10.5 -95.5 q0 -124 -66 -177 q-66 -53 -199 -53 l-9 0 l0 -19 Z" /><glyph glyph-name="scedilla" unicode="&#x15f;" d="M253 -33 q79 -1 108.5 -18.5 q29.5 -17.5 29.5 -72.5 q0 -55 -31.5 -81 q-31.5 -26 -95.5 -26 q-65 0 -110 8 l-17 3 l4 78 q31 -1 48 -1 q38 0 38 22 q0 12 -8 16 q-8 4 -30 4 l-9 0 l0 90 q-83 6 -140 21 l-18 4 l5 151 q124 -17 172.5 -17 q48.5 0 48.5 9 q0 5 -79 15.5 q-79 10.5 -114.5 47 q-35.5 36.5 -35.5 114.5 q0 102 58.5 143 q58.5 41 165.5 41 q114 0 195 -20 l27 -6 l-8 -157 q-124 14 -169 14 q-45 0 -45 -8 q0 -6 78.5 -14.5 q78.5 -8.5 114.5 -45 q36 -36.5 36 -124 q0 -87.5 -54 -128.5 q-54 -41 -165 -42 l0 -20 Z" /><glyph glyph-name="Scaron" unicode="&#x160;" d="M540 477 q-141 15 -205 15 q-64 0 -74.5 -3.5 q-10.5 -3.5 -10.5 -14.5 q0 -11 12 -17 q12 -6 75.5 -20 q63.5 -14 104 -27.5 q40.5 -13.5 73 -38 q32.5 -24.5 43 -60 q10.5 -35.5 10.5 -95.5 q0 -124 -66 -177 q-66 -53 -199 -53 q-64 0 -134.5 9 q-70.5 9 -108.5 18 l-39 9 l10 177 q153 -22 251 -22 q52 0 52 23 q0 10 -12 14.5 q-12 4.5 -65 12.5 q-140 22 -190.5 68.5 q-50.5 46.5 -50.5 152.5 q0 135 65 185 q65 50 200 50 q95 0 223 -19 l42 -7 l-6 -180 ZM211 712 l-101 136 l169 0 l14 -62 l13 62 l169 0 l-112 -136 l-152 0 Z" /><glyph glyph-name="scaron" unicode="&#x161;" d="M457 335 q-124 14 -169 14 q-45 0 -45 -8 q0 -6 78.5 -14.5 q78.5 -8.5 114.5 -45 q36 -36.5 36 -124.5 q0 -88 -54.5 -129 q-54.5 -41 -167.5 -41 q-63 0 -120 6.5 q-57 6.5 -82 13.5 l-26 7 l5 151 q124 -17 172.5 -17 q48.5 0 48.5 9 q0 5 -79 15.5 q-79 10.5 -114.5 47 q-35.5 36.5 -35.5 114.5 q0 102 58.5 143 q58.5 41 165.5 41 q114 0 195 -20 l27 -6 l-8 -157 ZM161 557 l-91 166 l162 0 l14 -72 l13 72 l162 0 l-102 -166 l-158 0 Z" /><glyph glyph-name="Tcedilla" unicode="&#x162;" d="M299 -33 q79 -1 108.5 -18.5 q29.5 -17.5 29.5 -72.5 q0 -55 -31.5 -81 q-31.5 -26 -95.5 -26 q-65 0 -110 8 l-17 3 l4 78 q31 -1 48 -1 q38 0 38 22 q0 12 -8 16 q-8 4 -30 4 l-9 0 l0 101 l-79 0 l0 481 l-138 0 l0 189 l500 0 l0 -189 l-130 0 l0 -481 l-80 0 l0 -33 Z" /><glyph glyph-name="tcedilla" unicode="&#x163;" d="M225 -33 q79 -1 108.5 -18.5 q29.5 -17.5 29.5 -72.5 q0 -55 -31.5 -81 q-31.5 -26 -95.5 -26 q-65 0 -110 8 l-17 3 l4 78 q31 -1 48 -1 q38 0 38 22 q0 12 -8 16 q-8 4 -30 4 l-9 0 l0 95 q-54 11 -78.5 51 q-24.5 40 -24.5 123 l0 156 l-39 0 l0 181 l39 0 l0 100 l224 0 l0 -100 l81 0 l0 -181 l-81 0 l0 -104 q0 -25 6.5 -33.5 q6.5 -8.5 26.5 -8.5 l45 1 l3 -174 q-83 -17 -129 -18 l0 -20 Z" /><glyph glyph-name="Tcaron" unicode="&#x164;" d="M9 481 l0 189 l500 0 l0 -189 l-130 0 l0 -481 l-232 0 l0 481 l-138 0 ZM178 712 l-101 136 l169 0 l14 -62 l13 62 l169 0 l-112 -136 l-152 0 Z" /><glyph glyph-name="tcaron" unicode="&#x165;" d="M311 539 l19 205 l194 0 l-59 -205 l-154 0 ZM273 324 l0 -104 q0 -25 6.5 -33.5 q6.5 -8.5 26.5 -8.5 l45 1 l3 -174 q-86 -18 -132 -18 q-93 0 -133 38.5 q-40 38.5 -40 142.5 l0 156 l-39 0 l0 181 l39 0 l0 100 l224 0 l0 -100 l81 0 l0 -181 l-81 0 Z" /><glyph glyph-name="Tbar" unicode="&#x166;" d="M9 481 l0 189 l500 0 l0 -189 l-130 0 l0 -154 l47 0 l0 -137 l-47 0 l0 -190 l-232 0 l0 190 l-47 0 l0 137 l47 0 l0 154 l-138 0 Z" /><glyph glyph-name="tbar" unicode="&#x167;" d="M273 345 l0 -34 l64 0 l0 -105 l-64 0 q0 -22 6.5 -30 q6.5 -8 26.5 -8 l45 1 l3 -164 q-86 -18 -132 -18 q-93 0 -133 38.5 q-40 38.5 -40 142.5 l0 38 l-37 0 l0 105 l37 0 l0 34 l-39 0 l0 160 l39 0 l0 100 l224 0 l0 -100 l81 0 l0 -160 l-81 0 Z" /><glyph glyph-name="Utilde" unicode="&#x168;" d="M258 670 l0 -439 q0 -29 14.5 -41 q14.5 -12 48.5 -12 q34 0 48 12 q14 12 14 41 l0 439 l232 0 l0 -426 q0 -142 -71 -199.5 q-71 -57.5 -223.5 -57.5 q-152.5 0 -223.5 56 q-71 56 -71 197 l0 430 l232 0 ZM486.5 754 q-10.5 -10 -38.5 -26 q-28 -16 -54 -16 q-26 0 -79.5 17 q-53.5 17 -66.5 17 q-27 0 -67 -18 l-14 -7 l-29 106 q17 20 50 39.5 q33 19.5 62.5 19.5 q29.5 0 80.5 -16 q51 -16 62 -16 q20 0 67 18 l14 5 l29 -107 q-6 -6 -16.5 -16 Z" /><glyph glyph-name="utilde" unicode="&#x169;" d="M325 505 l224 0 l0 -505 l-222 0 l0 24 q-64 -37 -114 -37 q-106 0 -148 61.5 q-42 61.5 -42 195.5 l0 261 l224 0 l0 -246 q0 -45 8 -62 q8 -17 26 -17 l44 6 l0 319 ZM422 566.5 q-31 -19.5 -57 -19.5 q-26 0 -79.5 22 q-53.5 22 -66.5 22 q-25 0 -67 -30 l-14 -10 l-29 116 q20 24 51.5 44 q31.5 20 61 20 q29.5 0 80.5 -21.5 q51 -21.5 62 -21.5 q21 0 66 30 l15 9 l29 -117 q-21 -24 -52 -43.5 Z" /><glyph glyph-name="Umacron" unicode="&#x16a;" d="M258 670 l0 -439 q0 -29 14.5 -41 q14.5 -12 48.5 -12 q34 0 48 12 q14 12 14 41 l0 439 l232 0 l0 -426 q0 -142 -71 -199.5 q-71 -57.5 -223.5 -57.5 q-152.5 0 -223.5 56 q-71 56 -71 197 l0 430 l232 0 ZM160 713 l0 136 l321 0 l0 -136 l-321 0 Z" /><glyph glyph-name="umacron" unicode="&#x16b;" d="M325 505 l224 0 l0 -505 l-222 0 l0 24 q-64 -37 -114 -37 q-106 0 -148 61.5 q-42 61.5 -42 195.5 l0 261 l224 0 l0 -246 q0 -45 8 -62 q8 -17 26 -17 l44 6 l0 319 ZM128 563 l0 144 l327 0 l0 -144 l-327 0 Z" /><glyph glyph-name="Ubreve" unicode="&#x16c;" d="M258 670 l0 -439 q0 -29 14.5 -41 q14.5 -12 48.5 -12 q34 0 48 12 q14 12 14 41 l0 439 l232 0 l0 -426 q0 -142 -71 -199.5 q-71 -57.5 -223.5 -57.5 q-152.5 0 -223.5 56 q-71 56 -71 197 l0 430 l232 0 ZM443 754.5 q-37 -42.5 -123 -42.5 q-86 0 -123 42.5 q-37 42.5 -37 107.5 l116 10 q5 -45 44 -45 q39 0 44 45 l116 -10 q0 -65 -37 -107.5 Z" /><glyph glyph-name="ubreve" unicode="&#x16d;" d="M325 505 l224 0 l0 -505 l-222 0 l0 24 q-64 -37 -114 -37 q-106 0 -148 61.5 q-42 61.5 -42 195.5 l0 261 l224 0 l0 -246 q0 -45 8 -62 q8 -17 26 -17 l44 6 l0 319 ZM446 708 q0 -160 -160 -160 q-160 0 -160 160 l116 10 q5 -45 44 -45 q39 0 44 45 l116 -10 Z" /><glyph glyph-name="Uring" unicode="&#x16e;" d="M258 670 l0 -439 q0 -29 14.5 -41 q14.5 -12 48.5 -12 q34 0 48 12 q14 12 14 41 l0 439 l232 0 l0 -426 q0 -142 -71 -199.5 q-71 -57.5 -223.5 -57.5 q-152.5 0 -223.5 56 q-71 56 -71 197 l0 430 l232 0 ZM320 702 q-137 0 -137 96 q0 96 137 96 q62 0 99.5 -23.5 q37.5 -23.5 37.5 -71.5 q0 -48 -36.5 -72.5 q-36.5 -24.5 -100.5 -24.5 ZM320.5 819 q-30.5 0 -30.5 -21.5 q0 -21.5 30.5 -21.5 q30.5 0 30.5 21.5 q0 21.5 -30.5 21.5 Z" /><glyph glyph-name="uring" unicode="&#x16f;" d="M325 505 l224 0 l0 -505 l-222 0 l0 24 q-64 -37 -114 -37 q-106 0 -148 61.5 q-42 61.5 -42 195.5 l0 261 l224 0 l0 -246 q0 -45 8 -62 q8 -17 26 -17 l44 6 l0 319 ZM193 567.5 q-36 24.5 -36 74.5 q0 50 36 74.5 q36 24.5 97.5 24.5 q61.5 0 98 -24.5 q36.5 -24.5 36.5 -73.5 q0 -49 -35.5 -74.5 q-35.5 -25.5 -98 -25.5 q-62.5 0 -98.5 24.5 ZM291.5 663 q-30.5 0 -30.5 -21.5 q0 -21.5 30.5 -21.5 q30.5 0 30.5 21.5 q0 21.5 -30.5 21.5 Z" /><glyph glyph-name="Uhungarumlaut" unicode="&#x170;" d="M258 670 l0 -439 q0 -29 14.5 -41 q14.5 -12 48.5 -12 q34 0 48 12 q14 12 14 41 l0 439 l232 0 l0 -426 q0 -142 -71 -199.5 q-71 -57.5 -223.5 -57.5 q-152.5 0 -223.5 56 q-71 56 -71 197 l0 430 l232 0 ZM146 849 l187 0 l-89 -136 l-131 0 l33 136 ZM361 849 l187 0 l-89 -136 l-131 0 l33 136 Z" /><glyph glyph-name="uhungarumlaut" unicode="&#x171;" d="M325 505 l224 0 l0 -505 l-222 0 l0 24 q-64 -37 -114 -37 q-106 0 -148 61.5 q-42 61.5 -42 195.5 l0 261 l224 0 l0 -246 q0 -45 8 -62 q8 -17 26 -17 l44 6 l0 319 ZM116 725 l192 0 l-89 -166 l-136 0 l33 166 ZM336 725 l192 0 l-89 -166 l-136 0 l33 166 Z" /><glyph glyph-name="Uogonek" unicode="&#x172;" d="M305 -220 q-155 0 -155 116 q0 59 54 101 q-91 18 -134.5 75 q-43.5 57 -43.5 168 l0 430 l232 0 l0 -439 q0 -29 14.5 -41 q14.5 -12 48.5 -12 q34 0 48 12 q14 12 14 41 l0 439 l232 0 l0 -426 q0 -120 -50.5 -178.5 q-50.5 -58.5 -155.5 -72.5 q-49 -49 -49 -73.5 q0 -24.5 22 -24.5 l46 4 l13 -104 q-49 -15 -136 -15 Z" /><glyph glyph-name="uogonek" unicode="&#x173;" d="M412 -219 q-155 0 -155 116 q0 70 70 112 l0 15 q-64 -37 -114 -37 q-106 0 -148 61.5 q-42 61.5 -42 195.5 l0 261 l224 0 l0 -246 q0 -45 8 -62 q8 -17 26 -17 l44 6 l0 319 l224 0 l0 -505 l-2 0 q-29 -14 -54.5 -40.5 q-25.5 -26.5 -25.5 -41.5 q0 -22 22 -22 l46 4 l13 -104 q-49 -15 -136 -15 Z" /><glyph glyph-name="Wcircumflex" unicode="&#x174;" d="M85 0 l-79 670 l231 0 l32 -436 l18 0 l45 426 l253 0 l50 -426 l18 0 l20 436 l233 0 l-74 -670 l-339 0 l-33 412 l-10 1 l-34 -413 l-331 0 ZM274 713 l101 136 l152 0 l112 -136 l-169 0 l-15 62 l-12 -62 l-169 0 Z" /><glyph glyph-name="wcircumflex" unicode="&#x175;" d="M10 505 l247 0 l10 -318 l12 0 l23 305 l203 0 l32 -305 l12 0 l11 318 l221 0 l-51 -505 l-319 0 l-17 218 l-19 -218 l-305 0 l-60 505 ZM220 557 l91 166 l158 0 l102 -166 l-162 0 l-15 72 l-12 -72 l-162 0 Z" /><glyph glyph-name="Ycircumflex" unicode="&#x176;" d="M410 0 l-232 0 l0 210 l-191 460 l246 0 l63 -197 l65 197 l245 0 l-196 -460 l0 -210 ZM114 713 l101 136 l152 0 l112 -136 l-169 0 l-15 62 l-12 -62 l-169 0 Z" /><glyph glyph-name="ycircumflex" unicode="&#x177;" d="M86 0 l-85 505 l238 0 l36 -318 l14 0 l32 318 l225 0 l-119 -700 l-246 0 l63 195 l-158 0 ZM106 557 l91 166 l158 0 l102 -166 l-162 0 l-15 72 l-12 -72 l-162 0 Z" /><glyph glyph-name="Ydieresis" unicode="&#x178;" d="M410 0 l-232 0 l0 210 l-191 460 l246 0 l63 -197 l65 197 l245 0 l-196 -460 l0 -210 ZM319 713 l0 144 l161 0 l0 -144 l-161 0 ZM112 713 l0 144 l161 0 l0 -144 l-161 0 Z" /><glyph glyph-name="Zacute" unicode="&#x179;" d="M19 481 l0 189 l530 0 l0 -189 l-217 -275 l0 -17 l217 0 l0 -189 l-530 0 l0 180 l222 284 l0 17 l-222 0 ZM195 849 l242 0 l-109 -136 l-176 0 l43 136 Z" /><glyph glyph-name="zacute" unicode="&#x17a;" d="M24 310 l0 195 l451 0 l0 -173 l-153 -137 l156 0 l0 -195 l-454 0 l0 183 l148 127 l-148 0 ZM189 723 l237 0 l-109 -166 l-171 0 l43 166 Z" /><glyph glyph-name="Zdotaccent" unicode="&#x17b;" d="M19 481 l0 189 l530 0 l0 -189 l-217 -275 l0 -17 l217 0 l0 -189 l-530 0 l0 180 l222 284 l0 17 l-222 0 ZM194 713 l0 143 l180 0 l0 -143 l-180 0 Z" /><glyph glyph-name="zdotaccent" unicode="&#x17c;" d="M24 310 l0 195 l451 0 l0 -173 l-153 -137 l156 0 l0 -195 l-454 0 l0 183 l148 127 l-148 0 ZM158 563 l0 153 l186 0 l0 -153 l-186 0 Z" /><glyph glyph-name="Zcaron" unicode="&#x17d;" d="M19 481 l0 189 l530 0 l0 -189 l-217 -275 l0 -17 l217 0 l0 -189 l-530 0 l0 180 l222 284 l0 17 l-222 0 ZM203 712 l-101 136 l169 0 l14 -62 l13 62 l169 0 l-112 -136 l-152 0 Z" /><glyph glyph-name="zcaron" unicode="&#x17e;" d="M24 310 l0 195 l451 0 l0 -173 l-153 -137 l156 0 l0 -195 l-454 0 l0 183 l148 127 l-148 0 ZM166 557 l-91 166 l162 0 l14 -72 l13 72 l162 0 l-102 -166 l-158 0 Z" /><glyph glyph-name="florin" unicode="&#x192;" d="M370 326 l-86 0 l-15 -342 q-5 -103 -37.5 -141 q-32.5 -38 -127.5 -38 l-128 12 l0 147 q52 0 65 6 q13 6 14 30 l14 326 l-66 0 l0 70 l69 0 l4 95 q5 100 41 139.5 q36 39.5 125 39.5 l128 -12 l0 -147 q-49 0 -63.5 -6.5 q-14.5 -6.5 -15.5 -29.5 l-4 -79 l83 0 l0 -70 Z" /><glyph glyph-name="Aringacute" unicode="&#x1fa;" d="M183 722 q0 96 137 96 q62 0 99.5 -23.5 q37.5 -23.5 37.5 -72.5 q0 -30 -16 -52 l53 0 l151 -670 l-234 0 l-19 77 l-153 0 l-16 -77 l-228 0 l148 670 l55 0 q-15 19 -15 52 ZM241 984 l242 0 l-109 -136 l-176 0 l43 136 ZM307 488 l-38 -234 l99 0 l-36 234 l-25 0 ZM320.5 743 q-30.5 0 -30.5 -21.5 q0 -21.5 30.5 -21.5 q30.5 0 30.5 21.5 q0 21.5 -30.5 21.5 Z" /><glyph glyph-name="aringacute" unicode="&#x1fb;" d="M518 342 l0 -190 q9 -7 24 -11 l-3 -142 q-78 -12 -107 -12 q-29 0 -53 8.5 q-24 8.5 -32 17.5 l-8 9 q-62 -35 -150.5 -35 q-88.5 0 -133.5 40.5 q-45 40.5 -45 130.5 q0 90 51 120.5 q51 30.5 161 34.5 l72 3 l0 9 q0 19 -42 19 q-91 0 -182 -10 l-33 -3 l-5 152 q132 35 241 35 q114 0 177 -34 q68 -36 68 -142 ZM256 141 q19 0 38 15 l0 37 l-34 -2 q-26 -2 -26 -26 q0 -24 22 -24 ZM174 562.5 q-36 24.5 -36 74.5 q0 50 36 74.5 q36 24.5 97.5 24.5 q61.5 0 98 -24.5 q36.5 -24.5 36.5 -73.5 q0 -49 -35.5 -74.5 q-35.5 -25.5 -98 -25.5 q-62.5 0 -98.5 24.5 ZM272.5 658 q-30.5 0 -30.5 -21.5 q0 -21.5 30.5 -21.5 q30.5 0 30.5 21.5 q0 21.5 -30.5 21.5 ZM214 922 l237 0 l-109 -166 l-171 0 l43 166 Z" /><glyph glyph-name="AEacute" unicode="&#x1fc;" d="M366 0 l0 77 l-127 0 l-16 -77 l-228 0 l148 670 l722 0 l0 -185 l-273 0 l0 -60 l213 0 l0 -177 l-213 0 l0 -63 l273 0 l0 -185 l-499 0 ZM366 256 l0 229 l-59 0 l-37 -229 l96 0 ZM391 849 l242 0 l-109 -136 l-176 0 l43 136 Z" /><glyph glyph-name="aeacute" unicode="&#x1fd;" d="M514 187 q1 -35 46 -35 q99 0 200 6 l38 3 l5 -145 q-133 -29 -244.5 -29 q-111.5 0 -172.5 35 q-109 -35 -195.5 -35 q-86.5 0 -133.5 42 q-47 42 -47 128 q0 75 33 111 q35 39 177 45 l68 3 l0 9 q0 19 -42 19 q-90 0 -177 -10 l-32 -3 l-5 152 q126 35 231.5 35 q105.5 0 158.5 -25 q56 25 130 25 q131 0 196 -57 q65 -57 65 -175 l-10 -99 l-289 0 ZM362 723 l237 0 l-109 -166 l-171 0 l43 166 ZM591 309 q0 29 -9 41 q-9 12 -30.5 12 q-21.5 0 -29.5 -12 q-8 -12 -9 -41 l78 0 ZM250 141 q19 0 38 15 l0 37 l-34 -2 q-26 -2 -26 -26 q0 -24 22 -24 Z" /><glyph glyph-name="Oslashacute" unicode="&#x1fe;" d="M83 -10 q3 9 26 63 q-93 83 -93 274 q0 191 76 273.5 q76 82.5 243 82.5 l28 -1 l18 42 l217 -44 l-29 -71 q85 -82 85 -269.5 q0 -187.5 -76 -270 q-76 -82.5 -243 -82.5 l-19 0 l-16 -41 l-217 44 ZM250 335 q0 -85 16.5 -122.5 q16.5 -37.5 69 -37.5 q52.5 0 68.5 37 q16 37 16 123.5 q0 86.5 -15.5 123 q-15.5 36.5 -68.5 36.5 q-53 0 -69.5 -37.5 q-16.5 -37.5 -16.5 -122.5 ZM246 864 l242 0 l-109 -136 l-176 0 l43 136 Z" /><glyph glyph-name="oslashacute" unicode="&#x1ff;" d="M282 -13 l-35 1 l-35 -62 l-217 44 l62 108 q-42 63 -42 175 q0 140 66.5 202.5 q66.5 62.5 200.5 62.5 q17 0 26 -1 l41 72 l55 -11 q54 -10 108 -21 l54 -11 l-64 -113 q47 -64 47 -180 q0 -142 -66.5 -204 q-66.5 -62 -200.5 -62 ZM187 723 l237 0 l-109 -166 l-171 0 l43 166 ZM250 186 q9 -18 32 -18 q23 0 32 18 q9 18 9 66.5 q0 48.5 -9 66.5 q-9 18 -32 18 q-23 0 -32 -18 q-9 -18 -9 -66.5 q0 -48.5 9 -66.5 Z" /><glyph glyph-name="Scommaaccent" unicode="&#x218;" d="M180 -260 l20 215 l204 0 l-62 -215 l-162 0 ZM540 477 q-141 15 -205 15 q-64 0 -74.5 -3.5 q-10.5 -3.5 -10.5 -14.5 q0 -11 12 -17 q12 -6 75.5 -20 q63.5 -14 104 -27.5 q40.5 -13.5 73 -38 q32.5 -24.5 43 -60 q10.5 -35.5 10.5 -95.5 q0 -124 -66 -177 q-66 -53 -199 -53 q-64 0 -134.5 9 q-70.5 9 -108.5 18 l-39 9 l10 177 q153 -22 251 -22 q52 0 52 23 q0 10 -12 14.5 q-12 4.5 -65 12.5 q-140 22 -190.5 68.5 q-50.5 46.5 -50.5 152.5 q0 135 65 185 q65 50 200 50 q95 0 223 -19 l42 -7 l-6 -180 Z" /><glyph glyph-name="scommaaccent" unicode="&#x219;" d="M133 -260 l20 215 l204 0 l-62 -215 l-162 0 ZM457 335 q-124 14 -169 14 q-45 0 -45 -8 q0 -6 78.5 -14.5 q78.5 -8.5 114.5 -45 q36 -36.5 36 -124.5 q0 -88 -54.5 -129 q-54.5 -41 -167.5 -41 q-63 0 -120 6.5 q-57 6.5 -82 13.5 l-26 7 l5 151 q124 -17 172.5 -17 q48.5 0 48.5 9 q0 5 -79 15.5 q-79 10.5 -114.5 47 q-35.5 36.5 -35.5 114.5 q0 102 58.5 143 q58.5 41 165.5 41 q114 0 195 -20 l27 -6 l-8 -157 Z" /><glyph glyph-name="Tcommaaccent" unicode="&#x21a;" d="M141 -260 l20 215 l204 0 l-62 -215 l-162 0 ZM9 481 l0 189 l500 0 l0 -189 l-130 0 l0 -481 l-232 0 l0 481 l-138 0 Z" /><glyph glyph-name="tcommaaccent" unicode="&#x21b;" d="M70 -260 l20 215 l204 0 l-62 -215 l-162 0 ZM273 324 l0 -104 q0 -25 6.5 -33.5 q6.5 -8.5 26.5 -8.5 l45 1 l3 -174 q-86 -18 -132 -18 q-93 0 -133 38.5 q-40 38.5 -40 142.5 l0 156 l-39 0 l0 181 l39 0 l0 100 l224 0 l0 -100 l81 0 l0 -181 l-81 0 Z" /><glyph glyph-name="circumflex" unicode="&#x2c6;" d="M239 557 l91 166 l158 0 l102 -166 l-162 0 l-15 72 l-12 -72 l-162 0 Z" /><glyph glyph-name="caron" unicode="&#x2c7;" d="M326 557 l-91 166 l162 0 l14 -72 l13 72 l162 0 l-102 -166 l-158 0 Z" /><glyph glyph-name="breve" unicode="&#x2d8;" d="M364 708 q0 -160 -160 -160 q-160 0 -160 160 l116 10 q5 -45 44 -45 q39 0 44 45 l116 -10 Z" /><glyph glyph-name="dotaccent" unicode="&#x2d9;" d="M80 563 l0 153 l186 0 l0 -153 l-186 0 Z" /><glyph glyph-name="ring" unicode="&#x2da;" d="M170 567.5 q-36 24.5 -36 74.5 q0 50 36 74.5 q36 24.5 97.5 24.5 q61.5 0 98 -24.5 q36.5 -24.5 36.5 -73.5 q0 -49 -35.5 -74.5 q-35.5 -25.5 -98 -25.5 q-62.5 0 -98.5 24.5 ZM268.5 663 q-30.5 0 -30.5 -21.5 q0 -21.5 30.5 -21.5 q30.5 0 30.5 21.5 q0 21.5 -30.5 21.5 Z" /><glyph glyph-name="ogonek" unicode="&#x2db;" d="M344 -220 q-155 0 -155 116 q0 45 30.5 78.5 q30.5 33.5 60.5 45.5 l30 11 l163 -15 q-74 -64 -74 -99 q0 -22 22 -22 l46 4 l13 -104 q-49 -15 -136 -15 Z" /><glyph glyph-name="tilde" unicode="&#x2dc;" d="M350 566.5 q-31 -19.5 -57 -19.5 q-26 0 -79.5 22 q-53.5 22 -66.5 22 q-25 0 -67 -30 l-14 -10 l-29 116 q20 24 51.5 44 q31.5 20 61 20 q29.5 0 80.5 -21.5 q51 -21.5 62 -21.5 q21 0 66 30 l15 9 l29 -117 q-21 -24 -52 -43.5 Z" /><glyph glyph-name="hungarumlaut" unicode="&#x2dd;" d="M42 725 l192 0 l-89 -166 l-136 0 l33 166 ZM262 725 l192 0 l-89 -166 l-136 0 l33 166 Z" /><glyph glyph-name="pi" unicode="&#x3c0;" d="M269 295 l-15 0 l-18 -295 l-175 0 l18 291 l-61 -9 l0 205 q44 9 125 12 l25 1 l216 0 q95 0 144 16 l0 -205 q-34 -12 -104 -15 l0 -32 q0 -27 0.5 -43.5 q0.5 -16.5 6 -28.5 q5.5 -12 8.5 -17 q3 -5 17.5 -8 q14.5 -3 22.5 -3 l34 0 l0 -164 q-132 0 -186 31.5 q-54 31.5 -58 122.5 l0 141 Z" /><glyph glyph-name="Wgrave" unicode="&#x1e80;" d="M85 0 l-79 670 l231 0 l32 -436 l18 0 l45 426 l253 0 l50 -426 l18 0 l20 436 l233 0 l-74 -670 l-339 0 l-33 412 l-10 1 l-34 -413 l-331 0 ZM298 849 l242 0 l34 -136 l-172 0 l-104 136 Z" /><glyph glyph-name="wgrave" unicode="&#x1e81;" d="M10 505 l247 0 l10 -318 l12 0 l23 305 l203 0 l32 -305 l12 0 l11 318 l221 0 l-51 -505 l-319 0 l-17 218 l-19 -218 l-305 0 l-60 505 ZM227 723 l237 0 l43 -166 l-171 0 l-109 166 Z" /><glyph glyph-name="Wacute" unicode="&#x1e82;" d="M85 0 l-79 670 l231 0 l32 -436 l18 0 l45 426 l253 0 l50 -426 l18 0 l20 436 l233 0 l-74 -670 l-339 0 l-33 412 l-10 1 l-34 -413 l-331 0 ZM377 849 l242 0 l-109 -136 l-176 0 l43 136 Z" /><glyph glyph-name="wacute" unicode="&#x1e83;" d="M10 505 l247 0 l10 -318 l12 0 l23 305 l203 0 l32 -305 l12 0 l11 318 l221 0 l-51 -505 l-319 0 l-17 218 l-19 -218 l-305 0 l-60 505 ZM346 723 l237 0 l-109 -166 l-171 0 l43 166 Z" /><glyph glyph-name="Wdieresis" unicode="&#x1e84;" d="M85 0 l-79 670 l231 0 l32 -436 l18 0 l45 426 l253 0 l50 -426 l18 0 l20 436 l233 0 l-74 -670 l-339 0 l-33 412 l-10 1 l-34 -413 l-331 0 ZM479 713 l0 144 l161 0 l0 -144 l-161 0 ZM272 713 l0 144 l161 0 l0 -144 l-161 0 Z" /><glyph glyph-name="wdieresis" unicode="&#x1e85;" d="M10 505 l247 0 l10 -318 l12 0 l23 305 l203 0 l32 -305 l12 0 l11 318 l221 0 l-51 -505 l-319 0 l-17 218 l-19 -218 l-305 0 l-60 505 ZM418 559 l0 154 l164 0 l0 -154 l-164 0 ZM208 559 l0 154 l164 0 l0 -154 l-164 0 Z" /><glyph glyph-name="uni1EAB" unicode="&#x1eab;" d="M518 342 l0 -190 q9 -7 24 -11 l-3 -142 q-78 -12 -107 -12 q-29 0 -53 8.5 q-24 8.5 -32 17.5 l-8 9 q-62 -35 -150.5 -35 q-88.5 0 -133.5 40.5 q-45 40.5 -45 130.5 q0 90 51 120.5 q51 30.5 161 34.5 l72 3 l0 9 q0 19 -42 19 q-91 0 -182 -10 l-33 -3 l-5 152 q132 35 241 35 q114 0 177 -34 q68 -36 68 -142 ZM256 141 q19 0 38 15 l0 37 l-34 -2 q-26 -2 -26 -26 q0 -24 22 -24 ZM101 557 l91 166 l158 0 l102 -166 l-162 0 l-15 72 l-12 -72 l-162 0 ZM409 766.5 q-31 -19.5 -57 -19.5 q-26 0 -79.5 22 q-53.5 22 -66.5 22 q-25 0 -67 -30 l-14 -10 l-29 116 q20 24 51.5 44 q31.5 20 61 20 q29.5 0 80.5 -21.5 q51 -21.5 62 -21.5 q21 0 67 30 l14 9 l29 -117 q-21 -24 -52 -43.5 Z" /><glyph glyph-name="uni1EB0" unicode="&#x1eb0;" d="M-5 0 l148 670 l351 0 l151 -670 l-234 0 l-19 77 l-153 0 l-16 -77 l-228 0 ZM307 488 l-38 -234 l99 0 l-36 234 l-25 0 ZM443 754.5 q-37 -42.5 -123 -42.5 q-86 0 -123 42.5 q-37 42.5 -37 107.5 l116 10 q5 -45 44 -45 q39 0 44 45 l116 -10 q0 -65 -37 -107.5 ZM129 1081 l237 0 l43 -166 l-171 0 l-109 166 Z" /><glyph glyph-name="uni1EC5" unicode="&#x1ec5;" d="M239 187 q1 -35 45 -35 q100 0 200 6 l39 3 l5 -145 q-133 -29 -264.5 -29 q-131.5 0 -190 60.5 q-58.5 60.5 -58.5 196 q0 135.5 63 205 q63 69.5 196.5 69.5 q133.5 0 198.5 -57 q65 -57 65 -175 l-10 -99 l-289 0 ZM314 309 q0 29 -8.5 41 q-8.5 12 -29.5 12 q-21 0 -29 -12 q-8 -12 -9 -41 l76 0 ZM101 557 l91 166 l158 0 l102 -166 l-162 0 l-15 72 l-12 -72 l-162 0 ZM406 766.5 q-31 -19.5 -57 -19.5 q-26 0 -79.5 22 q-53.5 22 -66.5 22 q-25 0 -67 -30 l-14 -10 l-29 116 q20 24 51.5 44 q31.5 20 61 20 q29.5 0 80.5 -21.5 q51 -21.5 62 -21.5 q21 0 66 30 l15 9 l29 -117 q-21 -24 -52 -43.5 Z" /><glyph glyph-name="uni1ED7" unicode="&#x1ed7;" d="M81.5 455.5 q66.5 62.5 200.5 62.5 q134 0 200.5 -62.5 q66.5 -62.5 66.5 -203.5 q0 -141 -66.5 -203 q-66.5 -62 -200.5 -62 q-134 0 -200.5 62 q-66.5 62 -66.5 203 q0 141 66.5 203.5 ZM250 186 q9 -18 32 -18 q23 0 32 18 q9 18 9 66.5 q0 48.5 -9 66.5 q-9 18 -32 18 q-23 0 -32 -18 q-9 -18 -9 -66.5 q0 -48.5 9 -66.5 ZM107 557 l91 166 l158 0 l102 -166 l-162 0 l-15 72 l-12 -72 l-162 0 ZM412 766.5 q-31 -19.5 -57 -19.5 q-26 0 -79.5 22 q-53.5 22 -66.5 22 q-25 0 -67 -30 l-14 -10 l-29 116 q20 24 51.5 44 q31.5 20 61 20 q29.5 0 80.5 -21.5 q51 -21.5 62 -21.5 q21 0 66 30 l15 9 l29 -117 q-21 -24 -52 -43.5 Z" /><glyph glyph-name="Ygrave" unicode="&#x1ef2;" d="M410 0 l-232 0 l0 210 l-191 460 l246 0 l63 -197 l65 197 l245 0 l-196 -460 l0 -210 ZM128 849 l242 0 l34 -136 l-172 0 l-104 136 Z" /><glyph glyph-name="ygrave" unicode="&#x1ef3;" d="M86 0 l-85 505 l238 0 l36 -318 l14 0 l32 318 l225 0 l-119 -700 l-246 0 l63 195 l-158 0 ZM115 723 l237 0 l43 -166 l-171 0 l-109 166 Z" /><glyph glyph-name="uni1EF8" unicode="&#x1ef8;" d="M410 0 l-232 0 l0 210 l-191 460 l246 0 l63 -197 l65 197 l245 0 l-196 -460 l0 -210 ZM425 731.5 q-31 -19.5 -57 -19.5 q-26 0 -79.5 22 q-53.5 22 -66.5 22 q-25 0 -67 -30 l-14 -10 l-29 116 q20 24 51.5 44 q31.5 20 61 20 q29.5 0 80.5 -21.5 q51 -21.5 62 -21.5 q11 0 31.5 9.5 q20.5 9.5 35.5 19.5 l14 10 l29 -117 q-21 -24 -52 -43.5 Z" /><glyph glyph-name="uni1EF9" unicode="&#x1ef9;" d="M86 0 l-85 505 l238 0 l36 -318 l14 0 l32 318 l225 0 l-119 -700 l-246 0 l63 195 l-158 0 ZM403 566.5 q-31 -19.5 -57 -19.5 q-26 0 -79.5 22 q-53.5 22 -66.5 22 q-25 0 -67 -30 l-14 -10 l-29 116 q20 24 51.5 44 q31.5 20 61 20 q29.5 0 80.5 -21.5 q51 -21.5 62 -21.5 q21 0 67 30 l14 9 l29 -117 q-21 -24 -52 -43.5 Z" /><glyph glyph-name="endash" unicode="&#x2013;" d="M30 155 l0 197 l500 0 l0 -197 l-500 0 Z" /><glyph glyph-name="emdash" unicode="&#x2014;" d="M30 155 l0 197 l1000 0 l0 -197 l-1000 0 Z" /><glyph glyph-name="quoteleft" unicode="&#x2018;" d="M259 670 l-21 -281 l-230 0 l75 281 l176 0 Z" /><glyph glyph-name="quoteright" unicode="&#x2019;" d="M19 389 l21 281 l230 0 l-75 -281 l-176 0 Z" /><glyph glyph-name="quotesinglbase" unicode="&#x201a;" d="M11 -108 l21 281 l230 0 l-75 -281 l-176 0 Z" /><glyph glyph-name="quotedblleft" unicode="&#x201c;" d="M259 670 l-21 -281 l-230 0 l75 281 l176 0 ZM525 670 l-21 -281 l-230 0 l75 281 l176 0 Z" /><glyph glyph-name="quotedblright" unicode="&#x201d;" d="M19 389 l21 281 l230 0 l-75 -281 l-176 0 ZM285 389 l21 281 l230 0 l-75 -281 l-176 0 Z" /><glyph glyph-name="quotedblbase" unicode="&#x201e;" d="M11 -108 l21 281 l230 0 l-75 -281 l-176 0 ZM277 -108 l21 281 l230 0 l-75 -281 l-176 0 Z" /><glyph glyph-name="dagger" unicode="&#x2020;" d="M17 294 l0 198 l137 0 l0 178 l226 0 l0 -178 l137 0 l0 -198 l-137 0 l0 -489 l-226 0 l0 489 l-137 0 Z" /><glyph glyph-name="daggerdbl" unicode="&#x2021;" d="M161 -194 l0 177 l-137 0 l0 198 l137 0 l0 113 l-137 0 l0 198 l137 0 l0 178 l226 0 l0 -178 l137 0 l0 -198 l-137 0 l0 -113 l137 0 l0 -198 l-137 0 l0 -177 l-226 0 Z" /><glyph glyph-name="bullet" unicode="&#x2022;" d="M51 140 l0 270 l275 0 l0 -270 l-275 0 Z" /><glyph glyph-name="ellipsis" unicode="&#x2026;" d="M27 0 l0 199 l228 0 l0 -199 l-228 0 ZM324 0 l0 199 l228 0 l0 -199 l-228 0 ZM621 0 l0 199 l228 0 l0 -199 l-228 0 Z" /><glyph glyph-name="perthousand" unicode="&#x2030;" d="M228 -59 l158 760 l44 -9 l-159 -759 l-43 8 ZM17 489.5 q0 97.5 32 138 q32 40.5 113.5 40.5 q81.5 0 112 -40 q30.5 -40 30.5 -138 q0 -98 -31 -138.5 q-31 -40.5 -113 -40.5 q-82 0 -113 40.5 q-31 40.5 -31 138 ZM176 551.5 q-3 10.5 -15 10.5 q-12 0 -15 -11 q-3 -11 -3 -53.5 q0 -42.5 2 -57.5 q2 -15 5 -18.5 q3 -3.5 13 -3.5 q10 0 13 11 q3 11 3 61.5 q0 50.5 -3 61 ZM361 166.5 q0 97.5 32 138 q32 40.5 113.5 40.5 q81.5 0 112 -40 q30.5 -40 30.5 -138 q0 -98 -31 -138.5 q-31 -40.5 -113 -40.5 q-82 0 -113 40.5 q-31 40.5 -31 138 ZM520 228.5 q-3 10.5 -15 10.5 q-12 0 -15 -11 q-3 -11 -3 -53.5 q0 -42.5 2 -57.5 q2 -15 5 -18.5 q3 -3.5 13 -3.5 q10 0 13 11 q3 11 3 61.5 q0 50.5 -3 61 ZM673 166.5 q0 97.5 32 138 q32 40.5 113.5 40.5 q81.5 0 112 -40 q30.5 -40 30.5 -138 q0 -98 -31 -138.5 q-31 -40.5 -113 -40.5 q-82 0 -113 40.5 q-31 40.5 -31 138 ZM832 228.5 q-3 10.5 -15 10.5 q-12 0 -15 -11 q-3 -11 -3 -53.5 q0 -42.5 2 -57.5 q2 -15 5 -18.5 q3 -3.5 13 -3.5 q10 0 13 11 q3 11 3 61.5 q0 50.5 -3 61 Z" /><glyph glyph-name="guilsinglleft" unicode="&#x2039;" d="M335 426 l-114 -169 l114 -169 l-162 -74 l-159 230 l0 21 l161 235 l160 -74 Z" /><glyph glyph-name="guilsinglright" unicode="&#x203a;" d="M19 80 l114 169 l-114 169 l162 74 l159 -230 l0 -21 l-161 -235 l-160 74 Z" /><glyph glyph-name="fraction" unicode="&#x2044;" d="M-112 5 l303 750 l147 -64 l-303 -750 l-147 64 Z" /><glyph glyph-name="zerosuperior" unicode="&#x2070;" d="M14 471.5 q0 108.5 35.5 153.5 q35.5 45 126.5 45 q91 0 125 -44.5 q34 -44.5 34 -153.5 q0 -109 -34.5 -154 q-34.5 -45 -125.5 -45 q-91 0 -126 45 q-35 45 -35 153.5 ZM185.5 550.5 q-3.5 1.5 -10.5 1.5 q-7 0 -10.5 -1.5 q-3.5 -1.5 -6.5 -9.5 q-3 -11 -3 -67.5 q0 -56.5 3.5 -69 q3.5 -12.5 16.5 -12.5 q13 0 16.5 12.5 q3.5 12.5 3.5 55 q0 42.5 -0.5 58 q-0.5 15.5 -3 23.5 q-2.5 8 -6 9.5 Z" /><glyph glyph-name="foursuperior" unicode="&#x2074;" d="M176 273 l0 48 l-163 0 l0 98 l54 251 l158 0 l-78 -236 l29 0 l0 55 l147 18 l0 -73 l15 0 l0 -113 l-15 0 l0 -48 l-147 0 Z" /><glyph glyph-name="fivesuperior" unicode="&#x2075;" d="M317 670 l0 -118 l-175 0 l-3 -26 q33 9 60 9 q72 0 102 -26 q30 -26 30 -100.5 q0 -74.5 -39.5 -105 q-39.5 -30.5 -114.5 -30.5 q-50 0 -131 17 l-26 6 l11 97 q79 -12 133 -12 q27 0 27 16 q0 16 -26 16 l-47 -7 l-87 11 l8 253 l278 0 Z" /><glyph glyph-name="sixsuperior" unicode="&#x2076;" d="M144 525 q30 10 48 10 q71 0 105 -30.5 q34 -30.5 34 -100.5 q0 -131 -155 -131 q-83 0 -119 48 q-36 48 -36 153.5 q0 105.5 43 150.5 q43 45 119 45 q37 0 107 -14 l21 -5 l-9 -96 q-65 9 -100.5 9 q-35.5 0 -45.5 -9.5 q-10 -9.5 -12 -29.5 ZM177 433 q-19 0 -33 -7 q0 -27 6 -38 q6 -11 26 -11 q27 0 27 28 q0 28 -26 28 Z" /><glyph glyph-name="sevensuperior" unicode="&#x2077;" d="M42 536 l0 134 l267 0 l0 -130 l-104 -267 l-132 27 l98 221 l0 15 l-129 0 Z" /><glyph glyph-name="eightsuperior" unicode="&#x2078;" d="M174 670 q76 0 116 -21 q40 -21 40 -82 q0 -38 -12.5 -56 q-12.5 -18 -41.5 -36 q34 -17 47 -34.5 q13 -17.5 13 -59.5 q0 -42 -24 -67.5 q-24 -25.5 -57 -33 q-33 -7.5 -81 -7.5 q-162 0 -162 111 q0 27 9 45 q9 18 18 25.5 q9 7.5 33 21.5 q-29 17 -41 35 q-12 18 -12 56 q0 103 155 103 ZM197 397 q0 19 -15 34 l-15 0 q-16 -13 -16 -36.5 q0 -23.5 23 -23.5 q23 0 23 26 ZM156 548 q0 -14 11 -29 l15 0 q11 11 11 33 q0 22 -18.5 22 q-18.5 0 -18.5 -26 Z" /><glyph glyph-name="ninesuperior" unicode="&#x2079;" d="M205 418 q-30 -10 -48 -10 q-67 0 -100.5 31.5 q-33.5 31.5 -33.5 99.5 q0 131 150 131 q82 0 118.5 -47.5 q36.5 -47.5 36.5 -153.5 q0 -106 -43 -151 q-43 -45 -119 -45 q-47 0 -110 14 l-23 5 l9 96 q70 -9 105.5 -9 q35.5 0 45.5 9.5 q10 9.5 12 29.5 ZM172 510 q14 0 33 7 q0 27 -6 38 q-6 11 -26 11 q-27 0 -27 -28 q0 -28 26 -28 Z" /><glyph glyph-name="zeroinferior" unicode="&#x2080;" d="M14 188.5 q0 108.5 35.5 153.5 q35.5 45 126.5 45 q91 0 125 -44.5 q34 -44.5 34 -153.5 q0 -109 -34.5 -154 q-34.5 -45 -125.5 -45 q-91 0 -126 45 q-35 45 -35 153.5 ZM185.5 267.5 q-3.5 1.5 -10.5 1.5 q-7 0 -10.5 -1.5 q-3.5 -1.5 -6.5 -9.5 q-3 -11 -3 -67.5 q0 -56.5 3.5 -69 q3.5 -12.5 16.5 -12.5 q13 0 16.5 12.5 q3.5 12.5 3.5 55 q0 42.5 -0.5 58 q-0.5 15.5 -3 23.5 q-2.5 8 -6 9.5 Z" /><glyph glyph-name="oneinferior" unicode="&#x2081;" d="M297 397 l0 -397 l-157 0 l0 221 l-83 -34 l-36 128 l141 82 l135 0 Z" /><glyph glyph-name="twoinferior" unicode="&#x2082;" d="M302 0 l-258 0 l0 112 l55 50 q12 12 29.5 28 q17.5 16 25 23 q7.5 7 15.5 17 q14 18 14 34 q0 23 -46 23 l-85 -5 l-6 103 q66 16 131 16 q132 0 132 -119 q0 -27 -3 -38 l-6 -16 q-2 -6 -8.5 -15 q-6.5 -9 -9.5 -13.5 q-3 -4.5 -14 -15.5 q0 0 -14 -14 q-26 -26 -40 -38 l-20 -15 l108 0 l0 -117 Z" /><glyph glyph-name="threeinferior" unicode="&#x2083;" d="M148 139 l-82 0 l0 102 l77 0 q31 0 31 18 q0 18 -40 18 l-95 -5 l-3 99 q75 16 115 16 q86 0 124.5 -24 q38.5 -24 38.5 -86 q0 -31 -8 -48 q-8 -17 -28 -31 q22 -17 31.5 -33.5 q9.5 -16.5 9.5 -46.5 q0 -72 -37.5 -100 q-37.5 -28 -116.5 -28 q-48 0 -111 12 l-21 4 l3 101 q67 -6 92 -6 q25 0 32 1 q19 2 19 18.5 q0 16.5 -31 18.5 Z" /><glyph glyph-name="fourinferior" unicode="&#x2084;" d="M177 0 l0 48 l-163 0 l0 98 l54 251 l158 0 l-78 -236 l29 0 l0 55 l147 18 l0 -73 l15 0 l0 -113 l-15 0 l0 -48 l-147 0 Z" /><glyph glyph-name="fiveinferior" unicode="&#x2085;" d="M316 387 l0 -118 l-175 0 l-3 -26 q33 9 60 9 q72 0 102 -26 q30 -26 30 -100.5 q0 -74.5 -39.5 -105 q-39.5 -30.5 -114.5 -30.5 q-50 0 -132 18 l-25 5 l11 97 q79 -12 133 -12 q27 0 27 16 q0 16 -26 16 l-47 -7 l-87 11 l8 253 l278 0 Z" /><glyph glyph-name="sixinferior" unicode="&#x2086;" d="M143 242 q30 10 48 10 q71 0 105 -30.5 q34 -30.5 34 -100.5 q0 -131 -155 -131 q-83 0 -119 48 q-36 48 -36 153.5 q0 105.5 43 150.5 q43 45 119 45 q46 0 106 -14 l22 -5 l-9 -96 q-65 9 -100.5 9 q-35.5 0 -45.5 -9.5 q-10 -9.5 -12 -29.5 ZM176 150 q-14 0 -33 -7 q0 -27 6 -38 q6 -11 26 -11 q27 0 27 28 q0 28 -26 28 Z" /><glyph glyph-name="seveninferior" unicode="&#x2087;" d="M41 253 l0 134 l267 0 l0 -130 l-104 -267 l-132 27 l98 221 l0 15 l-129 0 Z" /><glyph glyph-name="eightinferior" unicode="&#x2088;" d="M174 387 q76 0 116 -21 q40 -21 40 -82 q0 -38 -12.5 -56 q-12.5 -18 -41.5 -36 q34 -17 47 -34.5 q13 -17.5 13 -59.5 q0 -42 -24 -67.5 q-24 -25.5 -57 -33 q-33 -7.5 -81 -7.5 q-162 0 -162 111 q0 27 9 45 q9 18 18 25.5 q9 7.5 33 21.5 q-29 17 -41 35 q-12 18 -12 56 q0 103 155 103 ZM197 114 q0 19 -15 34 l-15 0 q-16 -13 -16 -36.5 q0 -23.5 23 -23.5 q23 0 23 26 ZM156 265 q0 -14 11 -29 l15 0 q11 11 11 33 q0 22 -18.5 22 q-18.5 0 -18.5 -26 Z" /><glyph glyph-name="nineinferior" unicode="&#x2089;" d="M205 135 q-30 -10 -48 -10 q-67 0 -100.5 31.5 q-33.5 31.5 -33.5 99.5 q0 131 150 131 q82 0 118.5 -47.5 q36.5 -47.5 36.5 -153.5 q0 -106 -43 -151 q-43 -45 -119 -45 q-48 0 -110 14 l-23 5 l9 96 q70 -9 105.5 -9 q35.5 0 45.5 9.5 q10 9.5 12 29.5 ZM172 227 q19 0 33 7 q0 27 -6 38 q-6 11 -26 11 q-27 0 -27 -28 q0 -28 26 -28 Z" /><glyph glyph-name="Euro" unicode="&#x20ac;" d="M15 367 l0 60 l28 0 q12 137 75.5 190 q63.5 53 211.5 53 q65 0 167 -20 l34 -6 l-6 -176 q-81 10 -138.5 10 q-57.5 0 -79 -10 q-21.5 -10 -30.5 -41 l218 0 l0 -60 l-226 0 l0 -62 l226 0 l0 -60 l-221 0 q8 -40 29.5 -52.5 q21.5 -12.5 71.5 -12.5 l153 5 l3 -172 q-104 -26 -211 -26 q-145 0 -206 55.5 q-61 55.5 -72 202.5 l-27 0 l0 60 l25 0 l0 62 l-25 0 Z" /><glyph glyph-name="trademark" unicode="&#x2122;" d="M112 565 l-71 0 l0 79 l200 0 l0 -79 l-41 0 l0 -233 l-88 0 l0 233 ZM348 331 l-82 0 l0 313 l103 0 l41 -158 l45 158 l102 0 l0 -313 l-82 0 l0 174 l-34 -153 l-55 0 l-38 153 l0 -174 Z" /><glyph glyph-name="Omega" unicode="&#x2126;" d="M40 180 l68 0 q-5 3 -14 14 q-9 11 -21.5 60 q-12.5 49 -12.5 122 q0 154 44 224 q44 70 171 70 q131 0 175 -77 q22 -40 30.5 -90.5 q8.5 -50.5 8.5 -124.5 q0 -74 -12.5 -122.5 q-12.5 -48.5 -21 -60 q-8.5 -11.5 -15.5 -15.5 l70 0 l0 -180 l-206 0 l0 170 q5 6 12 19 q7 13 18.5 63.5 q11.5 50.5 11.5 138.5 q0 88 -11 117 q-11 29 -60.5 29 q-49.5 0 -60.5 -29 q-11 -29 -11 -117 q0 -88 10.5 -137 q10.5 -49 20.5 -66 l11 -18 l0 -170 l-205 0 l0 180 Z" /><glyph glyph-name="partialdiff" unicode="&#x2202;" d="M258 690 q135 0 197.5 -88.5 q62.5 -88.5 62.5 -266 q0 -177.5 -62 -263 q-62 -85.5 -197 -85.5 q-117 0 -179 59.5 q-62 59.5 -62 171 q0 111.5 59.5 171 q59.5 59.5 167.5 59.5 l73 -9 q-6 43 -24.5 62 q-18.5 19 -49.5 19 q-61 0 -146 -34 l-30 -11 l-5 162 q104 53 195 53 ZM260 278 q-47 0 -47 -57 q0 -29 12 -47.5 q12 -18.5 34 -18.5 q61 0 64 116 q-23 7 -63 7 Z" /><glyph glyph-name="Delta" unicode="&#x2206;" d="M12 0 l97 659 l323 0 l110 -659 l-530 0 ZM263 477 l-7 -298 l39 0 l-15 298 l-17 0 Z" /><glyph glyph-name="product" unicode="&#x220f;" d="M307 -181 l0 765 l-66 0 l0 -765 l-190 0 l0 765 l-46 0 l0 175 l540 0 l0 -175 l-49 0 l0 -765 l-189 0 Z" /><glyph glyph-name="summation" unicode="&#x2211;" d="M18 760 l540 0 l0 -200 l-279 0 l184 -214 l0 -107 l-186 -219 l281 0 l0 -200 l-540 0 l0 170 l235 300 l-235 296 l0 174 Z" /><glyph glyph-name="minus" unicode="&#x2212;" d="M62 164 l0 180 l426 0 l0 -180 l-426 0 Z" /><glyph glyph-name="radical" unicode="&#x221a;" d="M0 265 l0 184 l279 0 l63 -321 l116 663 l232 0 l-226 -920 l-243 0 l-121 394 l-100 0 Z" /><glyph glyph-name="infinity" unicode="&#x221e;" d="M167 126 q-72 0 -107.5 56.5 q-35.5 56.5 -35.5 159 q0 102.5 35.5 159 q35.5 56.5 107.5 56.5 q99 0 169 -91 q72 91 169 91 q72 0 108 -57 q36 -57 36 -159 q0 -102 -36.5 -158.5 q-36.5 -56.5 -109.5 -56.5 q-97 0 -167 90 q-70 -90 -169 -90 ZM179 416 q-42 0 -42 -75 q0 -75 42 -75 q32 0 52.5 14.5 q20.5 14.5 40.5 60.5 q-20 46 -40.5 60.5 q-20.5 14.5 -52.5 14.5 ZM494 266 q42 0 42 75 q0 75 -42 75 q-32 0 -52 -14.5 q-20 -14.5 -41 -60.5 q21 -46 41 -60.5 q20 -14.5 52 -14.5 Z" /><glyph glyph-name="integral" unicode="&#x222b;" d="M477 531 q-48 0 -63 -3 q-15 -3 -16 -17 l-32 -527 q-8 -104 -39.5 -141.5 q-31.5 -37.5 -125.5 -37.5 l-128 12 l0 147 q68 0 75 9 q4 4 4 11 l32 527 q8 104 39.5 141.5 q31.5 37.5 125.5 37.5 l128 -12 l0 -147 Z" /><glyph glyph-name="approxequal" unicode="&#x2248;" d="M435.5 27.5 q-34.5 -16.5 -63.5 -16.5 q-29 0 -102 22 q-73 22 -92 22 q-19 0 -46.5 -10 q-27.5 -10 -43.5 -20 l-17 -10 l-10 172 q21 21 58 37 q37 16 66 16 q29 0 98.5 -22 q69.5 -22 90.5 -22 q35 0 88 30 l17 9 l8 -171 q-17 -20 -51.5 -36.5 ZM435.5 277.5 q-34.5 -16.5 -63.5 -16.5 q-29 0 -102 22 q-73 22 -92 22 q-19 0 -46.5 -10 q-27.5 -10 -43.5 -20 l-17 -10 l-10 172 q21 21 58 37 q37 16 66 16 q29 0 98.5 -22 q69.5 -22 90.5 -22 q35 0 88 30 l17 9 l8 -171 q-17 -20 -51.5 -36.5 Z" /><glyph glyph-name="notequal" unicode="&#x2260;" d="M59 282 l0 170 l252 0 l39 76 l131 0 l-39 -76 l49 0 l0 -170 l-135 0 l-28 -55 l163 0 l0 -170 l-249 0 l-40 -80 l-134 0 l41 80 l-50 0 l0 170 l137 0 l28 55 l-165 0 Z" /><glyph glyph-name="lessequal" unicode="&#x2264;" d="M464 31 l-376 0 l0 160 l191 0 l-220 66 l0 178 l424 122 l0 -181 l-262 -26 l262 -34 l0 -186 l-19 5 l0 -104 Z" /><glyph glyph-name="greaterequal" unicode="&#x2265;" d="M106 191 l0 -49 l-42 -12 l0 186 l262 34 l-262 26 l0 181 l424 -122 l0 -178 l-220 -66 l-162 0 ZM106 31 l0 111 l162 49 l214 0 l0 -160 l-376 0 Z" /><glyph glyph-name="lozenge" unicode="&#x25ca;" d="M158 0 l-159 324 l159 336 l235 0 l158 -336 l-158 -324 l-235 0 ZM284 174 l54 150 l-54 162 l-17 0 l-55 -162 l55 -150 l17 0 Z" /><glyph glyph-name="dotlessj" unicode="&#xf6be;" d="M28 66 l0 439 l224 0 l0 -432 q0 -105 -15.5 -143 q-15.5 -38 -30 -56 q-14.5 -18 -45.5 -36 q-48 -26 -150 -58 l-72 170 q62 29 75.5 46 q13.5 17 13.5 70 Z" /><glyph glyph-name="commaaccent" unicode="&#xf6c3;" d="M-24 -388 l22 296 l242 0 l-79 -296 l-185 0 Z" /></font>
</defs>
</svg>
