<?xml version="1.0" standalone="no"?><!DOCTYPE svg PUBLIC "-//W3C//DTD SVG 1.1//EN" "http://www.w3.org/Graphics/SVG/1.1/DTD/svg11.dtd" ><svg xmlns="http://www.w3.org/2000/svg"><metadata></metadata><defs><font id="1.002;UKWN;TitilliumWeb-Bold" horiz-adv-x="1118"><font-face font-family="Titillium Web" font-weight="700" font-stretch="normal" units-per-em="1000" panose-1="0 0 8 0 0 0 0 0 0 0" ascent="1133" descent="-388" x-height="0" bbox="-224 -311 1059 1114" underline-thickness="30" underline-position="-95" unicode-range="U+0020-f6c3" /><missing-glyph horiz-adv-x="235"  /><glyph glyph-name="space" unicode=" " d="" /><glyph glyph-name="exclam" unicode="!" d="M68 0 l0 161 l144 0 l0 -161 l-144 0 ZM81 250 l-13 430 l145 0 l-14 -430 l-118 0 Z" /><glyph glyph-name="quotedbl" unicode="&quot;" d="M350 440 l-118 0 l-4 240 l129 0 l-7 -240 ZM178 440 l-118 0 l-5 240 l129 0 l-6 -240 Z" /><glyph glyph-name="numbersign" unicode="#" d="M544 149 l-96 0 l0 -149 l-116 0 l0 149 l-104 0 l0 -149 l-116 0 l0 149 l-96 0 l0 112 l96 0 l0 126 l-96 0 l0 112 l96 0 l0 161 l116 0 l0 -161 l104 0 l0 161 l116 0 l0 -161 l96 0 l0 -112 l-96 0 l0 -126 l96 0 l0 -112 ZM332 261 l0 126 l-104 0 l0 -126 l104 0 Z" /><glyph glyph-name="dollar" unicode="$" d="M508 199 q0 -104 -63 -157.5 q-63 -53.5 -165 -53.5 l-1 0 l-15 -118 q-74 3 -74 7 l14 116 q-74 9 -124 21 l-20 4 l13 104 q79 -11 146 -15 l22 174 q-103 31 -146 75 q-43 44 -43 120 q0 99 60 147.5 q60 48.5 165 48.5 l13 0 l18 138 l74 0 l-18 -144 q62 -6 114 -16 l17 -4 l-11 -106 q-73 8 -135 12 l-20 -161 q104 -33 141.5 -72.5 q37.5 -39.5 37.5 -119.5 ZM185 485 q0 -24 15 -39 q15 -15 58 -31 l17 139 q-90 -4 -90 -69 ZM375 190 q0 24 -13.5 39.5 q-13.5 15.5 -48.5 29.5 l-19 -153 q81 9 81 84 Z" /><glyph glyph-name="percent" unicode="%" d="M125 -8 l235 707 l73 -26 l-235 -705 l-73 24 ZM14 526.5 q0 145.5 120 145.5 q120 0 120 -145.5 q0 -145.5 -120 -145.5 q-120 0 -120 145.5 ZM116.5 577.5 q-4.5 -14.5 -4.5 -50.5 q0 -36 4.5 -51 q4.5 -15 17.5 -15 q13 0 17.5 15 q4.5 15 4.5 51 q0 36 -4.5 50.5 q-4.5 14.5 -17.5 14.5 q-13 0 -17.5 -14.5 ZM306 133.5 q0 145.5 120 145.5 q120 0 120 -145.5 q0 -145.5 -120 -145.5 q-120 0 -120 145.5 ZM408.5 184.5 q-4.5 -14.5 -4.5 -50.5 q0 -36 4.5 -51 q4.5 -15 17.5 -15 q13 0 17.5 15 q4.5 15 4.5 51 q0 36 -4.5 50.5 q-4.5 14.5 -17.5 14.5 q-13 0 -17.5 -14.5 Z" /><glyph glyph-name="ampersand" unicode="&amp;" d="M111 561 q0 70 56 110.5 q56 40.5 151.5 40.5 q95.5 0 148.5 -41.5 q53 -41.5 53 -113.5 q0 -72 -30 -113 q-30 -41 -107 -95 l98 -98 q6 15 12 58 q6 43 7 70 l130 -3 q-15 -116 -51 -203 l112 -98 l-76 -87 l-106 87 q-35 -38 -89.5 -62.5 q-54.5 -24.5 -115.5 -24.5 q-146 0 -207.5 52.5 q-61.5 52.5 -61.5 155.5 q0 81 34 127.5 q34 46.5 108 75.5 q-41 50 -53.5 81 q-12.5 31 -12.5 81 ZM287 108 q40 0 78 11 q38 11 53 29 l-173 173 q-74 -36 -74 -114 q0 -99 116 -99 ZM247 531 q0 -40 45 -88 l17 -18 q41 30 58 53.5 q17 23.5 17 56.5 q0 63 -68.5 63 q-68.5 0 -68.5 -67 Z" /><glyph glyph-name="quotesingle" unicode="&#39;" d="M60 440 l-4 240 l129 0 l-7 -240 l-118 0 Z" /><glyph glyph-name="parenleft" unicode="(" d="M216.5 526 q-30.5 -137 -30.5 -225 q0 -88 24 -194.5 q24 -106.5 48 -168.5 l23 -63 l-127 0 q-14 22 -37 74 q-23 52 -38.5 99 q-15.5 47 -28 116.5 q-12.5 69.5 -12.5 136.5 q0 67 12 138 q12 71 29 124 q36 112 63 164 l12 23 l127 0 q-34 -87 -64.5 -224 Z" /><glyph glyph-name="parenright" unicode=")" d="M257.5 440 q12.5 -72 12.5 -139 q0 -67 -12 -135.5 q-12 -68.5 -29 -118.5 q-36 -105 -63 -151 l-12 -21 l-127 0 q34 77 64.5 207.5 q30.5 130.5 30.5 218.5 q0 88 -23.5 200.5 q-23.5 112.5 -47.5 180.5 l-24 68 l127 0 q14 -25 37 -81.5 q23 -56.5 38.5 -106.5 q15.5 -50 28 -122 Z" /><glyph glyph-name="asterisk" unicode="*" d="M389 499 l-123 0 l38 -120 l-73 -22 l-41 121 l-103 -79 l-47 59 l105 78 l-102 73 l46 63 l101 -73 l39 121 l75 -25 l-38 -122 l123 0 l0 -74 Z" /><glyph glyph-name="plus" unicode="+" d="M50 191 l0 120 l169 0 l0 168 l120 0 l0 -168 l171 0 l0 -120 l-171 0 l0 -170 l-120 0 l0 170 l-169 0 Z" /><glyph glyph-name="comma" unicode="," d="M20 -123 l50 260 l148 0 l-90 -260 l-108 0 Z" /><glyph glyph-name="hyphen" unicode="-" d="M56 205 l0 122 l296 0 l0 -122 l-296 0 Z" /><glyph glyph-name="period" unicode="." d="M56 0 l0 166 l144 0 l0 -166 l-144 0 Z" /><glyph glyph-name="slash" unicode="/" d="M31 8 l288 710 l118 -42 l-288 -710 l-118 42 Z" /><glyph glyph-name="zero" unicode="0" d="M88.5 590 q64.5 82 191.5 82 q127 0 191.5 -82 q64.5 -82 64.5 -263.5 q0 -181.5 -64 -260 q-64 -78.5 -192 -78.5 q-128 0 -192 78.5 q-64 78.5 -64 260 q0 181.5 64.5 263.5 ZM394 329.5 q0 123.5 -26 173 q-26 49.5 -87.5 49.5 q-61.5 0 -88 -50 q-26.5 -50 -26.5 -173 q0 -123 27 -172 q27 -49 88 -49 q61 0 87 49 q26 49 26 172.5 Z" /><glyph glyph-name="one" unicode="1" d="M418 660 l0 -660 l-138 0 l0 504 l-143 -92 l-63 103 l218 145 l126 0 Z" /><glyph glyph-name="two" unicode="2" d="M493 0 l-428 0 l0 117 l141 143 q75 77 104.5 118 q29.5 41 29.5 87.5 q0 46.5 -24.5 65.5 q-24.5 19 -69.5 19 q-67 0 -146 -12 l-24 -3 l-7 107 q98 30 203 30 q210 0 210 -189 q0 -74 -32 -128 q-32 -54 -116 -131 l-115 -104 l274 0 l0 -120 Z" /><glyph glyph-name="three" unicode="3" d="M62 636 q92 36 205.5 36 q113.5 0 165.5 -43.5 q52 -43.5 52 -139.5 q0 -96 -77 -147 q48 -26 68.5 -54 q20.5 -28 20.5 -89 q0 -107 -53.5 -159 q-53.5 -52 -171.5 -52 q-87 0 -183 26 l-32 8 l7 105 q112 -19 188 -19 q103 0 103 88 q0 37 -26.5 59 q-26.5 22 -69.5 22 l-133 0 l0 114 l133 0 q33 0 58.5 28 q25.5 28 25.5 62 q0 71 -99 71 q-69 0 -147 -14 l-26 -4 l-9 102 Z" /><glyph glyph-name="four" unicode="4" d="M320 0 l0 109 l-280 0 l0 105 l163 446 l152 0 l-177 -431 l142 0 l0 185 l138 0 l0 -185 l63 0 l0 -120 l-63 0 l0 -109 l-138 0 Z" /><glyph glyph-name="five" unicode="5" d="M490 660 l0 -120 l-295 0 l-17 -143 q62 24 118 24 q214 0 214 -199 q0 -112 -59 -173 q-59 -61 -167 -61 q-46 0 -104.5 9 q-58.5 9 -93.5 19 l-36 9 l15 102 q121 -19 202 -19 q49 0 75 26 q26 26 26 74.5 q0 48.5 -22 70.5 q-22 22 -62 22 q-67 0 -118 -13 l-15 -4 l-82 19 l18 357 l403 0 Z" /><glyph glyph-name="six" unicode="6" d="M496 537 q-102 15 -177 15 q-142 0 -142 -154 l21 6 q66 19 105 19 q113 0 170 -52 q57 -52 57 -161.5 q0 -109.5 -64 -165.5 q-64 -56 -185.5 -56 q-121.5 0 -183.5 88.5 q-62 88.5 -62 260.5 q0 172 71 253.5 q71 81.5 204 81.5 q78 0 167 -22 l31 -7 l-12 -106 ZM291 303 q-47 0 -98 -17 l-17 -5 q0 -173 112 -173 q48 0 74 26.5 q26 26.5 26 74.5 q0 94 -97 94 Z" /><glyph glyph-name="seven" unicode="7" d="M69 537 l0 123 l422 0 l0 -156 l-235 -516 l-128 36 l225 481 l0 32 l-284 0 Z" /><glyph glyph-name="eight" unicode="8" d="M104 624.5 q65 47.5 174 47.5 q109 0 176 -48 q67 -48 67 -133 q0 -58 -14 -87 q-14 -29 -58 -64 q44 -37 63 -70 q19 -33 19 -91 q0 -98 -70 -144.5 q-70 -46.5 -183 -46.5 q-250 0 -250 180 q0 64 19.5 99.5 q19.5 35.5 63.5 72.5 q-42 34 -57 66.5 q-15 32.5 -15 85.5 q0 85 65 132.5 ZM176 200 q0 -88 103.5 -88 q103.5 0 103.5 88 q0 52 -59 75 l-88 0 q-60 -23 -60 -75 ZM280 548 q-45 0 -69 -20 q-24 -20 -24 -61 q0 -41 49 -75 l88 0 q49 34 49 78 q0 78 -93 78 Z" /><glyph glyph-name="nine" unicode="9" d="M248 108 q133 0 133 162 l-21 -7 q-69 -23 -105 -23 q-109 0 -168 53 q-59 53 -59 157.5 q0 104.5 65 163 q65 58.5 184.5 58.5 q119.5 0 182.5 -88.5 q63 -88.5 63 -263 q0 -174.5 -70 -253.5 q-70 -79 -205 -79 q-78 0 -167 22 l-31 7 l12 106 q102 -15 186 -15 ZM267 360 q46 0 99 18 l16 5 q0 169 -112 169 q-48 0 -74 -26.5 q-26 -26.5 -26 -74.5 q0 -91 97 -91 Z" /><glyph glyph-name="colon" unicode=":" d="M56 289 l0 166 l144 0 l0 -166 l-144 0 ZM56 0 l0 166 l144 0 l0 -166 l-144 0 Z" /><glyph glyph-name="semicolon" unicode=";" d="M77 137 l148 0 l-90 -260 l-108 0 l50 260 ZM69 289 l0 166 l144 0 l0 -166 l-144 0 Z" /><glyph glyph-name="less" unicode="&lt;" d="M472 353 l-261 -99 l261 -108 l0 -136 l-406 186 l0 110 l406 183 l0 -136 Z" /><glyph glyph-name="equal" unicode="=" d="M58 295 l0 121 l444 0 l0 -121 l-444 0 ZM58 87 l0 121 l444 0 l0 -121 l-444 0 Z" /><glyph glyph-name="greater" unicode="&gt;" d="M349 254 l-261 99 l0 136 l406 -183 l0 -110 l-406 -186 l0 136 l261 108 Z" /><glyph glyph-name="question" unicode="?" d="M212 692 q96 0 144.5 -39 q48.5 -39 48.5 -117 q0 -78 -15.5 -113.5 q-15.5 -35.5 -65.5 -73 q-50 -37.5 -63 -57.5 q-13 -20 -13 -44 l0 -31 l-107 0 q-31 34 -31 91 q0 36 63.5 87 q63.5 51 78 70.5 q14.5 19.5 14.5 47.5 q0 59 -85 59 q-60 0 -123 -12 l-21 -4 l-7 101 q86 35 182 35 ZM119 0 l0 161 l144 0 l0 -161 l-144 0 Z" /><glyph glyph-name="at" unicode="@" d="M944 305 l0 -8 q0 -154 -48.5 -225.5 q-48.5 -71.5 -144.5 -71.5 q-71 0 -116 36 q-10 8 -17 20 q-80 -56 -148 -56 q-94 0 -140.5 58.5 q-46.5 58.5 -46.5 189 q0 130.5 43.5 191.5 q43.5 61 147.5 61 q35 0 76 -18 l15 -7 l0 13 l134 0 l0 -179 q0 -138 5.5 -158 q5.5 -20 12 -28 q6.5 -8 13.5 -9.5 q7 -1.5 19 -1.5 q32 0 46.5 39 q14.5 39 14.5 146 l0 9 q0 160 -73.5 232.5 q-73.5 72.5 -234 72.5 q-160.5 0 -245.5 -92 q-85 -92 -85 -267.5 q0 -175.5 76 -259 q76 -83.5 255 -83.5 l143 9 l5 -117 q-90 -10 -148 -10 q-115 0 -198 23 q-83 23 -145 76 q-122 107 -122 371 q0 231 125 349.5 q125 118.5 342 118.5 q217 0 328 -108.5 q111 -108.5 111 -315.5 ZM481 118 q38 0 90 25 q-6 36 -6 106 l0 123 q-42 10 -61 10 q-52 0 -68.5 -29 q-16.5 -29 -16.5 -102 q0 -133 62 -133 Z" /><glyph glyph-name="A" unicode="a" d="M17 0 l153 680 l262 0 l153 -680 l-138 0 l-27 123 l-238 0 l-27 -123 l-138 0 ZM277 566 l-69 -323 l186 0 l-69 323 l-48 0 Z" /><glyph glyph-name="B" unicode="b" d="M74 680 l267 0 q106 0 159 -42.5 q53 -42.5 53 -137.5 q0 -57 -17 -90.5 q-17 -33.5 -58 -59.5 q45 -19 66.5 -55 q21.5 -36 21.5 -100 q0 -99 -58 -147 q-58 -48 -163 -48 l-271 0 l0 680 ZM338 284 l-126 0 l0 -166 l126 0 q45 0 66.5 18 q21.5 18 21.5 66 q0 82 -88 82 ZM334 562 l-122 0 l0 -162 l123 0 q78 0 78 81 q0 81 -79 81 Z" /><glyph glyph-name="C" unicode="c" d="M505 11 q-106 -23 -191 -23 q-85 0 -136 21 q-51 21 -80 67 q-29 46 -40 108 q-11 62 -11 156 q0 197 55.5 274.5 q55.5 77.5 204.5 77.5 q86 0 199 -27 l-4 -110 q-99 15 -164.5 15 q-65.5 0 -93.5 -17.5 q-28 -17.5 -41.5 -66.5 q-13.5 -49 -13.5 -167 q0 -118 27.5 -163.5 q27.5 -45.5 110 -45.5 q82.5 0 175.5 14 l3 -113 Z" /><glyph glyph-name="D" unicode="d" d="M303 0 l-229 0 l0 680 l229 0 q88 0 145 -18.5 q57 -18.5 88.5 -61 q31.5 -42.5 43.5 -100 q12 -57.5 12 -149.5 q0 -92 -11 -152.5 q-11 -60.5 -41.5 -108 q-30.5 -47.5 -88.5 -69 q-58 -21.5 -148 -21.5 ZM448 270 q2 32 2 88.5 q0 56.5 -4 90.5 q-4 34 -19 62 q-15 28 -44.5 38.5 q-29.5 10.5 -79.5 10.5 l-91 0 l0 -440 l91 0 q75 0 109 38 q29 31 36 112 Z" /><glyph glyph-name="E" unicode="e" d="M74 0 l0 680 l440 0 l0 -120 l-302 0 l0 -159 l242 0 l0 -118 l-242 0 l0 -163 l302 0 l0 -120 l-440 0 Z" /><glyph glyph-name="F" unicode="f" d="M74 0 l0 680 l434 0 l0 -120 l-296 0 l0 -200 l242 0 l0 -120 l-242 0 l0 -240 l-138 0 Z" /><glyph glyph-name="G" unicode="g" d="M357 244 l0 120 l198 0 l0 -353 q-143 -23 -232 -23 q-159 0 -218.5 85 q-59.5 85 -59.5 270 q0 185 62 267 q62 82 211 82 q93 0 201 -21 l36 -7 l-4 -107 q-120 13 -196.5 13 q-76.5 0 -107.5 -18 q-31 -18 -45.5 -66.5 q-14.5 -48.5 -14.5 -166 q0 -117.5 29 -164.5 q29 -47 120 -47 l83 4 l0 132 l-62 0 Z" /><glyph glyph-name="H" unicode="h" d="M465 0 l0 282 l-253 0 l0 -282 l-138 0 l0 680 l138 0 l0 -278 l253 0 l0 278 l138 0 l0 -680 l-138 0 Z" /><glyph glyph-name="I" unicode="i" d="M74 0 l0 680 l138 0 l0 -680 l-138 0 Z" /><glyph glyph-name="J" unicode="j" d="M19 -70 l0 120 q40 0 58 15 q18 15 18 56 l0 559 l137 0 l1 -565 q0 -109 -48.5 -147 q-48.5 -38 -165.5 -38 Z" /><glyph glyph-name="K" unicode="k" d="M212 0 l-138 0 l0 680 l138 0 l0 -299 l92 10 l112 289 l157 0 l-148 -341 l152 -339 l-159 0 l-114 271 l-92 -10 l0 -261 Z" /><glyph glyph-name="L" unicode="l" d="M461 0 l-387 0 l0 680 l138 0 l0 -558 l249 0 l0 -122 Z" /><glyph glyph-name="M" unicode="m" d="M74 0 l0 680 l235 0 l120 -496 l120 496 l235 0 l0 -680 l-138 0 l0 526 l-15 0 l-133 -496 l-138 0 l-133 496 l-15 0 l0 -526 l-138 0 Z" /><glyph glyph-name="N" unicode="n" d="M74 0 l0 680 l233 0 l164 -560 l10 0 l0 560 l138 0 l0 -680 l-227 0 l-170 560 l-10 0 l0 -560 l-138 0 Z" /><glyph glyph-name="O" unicode="o" d="M215.5 160.5 q29.5 -52.5 110.5 -52.5 q81 0 110.5 52.5 q29.5 52.5 29.5 176 q0 123.5 -30 179.5 q-30 56 -110 56 q-80 0 -110 -56 q-30 -56 -30 -179.5 q0 -123.5 29.5 -176 ZM544.5 72.5 q-63.5 -84.5 -218.5 -84.5 q-155 0 -218.5 84.5 q-63.5 84.5 -63.5 264.5 q0 180 63.5 267.5 q63.5 87.5 218.5 87.5 q155 0 218.5 -87.5 q63.5 -87.5 63.5 -267.5 q0 -180 -63.5 -264.5 Z" /><glyph glyph-name="P" unicode="p" d="M324 198 l-112 0 l0 -198 l-138 0 l0 680 l250 0 q242 0 242 -236 q0 -119 -61.5 -182.5 q-61.5 -63.5 -180.5 -63.5 ZM212 316 l111 0 q103 0 103 128 q0 63 -25 90.5 q-25 27.5 -78 27.5 l-111 0 l0 -246 Z" /><glyph glyph-name="Q" unicode="q" d="M326 -12 q-156 0 -219 84 q-63 84 -63 264.5 q0 180.5 63.5 268 q63.5 87.5 218.5 87.5 q155 0 218.5 -87.5 q63.5 -87.5 63.5 -268.5 q0 -222 -105 -299 l83 -134 l-126 -59 l-90 147 q-10 -3 -44 -3 ZM215.5 160 q29.5 -52 110.5 -52 q81 0 110.5 52 q29.5 52 29.5 176 q0 124 -30 180 q-30 56 -110 56 q-80 0 -110 -56 q-30 -56 -30 -180 q0 -124 29.5 -176 Z" /><glyph glyph-name="R" unicode="r" d="M212 228 l0 -228 l-138 0 l0 680 l264 0 q240 0 240 -224 q0 -133 -100 -196 l97 -260 l-151 0 l-79 228 l-133 0 ZM340 346 q49 0 73 30 q24 30 24 79 q0 49 -25.5 78 q-25.5 29 -73.5 29 l-126 0 l0 -216 l128 0 Z" /><glyph glyph-name="S" unicode="s" d="M283 572 q-109 0 -109 -72 q0 -32 27 -49 q27 -17 126.5 -49 q99.5 -32 139.5 -72.5 q40 -40.5 40 -124.5 q0 -107 -65 -162 q-65 -55 -170 -55 q-78 0 -191 24 l-36 7 l14 107 q134 -18 205 -18 q106 0 106 88 q0 32 -24.5 50 q-24.5 18 -97.5 39 q-116 33 -163.5 78.5 q-47.5 45.5 -47.5 126.5 q0 102 62 152 q62 50 170 50 q74 0 188 -20 l36 -7 l-11 -109 q-141 16 -199 16 Z" /><glyph glyph-name="T" unicode="t" d="M13 558 l0 122 l500 0 l0 -122 l-180 0 l0 -558 l-138 0 l0 558 l-182 0 Z" /><glyph glyph-name="U" unicode="u" d="M206 227 q0 -119 121 -119 q121 0 121 119 l0 453 l138 0 l0 -450 q0 -125 -64.5 -183.5 q-64.5 -58.5 -194.5 -58.5 q-130 0 -194.5 58.5 q-64.5 58.5 -64.5 183.5 l0 450 l138 0 l0 -453 Z" /><glyph glyph-name="V" unicode="v" d="M442 680 l145 0 l-158 -680 l-255 0 l-158 680 l145 0 l118 -560 l45 0 l118 560 Z" /><glyph glyph-name="W" unicode="w" d="M19 680 l145 0 l84 -562 l15 0 l122 562 l160 0 l122 -562 l15 0 l84 562 l145 0 l-130 -680 l-209 0 l-107 517 l-107 -517 l-209 0 l-130 680 Z" /><glyph glyph-name="X" unicode="x" d="M162 680 l126 -250 l129 250 l143 0 l-196 -347 l196 -333 l-153 0 l-126 235 l-129 -235 l-143 0 l196 326 l-196 354 l153 0 Z" /><glyph glyph-name="Y" unicode="y" d="M348 0 l-138 0 l0 275 l-210 405 l153 0 l125 -271 l125 271 l153 0 l-208 -405 l0 -275 Z" /><glyph glyph-name="Z" unicode="z" d="M41 560 l0 120 l450 0 l0 -120 l-284 -422 l0 -18 l284 0 l0 -120 l-450 0 l0 119 l284 423 l0 18 l-284 0 Z" /><glyph glyph-name="bracketleft" unicode="[" d="M320 749 l0 -120 l-115 0 l0 -632 l115 0 l0 -120 l-252 0 l0 872 l252 0 Z" /><glyph glyph-name="backslash" unicode="\" d="M466 13 l-116 -49 l-318 700 l114 52 l320 -703 Z" /><glyph glyph-name="bracketright" unicode="]" d="M35 629 l0 120 l252 0 l0 -872 l-252 0 l0 120 l115 0 l0 632 l-115 0 Z" /><glyph glyph-name="asciicircum" unicode="^" d="M383 313 l-109 217 l-113 -217 l-140 0 l194 347 l114 0 l194 -347 l-140 0 Z" /><glyph glyph-name="underscore" unicode="_" d="M96 -73 l428 0 l0 -114 l-428 0 l0 114 Z" /><glyph glyph-name="grave" unicode="`" d="M23 753 l252 -102 l-30 -87 l-262 74 l40 115 Z" /><glyph glyph-name="a" unicode="a" d="M445 344 l0 -208 q2 -24 8 -33.5 q6 -9.5 25 -13.5 l-4 -101 q-51 0 -81.5 7 q-30.5 7 -61.5 28 q-72 -35 -147 -35 q-155 0 -155 164 q0 80 43 113.5 q43 33.5 132 39.5 l107 8 l0 31 q0 31 -14 42.5 q-14 11.5 -45 11.5 l-188 -8 l-4 93 q107 29 203.5 29 q96.5 0 139 -40 q42.5 -40 42.5 -128 ZM220 212 q-56 -5 -56 -60 q0 -55 49 -55 q38 0 83 12 l15 4 l0 107 l-91 -8 Z" /><glyph glyph-name="b" unicode="b" d="M304 512 q105 0 153.5 -57.5 q48.5 -57.5 48.5 -205.5 q0 -148 -56 -204.5 q-56 -56.5 -193 -56.5 q-43 0 -157 10 l-38 4 l0 698 l134 0 l0 -215 q64 27 108 27 ZM257 108 q67 0 90 32.5 q23 32.5 23 116.5 q0 135 -84 135 q-40 0 -76 -10 l-14 -3 l0 -267 q46 -4 61 -4 Z" /><glyph glyph-name="c" unicode="c" d="M249 512 q52 0 133 -16 l27 -6 l-4 -106 q-79 8 -117 8 q-69 0 -91.5 -29.5 q-22.5 -29.5 -22.5 -111.5 q0 -82 22.5 -112.5 q22.5 -30.5 92.5 -30.5 l116 8 l4 -107 q-107 -21 -163 -21 q-111 0 -159.5 62.5 q-48.5 62.5 -48.5 200.5 q0 138 50 199.5 q50 61.5 161 61.5 Z" /><glyph glyph-name="d" unicode="d" d="M487 700 l0 -700 l-133 0 l0 21 q-70 -33 -121 -33 q-109 0 -152 63 q-43 63 -43 199.5 q0 136.5 51.5 199 q51.5 62.5 155.5 62.5 q32 0 89 -10 l19 -4 l0 202 l134 0 ZM339 120 l14 3 l0 263 q-55 10 -98 10 q-81 0 -81 -144 q0 -78 18 -111 q18 -33 59.5 -33 q41.5 0 87.5 12 Z" /><glyph glyph-name="e" unicode="e" d="M172 193 q1 -46 24.5 -66.5 q23.5 -20.5 67.5 -20.5 q93 0 166 6 l28 3 l2 -99 q-115 -28 -208 -28 q-113 0 -164 60 q-51 60 -51 195 q0 269 221 269 q218 0 218 -226 l-10 -93 l-294 0 ZM344 295 q0 60 -19 83.5 q-19 23.5 -66.5 23.5 q-47.5 0 -67 -24.5 q-19.5 -24.5 -20.5 -82.5 l173 0 Z" /><glyph glyph-name="f" unicode="f" d="M220 386 l0 -386 l-134 0 l0 386 l-54 0 l0 114 l54 0 l0 22 q0 108 32 149 q32 41 114 41 q36 0 93 -10 l21 -3 l-2 -109 q-44 2 -74 2 q-30 0 -40 -16 q-10 -16 -10 -55 l0 -21 l121 0 l0 -114 l-121 0 Z" /><glyph glyph-name="g" unicode="g" d="M515 -62.5 q0 -85.5 -66 -126.5 q-66 -41 -178.5 -41 q-112.5 0 -173 30 q-60.5 30 -60.5 109 q0 63 72 119 q-37 25 -37 76 q0 20 30 66 l9 14 q-68 49 -68 144.5 q0 95.5 57.5 138.5 q57.5 43 152.5 43 q43 0 85 -10 l16 -3 l161 5 l0 -107 l-75 6 q22 -34 22 -68 q0 -100 -51 -138 q-51 -38 -160 -38 q-23 0 -41 4 q-10 -26 -10 -42.5 q0 -16.5 17 -22.5 q17 -6 80 -7 q126 -1 172 -33.5 q46 -32.5 46 -118 ZM169 -77 q0 -43 105.5 -43 q105.5 0 105.5 50 q0 27 -18 34.5 q-18 7.5 -76 8.5 l-90 7 q-27 -27 -27 -57 ZM177 332.5 q0 -73.5 76.5 -73.5 q76.5 0 76.5 73.5 q0 73.5 -76.5 73.5 q-76.5 0 -76.5 -73.5 Z" /><glyph glyph-name="h" unicode="h" d="M196 0 l-134 0 l0 700 l134 0 l0 -224 q69 36 124 36 q100 0 138 -59 q38 -59 38 -182 l0 -271 l-134 0 l0 268 q0 63 -15 93.5 q-15 30.5 -60 30.5 q-39 0 -78 -12 l-13 -4 l0 -376 Z" /><glyph glyph-name="i" unicode="i" d="M62 0 l0 500 l134 0 l0 -500 l-134 0 ZM62 564 l0 136 l134 0 l0 -136 l-134 0 Z" /><glyph glyph-name="j" unicode="j" d="M63 24 l0 476 l134 0 l0 -477 q0 -102 -35.5 -150.5 q-35.5 -48.5 -142.5 -102.5 l-53 99 q45 30 63 47 q18 17 26 40.5 q8 23.5 8 67.5 ZM63 564 l0 136 l134 0 l0 -136 l-134 0 Z" /><glyph glyph-name="k" unicode="k" d="M196 0 l-134 0 l0 700 l134 0 l0 -398 l51 9 l99 189 l150 0 l-130 -237 l137 -263 l-151 0 l-101 195 l-55 -9 l0 -186 Z" /><glyph glyph-name="l" unicode="l" d="M68 0 l0 700 l134 0 l0 -700 l-134 0 Z" /><glyph glyph-name="m" unicode="m" d="M196 0 l-134 0 l0 500 l133 0 l0 -28 q69 40 118 40 q81 0 125 -47 q92 47 168 47 q99 0 137.5 -57.5 q38.5 -57.5 38.5 -183.5 l0 -271 l-134 0 l0 267 q0 64 -14 94.5 q-14 30.5 -56 30.5 q-32 0 -78 -14 l-15 -5 q4 -75 4 -114 l0 -259 l-134 0 l0 257 q0 74 -13 104.5 q-13 30.5 -57 30.5 q-39 0 -77 -14 l-12 -4 l0 -374 Z" /><glyph glyph-name="n" unicode="n" d="M196 0 l-134 0 l0 500 l133 0 l0 -28 q68 40 125 40 q100 0 138 -59 q38 -59 38 -182 l0 -271 l-134 0 l0 267 q0 64 -15 94.5 q-15 30.5 -60 30.5 q-41 0 -79 -14 l-12 -4 l0 -374 Z" /><glyph glyph-name="o" unicode="o" d="M89 443.5 q53 68.5 177 68.5 q124 0 177 -68.5 q53 -68.5 53 -192.5 q0 -263 -230 -263 q-230 0 -230 263 q0 124 53 192.5 ZM192.5 138 q20.5 -36 73.5 -36 q53 0 73.5 36 q20.5 36 20.5 113 q0 77 -20.5 112 q-20.5 35 -73.5 35 q-53 0 -73.5 -35 q-20.5 -35 -20.5 -112 q0 -77 20.5 -113 Z" /><glyph glyph-name="p" unicode="p" d="M62 -210 l0 710 l133 0 l0 -27 q65 39 114 39 q101 0 149 -60.5 q48 -60.5 48 -205.5 q0 -145 -53 -201.5 q-53 -56.5 -174 -56.5 q-33 0 -71 6 l-12 2 l0 -206 l-134 0 ZM283 392 q-37 0 -75 -15 l-12 -5 l0 -262 q45 -6 73 -6 q58 0 79.5 34 q21.5 34 21.5 116 q0 138 -87 138 Z" /><glyph glyph-name="q" unicode="q" d="M239 -12 q-105 0 -153 57.5 q-48 57.5 -48 206 q0 148.5 55.5 204.5 q55.5 56 192.5 56 q61 0 159 -10 l36 -3 l0 -709 l-134 0 l0 225 q-64 -27 -108 -27 ZM286 396 q-67 0 -90.5 -34.5 q-23.5 -34.5 -23.5 -118.5 q0 -135 85 -135 q40 0 77 10 l13 3 l0 271 q-37 4 -61 4 Z" /><glyph glyph-name="r" unicode="r" d="M62 0 l0 500 l133 0 l0 -53 q84 50 160 65 l0 -135 q-81 -17 -139 -35 l-20 -7 l0 -335 l-134 0 Z" /><glyph glyph-name="s" unicode="s" d="M421 375 q-124 16 -173.5 16 q-49.5 0 -64 -9 q-14.5 -9 -14.5 -28.5 q0 -19.5 19.5 -27 q19.5 -7.5 100 -22 q80.5 -14.5 114.5 -47.5 q34 -33 34 -107 q0 -162 -201 -162 q-66 0 -160 18 l-32 6 l4 112 q124 -16 172.5 -16 q48.5 0 66 9.5 q17.5 9.5 17.5 28.5 q0 19 -18.5 28 q-18.5 9 -96 22 q-77.5 13 -115.5 44 q-38 31 -38 110.5 q0 79.5 54 120 q54 40.5 139 40.5 q59 0 161 -19 l33 -6 l-2 -111 Z" /><glyph glyph-name="t" unicode="t" d="M339 386 l-123 0 l0 -205 q0 -30 1.5 -42.5 q1.5 -12.5 11 -21.5 q9.5 -9 29.5 -9 l76 2 l6 -107 q-67 -15 -102 -15 q-90 0 -123 40.5 q-33 40.5 -33 149.5 l0 208 l-59 0 l0 114 l59 0 l0 139 l134 0 l0 -139 l123 0 l0 -114 Z" /><glyph glyph-name="u" unicode="u" d="M357 500 l134 0 l0 -500 l-133 0 l0 28 q-72 -40 -125 -40 q-104 0 -140 57.5 q-36 57.5 -36 192.5 l0 262 l134 0 l0 -264 q0 -74 12 -101 q12 -27 58 -27 q44 0 83 14 l13 4 l0 374 Z" /><glyph glyph-name="v" unicode="v" d="M15 500 l140 0 l80 -386 l28 0 l84 386 l136 0 l-120 -500 l-228 0 l-120 500 Z" /><glyph glyph-name="w" unicode="w" d="M24 500 l132 0 l61 -386 l24 0 l76 376 l138 0 l76 -376 l24 0 l61 386 l132 0 l-95 -500 l-210 0 l-57 306 l-57 -306 l-210 0 l-95 500 Z" /><glyph glyph-name="x" unicode="x" d="M14 500 l143 0 l80 -155 l81 155 l143 0 l-142 -245 l142 -255 l-143 0 l-81 153 l-80 -153 l-143 0 l137 251 l-137 249 Z" /><glyph glyph-name="y" unicode="y" d="M16 500 l132 0 l91 -386 l23 0 l91 386 l132 0 l-176 -710 l-131 0 l55 210 l-94 0 l-123 500 Z" /><glyph glyph-name="z" unicode="z" d="M41 380 l0 120 l371 0 l0 -120 l-210 -260 l210 0 l0 -120 l-371 0 l0 120 l210 260 l-210 0 Z" /><glyph glyph-name="braceleft" unicode="{" d="M251 576 l7 -128 q0 -63 -20.5 -90 q-20.5 -27 -91.5 -44 q70 -17 91.5 -47.5 q21.5 -30.5 21.5 -94.5 l-7 -117 q0 -34 14.5 -53 q14.5 -19 56.5 -22 l0 -114 q-111 4 -156.5 43 q-45.5 39 -45.5 129 l7 121 q0 73 -112 102 l0 104 q112 26 112 94 l-7 127 q0 95 45.5 133 q45.5 38 158.5 42 l0 -114 q-43 -4 -58.5 -21 q-15.5 -17 -15.5 -50 Z" /><glyph glyph-name="bar" unicode="|" d="M67 -210 l0 910 l134 0 l0 -910 l-134 0 Z" /><glyph glyph-name="braceright" unicode="}" d="M109 55 l-7 117 q0 64 21.5 94.5 q21.5 30.5 91.5 47.5 q-71 17 -91.5 44 q-20.5 27 -20.5 90 l7 128 q0 33 -15.5 50 q-15.5 17 -58.5 21 l0 114 q113 -4 158.5 -42 q45.5 -38 45.5 -133 l-7 -127 q0 -68 112 -94 l0 -104 q-112 -29 -112 -102 l7 -121 q0 -90 -45.5 -129 q-45.5 -39 -156.5 -43 l0 114 q42 3 56.5 22 q14.5 19 14.5 53 Z" /><glyph glyph-name="asciitilde" unicode="~" d="M444.5 186 q-33.5 -16 -61.5 -16 q-28 0 -107 22 q-79 22 -98 22 q-19 0 -46.5 -10 q-27.5 -10 -43.5 -20 l-17 -9 l-10 107 q63 52 123 52 q28 0 104 -22 q76 -22 96 -22 q37 0 88 28 l17 10 l8 -107 q-19 -19 -52.5 -35 Z" /><glyph glyph-name="nonbreakingspace" unicode=" " d="" /><glyph glyph-name="exclamdown" unicode="¡" d="M204 500 l0 -161 l-144 0 l0 161 l144 0 ZM191 250 l13 -430 l-145 0 l14 430 l118 0 Z" /><glyph glyph-name="cent" unicode="¢" d="M270 -75 l0 104 q-182 13 -182 219.5 q0 206.5 182 221.5 l0 101 l110 0 l0 -105 l79 -13 l-4 -100 q-79 3 -129.5 3 q-50.5 0 -76 -24.5 q-25.5 -24.5 -25.5 -81.5 q0 -57 26 -82 q26 -25 89 -25 l116 4 l4 -100 q-39 -10 -79 -13 l0 -109 l-110 0 Z" /><glyph glyph-name="sterling" unicode="£" d="M333 551 q-52 0 -52 -65 l0 -53 l153 0 l0 -114 l-153 0 l0 -205 l124 0 l69 16 l21 -112 l-81 -18 l-339 0 l0 114 l74 0 l0 205 l-64 0 l0 114 l64 0 l0 59 q0 104 40 141.5 q40 37.5 126 37.5 q67 0 131 -18 l22 -6 l-4 -104 q-68 8 -131 8 Z" /><glyph glyph-name="currency" unicode="¤" d="M365 75 q-40 -20 -85 -20 q-45 0 -85 20 l-73 -73 l-92 92 l72 72 q-19 41 -19 85.5 q0 44.5 19 85.5 l-72 73 l92 92 l72 -73 q40 20 85.5 20 q45.5 0 85.5 -20 l73 73 l92 -92 l-73 -73 q20 -40 20 -85.5 q0 -45.5 -20 -85.5 l73 -72 l-92 -92 l-73 73 ZM219.5 191.5 q25.5 -25.5 60.5 -25.5 q35 0 60.5 25.5 q25.5 25.5 25.5 60.5 q0 35 -25.5 60.5 q-25.5 25.5 -60.5 25.5 q-35 0 -60.5 -25.5 q-25.5 -25.5 -25.5 -60.5 q0 -35 25.5 -60.5 Z" /><glyph glyph-name="yen" unicode="¥" d="M58 291 l0 112 l92 0 l-145 257 l153 0 l123 -211 l122 211 l153 0 l-143 -257 l89 0 l0 -112 l-151 0 l0 -45 l151 0 l0 -112 l-151 0 l0 -134 l-138 0 l0 134 l-155 0 l0 112 l155 0 l0 45 l-155 0 Z" /><glyph glyph-name="brokenbar" unicode="¦" d="M69 700 l134 0 l0 -372 l-134 0 l0 372 ZM69 170 l134 0 l0 -380 l-134 0 l0 380 Z" /><glyph glyph-name="section" unicode="§" d="M444 506 q-113 16 -166 16 q-53 0 -72 -14 q-19 -14 -19 -51 q0 -22 27 -33.5 q27 -11.5 113 -32.5 q86 -21 117 -50 q31 -29 31 -98.5 q0 -69.5 -50 -140.5 q20 -19 29 -41 q9 -22 9 -68 q0 -97 -51.5 -140 q-51.5 -43 -165.5 -43 q-56 0 -155 18 l-31 5 l13 108 q108 -15 161.5 -15 q53.5 0 77 13.5 q23.5 13.5 23.5 42 q0 28.5 -25 40.5 q-25 12 -115 34.5 q-90 22.5 -124 54 q-34 31.5 -34 102.5 q0 35 20 74.5 q20 39.5 44 59.5 q-44 32 -44 108 q0 183 217 183 q64 0 148 -18 l28 -6 l-6 -108 ZM189 302 q-17 -26 -17 -59.5 q0 -33.5 11.5 -44.5 q11.5 -11 51 -22 q39.5 -11 86.5 -27 q18 23 18 73 q0 25 -16 37.5 q-16 12.5 -44.5 20 q-28.5 7.5 -53.5 13.5 q-25 6 -36 9 Z" /><glyph glyph-name="dieresis" unicode="¨" d="M-30 596 l0 132 l128 0 l0 -132 l-128 0 ZM186 596 l0 132 l128 0 l0 -132 l-128 0 Z" /><glyph glyph-name="copyright" unicode="©" d="M324 150 q-121 0 -199.5 82 q-78.5 82 -78.5 203.5 q0 121.5 78 202 q78 80.5 199.5 80.5 q121.5 0 197.5 -82.5 q76 -82.5 76 -203.5 q0 -121 -76 -201.5 q-76 -80.5 -197 -80.5 ZM169.5 592.5 q-61.5 -65.5 -61.5 -158.5 q0 -93 61 -158.5 q61 -65.5 152.5 -65.5 q91.5 0 152.5 65 q61 65 61 158 q0 93 -61.5 159 q-61.5 66 -152 66 q-90.5 0 -152 -65.5 ZM414 287 q-28 -18 -90.5 -18 q-62.5 0 -92 36 q-29.5 36 -29.5 129.5 q0 93.5 30.5 128.5 q30.5 35 101.5 35 q39 0 70 -12 l10 -3 l-7 -86 q-35 6 -61 6 q-26 0 -33.5 -14 q-7.5 -14 -7.5 -50 q0 -75 35 -75 l67 5 l7 -82 Z" /><glyph glyph-name="ordfeminine" unicode="ª" d="M351 544 l0 -141 q8 -6 18 -8 l-2 -82 q-68 0 -91.5 7.5 q-23.5 7.5 -35.5 25.5 q-42 -32 -92 -32 q-50 0 -78 29.5 q-28 29.5 -28 80.5 q0 95 127 101 l67 3 l0 22 q0 15 -44 15 l-131 -7 l-3 75 q70 26 144 26 q74 0 111.5 -24.5 q37.5 -24.5 37.5 -90.5 ZM188 402 q18 0 48 16 l0 40 l-47 -3 q-32 -3 -32 -27 q0 -26 31 -26 Z" /><glyph glyph-name="guillemotleft" unicode="«" d="M263 319 l-109 -75 l109 -86 l0 -135 l-223 171 l0 96 l223 164 l0 -135 ZM546 319 l-109 -75 l109 -86 l0 -135 l-223 171 l0 96 l223 164 l0 -135 Z" /><glyph glyph-name="logicalnot" unicode="¬" d="M57 358 l436 0 l0 -254 l-120 0 l0 134 l-316 0 l0 120 Z" /><glyph glyph-name="registered" unicode="®" d="M324.5 150 q-121.5 0 -200 81.5 q-78.5 81.5 -78.5 203.5 q0 122 78 202.5 q78 80.5 199 80.5 q121 0 197.5 -82.5 q76.5 -82.5 76.5 -203.5 q0 -121 -75.5 -201.5 q-75.5 -80.5 -197 -80.5 ZM169.5 592 q-61.5 -66 -61.5 -158 q0 -92 62 -158 q62 -66 152.5 -66 q90.5 0 151.5 65.5 q61 65.5 61 158 q0 92.5 -61.5 158.5 q-61.5 66 -152 66 q-90.5 0 -152 -66 ZM297 369 l0 -93 l-96 0 l0 315 l136 0 q52 0 83 -25.5 q31 -25.5 31 -72 q0 -46.5 -8 -68 q-8 -21.5 -30 -39.5 l41 -110 l-100 0 l-28 93 l-29 0 ZM296 519 l0 -79 l28 0 q34 0 34 39.5 q0 39.5 -35 39.5 l-27 0 Z" /><glyph glyph-name="macron" unicode="¯" d="M-5 597 l0 100 l287 0 l0 -100 l-287 0 Z" /><glyph glyph-name="degree" unicode="°" d="M171.5 434 q-41.5 41 -41.5 108 q0 67 41.5 108.5 q41.5 41.5 108.5 41.5 q67 0 108.5 -41.5 q41.5 -41.5 41.5 -108.5 q0 -67 -41.5 -108 q-41.5 -41 -108.5 -41 q-67 0 -108.5 41 ZM225.5 597.5 q-20.5 -21.5 -20.5 -55.5 q0 -34 20.5 -55 q20.5 -21 54.5 -21 q34 0 55.5 21 q21.5 21 21.5 55 q0 34 -21.5 55.5 q-21.5 21.5 -55.5 21.5 q-34 0 -54.5 -21.5 Z" /><glyph glyph-name="plusminus" unicode="±" d="M50 270 l0 120 l169 0 l0 108 l120 0 l0 -108 l171 0 l0 -120 l-171 0 l0 -100 l-120 0 l0 100 l-169 0 ZM50 139 l460 0 l0 -120 l-460 0 l0 120 Z" /><glyph glyph-name="twosuperior" unicode="²" d="M252 478 l-231 0 l0 90 l73 59 q46 37 46 57 q0 15 -37 15 l-76 -6 l-4 99 q73 9 126 9 q53 0 78 -23 q25 -23 25 -66.5 q0 -43.5 -13 -66 q-13 -22.5 -43 -44.5 l-38 -28 l94 0 l0 -95 Z" /><glyph glyph-name="threesuperior" unicode="³" d="M132 801 q121 0 121 -89 q0 -53 -29 -70 q35 -15 35 -70 q0 -105 -118 -105 l-121 8 l6 93 q61 -6 92 -6 q31 0 31 16 q0 14 -26 14 l-66 0 l0 85 l64 0 q20 0 20 14.5 q0 14.5 -27 14.5 l-84 -5 l-6 91 q68 9 108 9 Z" /><glyph glyph-name="acute" unicode="´" d="M5 651 l252 102 l40 -115 l-262 -74 l-30 87 Z" /><glyph glyph-name="mu" unicode="µ" d="M363 500 l134 0 l0 -500 l-133 0 l0 28 q-72 -40 -125 -40 q-23 0 -42 3 l0 -201 l-134 0 l0 710 l134 0 l0 -289 q1 -58 14 -80.5 q13 -22.5 56 -22.5 q44 0 83 14 l13 4 l0 374 Z" /><glyph glyph-name="paragraph" unicode="¶" d="M397 0 l0 566 l-62 0 l0 -566 l-114 0 l0 286 l-7 0 q-84 0 -135 54.5 q-51 54.5 -51 141.5 q0 87 52 142.5 q52 55.5 136 55.5 l331 0 l0 -114 l-36 0 l0 -566 l-114 0 Z" /><glyph glyph-name="periodcentered" unicode="·" d="M56 167 l0 166 l144 0 l0 -166 l-144 0 Z" /><glyph glyph-name="cedilla" unicode="¸" d="M111 -37 q64 -1 93.5 -19 q29.5 -18 29.5 -73 q0 -55 -29 -83.5 q-29 -28.5 -82 -28.5 q-44 0 -79 8 l-14 3 l4 78 q31 -1 48 -1 q38 0 38 26 q0 22 -38 22 l-24 0 l0 106 l53 0 l0 -38 Z" /><glyph glyph-name="onesuperior" unicode="¹" d="M212 790 l0 -312 l-106 0 l0 195 l-47 -32 l-49 74 l106 75 l96 0 Z" /><glyph glyph-name="ordmasculine" unicode="º" d="M211 659 q169 0 169 -172.5 q0 -172.5 -169 -172.5 q-171 0 -171 172.5 q0 172.5 171 172.5 ZM171 435.5 q11 -16.5 40 -16.5 q29 0 38.5 16 q9.5 16 9.5 53 q0 37 -9.5 52 q-9.5 15 -38.5 15 q-29 0 -40 -15.5 q-11 -15.5 -11 -51.5 q0 -36 11 -52.5 Z" /><glyph glyph-name="guillemotright" unicode="»" d="M447 244 l-109 75 l0 135 l223 -164 l0 -96 l-223 -171 l0 135 l109 86 ZM164 244 l-109 75 l0 135 l223 -164 l0 -96 l-223 -171 l0 135 l109 86 Z" /><glyph glyph-name="onequarter" unicode="¼" d="M220 790 l0 -312 l-106 0 l0 195 l-47 -32 l-49 74 l106 75 l96 0 ZM29 29 l393 632 l53 -35 l-393 -633 l-53 36 ZM409 -100 l0 35 l-132 0 l0 88 l39 189 l118 0 l-52 -182 l27 0 l14 90 l91 0 l0 -90 l11 0 l0 -95 l-11 0 l0 -35 l-105 0 Z" /><glyph glyph-name="onehalf" unicode="½" d="M220 790 l0 -312 l-106 0 l0 195 l-47 -32 l-49 74 l106 75 l96 0 ZM29 29 l393 632 l53 -35 l-393 -633 l-53 36 ZM512 -100 l-231 0 l0 90 l73 59 q46 37 46 57 q0 15 -37 15 l-76 -6 l-4 99 q73 9 126 9 q53 0 78 -23 q25 -23 25 -66.5 q0 -43.5 -13 -66 q-13 -22.5 -43 -44.5 l-38 -28 l94 0 l0 -95 Z" /><glyph glyph-name="threequarters" unicode="¾" d="M148 801 q121 0 121 -89 q0 -53 -29 -70 q35 -15 35 -70 q0 -105 -118 -105 l-121 8 l6 93 q61 -6 92 -6 q31 0 31 16 q0 14 -26 14 l-66 0 l0 85 l64 0 q20 0 20 14.5 q0 14.5 -27 14.5 l-84 -5 l-6 91 q68 9 108 9 ZM43 29 l393 632 l53 -35 l-393 -633 l-53 36 ZM423 -100 l0 35 l-132 0 l0 88 l39 189 l118 0 l-52 -182 l27 0 l14 90 l91 0 l0 -90 l11 0 l0 -95 l-11 0 l0 -35 l-105 0 Z" /><glyph glyph-name="questiondown" unicode="¿" d="M222 -192 q-96 0 -144.5 39 q-48.5 39 -48.5 117 q0 78 15.5 113.5 q15.5 35.5 65.5 73 q50 37.5 63 57.5 q13 20 13 44 l0 31 l107 0 q31 -34 31 -91 q0 -36 -63.5 -87 q-63.5 -51 -78 -70.5 q-14.5 -19.5 -14.5 -47.5 q0 -59 85 -59 q60 0 123 12 l21 4 l7 -101 q-86 -35 -182 -35 ZM315 500 l0 -161 l-144 0 l0 161 l144 0 Z" /><glyph glyph-name="Agrave" unicode="à" d="M17 0 l153 680 l262 0 l153 -680 l-138 0 l-27 123 l-238 0 l-27 -123 l-138 0 ZM277 566 l-69 -323 l186 0 l-69 323 l-48 0 ZM183 945 l252 -106 l-33 -93 l-260 79 l41 120 Z" /><glyph glyph-name="Aacute" unicode="á" d="M17 0 l153 680 l262 0 l153 -680 l-138 0 l-27 123 l-238 0 l-27 -123 l-138 0 ZM277 566 l-69 -323 l186 0 l-69 323 l-48 0 ZM162 839 l252 106 l41 -120 l-260 -79 l-33 93 Z" /><glyph glyph-name="Acircumflex" unicode="â" d="M17 0 l153 680 l262 0 l153 -680 l-138 0 l-27 123 l-238 0 l-27 -123 l-138 0 ZM277 566 l-69 -323 l186 0 l-69 323 l-48 0 ZM107 765 l134 149 l117 0 l134 -149 l-142 0 l-49 56 l-52 -56 l-142 0 Z" /><glyph glyph-name="Atilde" unicode="ã" d="M17 0 l153 680 l262 0 l153 -680 l-138 0 l-27 123 l-238 0 l-27 -123 l-138 0 ZM277 566 l-69 -323 l186 0 l-69 323 l-48 0 ZM434 777.5 q-31 -19.5 -57 -19.5 q-26 0 -89.5 23 q-63.5 23 -76.5 23 q-25 0 -67 -32 l-14 -10 l-29 96 q20 24 51.5 44 q31.5 20 61 20 q29.5 0 90.5 -23 q61 -23 72 -23 q23 0 66 32 l15 10 l29 -97 q-21 -24 -52 -43.5 Z" /><glyph glyph-name="Adieresis" unicode="ä" d="M17 0 l153 680 l262 0 l153 -680 l-138 0 l-27 123 l-238 0 l-27 -123 l-138 0 ZM277 566 l-69 -323 l186 0 l-69 323 l-48 0 ZM129 764 l0 132 l128 0 l0 -132 l-128 0 ZM343 764 l0 132 l128 0 l0 -132 l-128 0 Z" /><glyph glyph-name="Aring" unicode="å" d="M451 721 q0 -31 -15 -59 l149 -662 l-138 0 l-27 123 l-238 0 l-27 -123 l-138 0 l149 662 q-15 26 -15 59 q0 59 43 92.5 q43 33.5 107 33.5 q64 0 107 -33.5 q43 -33.5 43 -92.5 ZM277 566 l-69 -323 l186 0 l-69 323 l-48 0 ZM301 762 q-27 0 -43 -11 q-16 -11 -16 -29.5 q0 -18.5 14 -29.5 q14 -11 39 -12 l6 0 q27 0 43 11 q16 11 16 30 q0 19 -16 30 q-16 11 -43 11 Z" /><glyph glyph-name="AE" unicode="æ" d="M392 0 l0 116 l-213 0 l-29 -116 l-138 0 l184 690 l634 0 l0 -132 l-302 0 l0 -143 l242 0 l0 -131 l-242 0 l0 -152 l302 0 l0 -132 l-438 0 ZM293 558 l-80 -309 l179 0 l1 309 l-100 0 Z" /><glyph glyph-name="Ccedilla" unicode="ç" d="M315 -37 q64 -1 93.5 -19 q29.5 -18 29.5 -73 q0 -55 -29 -83.5 q-29 -28.5 -82 -28.5 q-43 0 -79 8 l-14 3 l4 78 q31 -1 48 -1 q38 0 38 26 q0 22 -38 22 l-24 0 l0 95 q-124 12 -169.5 94 q-45.5 82 -45.5 267.5 q0 185.5 55.5 263 q55.5 77.5 204.5 77.5 q86 0 199 -27 l-4 -110 q-99 15 -164.5 15 q-65.5 0 -93.5 -17.5 q-28 -17.5 -41.5 -66.5 q-13.5 -49 -13.5 -167 q0 -118 27.5 -163.5 q27.5 -45.5 110 -45.5 q82.5 0 175.5 14 l3 -113 q-94 -21 -190 -23 l0 -25 Z" /><glyph glyph-name="Egrave" unicode="è" d="M74 0 l0 680 l440 0 l0 -120 l-302 0 l0 -159 l242 0 l0 -118 l-242 0 l0 -163 l302 0 l0 -120 l-440 0 ZM180 945 l252 -106 l-33 -93 l-260 79 l41 120 Z" /><glyph glyph-name="Eacute" unicode="é" d="M74 0 l0 680 l440 0 l0 -120 l-302 0 l0 -159 l242 0 l0 -118 l-242 0 l0 -163 l302 0 l0 -120 l-440 0 ZM154 839 l252 106 l41 -120 l-260 -79 l-33 93 Z" /><glyph glyph-name="Ecircumflex" unicode="ê" d="M74 0 l0 680 l440 0 l0 -120 l-302 0 l0 -159 l242 0 l0 -118 l-242 0 l0 -163 l302 0 l0 -120 l-440 0 ZM105 765 l134 149 l117 0 l134 -149 l-142 0 l-49 56 l-52 -56 l-142 0 Z" /><glyph glyph-name="Edieresis" unicode="ë" d="M74 0 l0 680 l440 0 l0 -120 l-302 0 l0 -159 l242 0 l0 -118 l-242 0 l0 -163 l302 0 l0 -120 l-440 0 ZM123 764 l0 132 l128 0 l0 -132 l-128 0 ZM337 764 l0 132 l128 0 l0 -132 l-128 0 Z" /><glyph glyph-name="Igrave" unicode="ì" d="M74 0 l0 680 l138 0 l0 -680 l-138 0 ZM17 945 l252 -106 l-33 -93 l-260 79 l41 120 Z" /><glyph glyph-name="Iacute" unicode="í" d="M74 0 l0 680 l138 0 l0 -680 l-138 0 ZM7 839 l252 106 l41 -120 l-260 -79 l-33 93 Z" /><glyph glyph-name="Icircumflex" unicode="î" d="M74 0 l0 680 l138 0 l0 -680 l-138 0 ZM-50 765 l134 149 l117 0 l134 -149 l-142 0 l-49 56 l-52 -56 l-142 0 Z" /><glyph glyph-name="Idieresis" unicode="ï" d="M74 0 l0 680 l138 0 l0 -680 l-138 0 ZM-28 764 l0 132 l128 0 l0 -132 l-128 0 ZM186 764 l0 132 l128 0 l0 -132 l-128 0 Z" /><glyph glyph-name="Eth" unicode="ð" d="M25 277 l0 132 l54 0 l0 281 l227 0 q88 0 145 -19 q57 -19 88.5 -62.5 q31.5 -43.5 43.5 -102 q12 -58.5 12 -151 q0 -92.5 -11 -153.5 q-11 -61 -41.5 -109.5 q-30.5 -48.5 -88.5 -70.5 q-58 -22 -148 -22 l-227 0 l0 277 l-54 0 ZM453 354 q0 43 -1.5 68 q-1.5 25 -6.5 50 q-5 25 -15 39.5 q-10 14.5 -26 26.5 q-31 21 -98 21 l-91 0 l0 -150 l130 0 l0 -132 l-130 0 l0 -146 l91 0 q75 0 110 38 q37 41 37 185 Z" /><glyph glyph-name="Ntilde" unicode="ñ" d="M74 0 l0 680 l233 0 l164 -560 l10 0 l0 560 l138 0 l0 -680 l-227 0 l-170 560 l-10 0 l0 -560 l-138 0 ZM482 777.5 q-31 -19.5 -57 -19.5 q-26 0 -89.5 23 q-63.5 23 -76.5 23 q-25 0 -67 -32 l-14 -10 l-29 96 q20 24 51.5 44 q31.5 20 61 20 q29.5 0 90.5 -23 q61 -23 72 -23 q23 0 66 32 l15 10 l29 -97 q-21 -24 -52 -43.5 Z" /><glyph glyph-name="Ograve" unicode="ò" d="M215.5 160.5 q29.5 -52.5 110.5 -52.5 q81 0 110.5 52.5 q29.5 52.5 29.5 176 q0 123.5 -30 179.5 q-30 56 -110 56 q-80 0 -110 -56 q-30 -56 -30 -179.5 q0 -123.5 29.5 -176 ZM544.5 72.5 q-63.5 -84.5 -218.5 -84.5 q-155 0 -218.5 84.5 q-63.5 84.5 -63.5 264.5 q0 180 63.5 267.5 q63.5 87.5 218.5 87.5 q155 0 218.5 -87.5 q63.5 -87.5 63.5 -267.5 q0 -180 -63.5 -264.5 ZM204 945 l252 -106 l-33 -93 l-260 79 l41 120 Z" /><glyph glyph-name="Oacute" unicode="ó" d="M215.5 160.5 q29.5 -52.5 110.5 -52.5 q81 0 110.5 52.5 q29.5 52.5 29.5 176 q0 123.5 -30 179.5 q-30 56 -110 56 q-80 0 -110 -56 q-30 -56 -30 -179.5 q0 -123.5 29.5 -176 ZM544.5 72.5 q-63.5 -84.5 -218.5 -84.5 q-155 0 -218.5 84.5 q-63.5 84.5 -63.5 264.5 q0 180 63.5 267.5 q63.5 87.5 218.5 87.5 q155 0 218.5 -87.5 q63.5 -87.5 63.5 -267.5 q0 -180 -63.5 -264.5 ZM167 839 l252 106 l41 -120 l-260 -79 l-33 93 Z" /><glyph glyph-name="Ocircumflex" unicode="ô" d="M215.5 160.5 q29.5 -52.5 110.5 -52.5 q81 0 110.5 52.5 q29.5 52.5 29.5 176 q0 123.5 -30 179.5 q-30 56 -110 56 q-80 0 -110 -56 q-30 -56 -30 -179.5 q0 -123.5 29.5 -176 ZM544.5 72.5 q-63.5 -84.5 -218.5 -84.5 q-155 0 -218.5 84.5 q-63.5 84.5 -63.5 264.5 q0 180 63.5 267.5 q63.5 87.5 218.5 87.5 q155 0 218.5 -87.5 q63.5 -87.5 63.5 -267.5 q0 -180 -63.5 -264.5 ZM135 765 l134 149 l117 0 l134 -149 l-142 0 l-49 56 l-52 -56 l-142 0 Z" /><glyph glyph-name="Otilde" unicode="õ" d="M215.5 160.5 q29.5 -52.5 110.5 -52.5 q81 0 110.5 52.5 q29.5 52.5 29.5 176 q0 123.5 -30 179.5 q-30 56 -110 56 q-80 0 -110 -56 q-30 -56 -30 -179.5 q0 -123.5 29.5 -176 ZM544.5 72.5 q-63.5 -84.5 -218.5 -84.5 q-155 0 -218.5 84.5 q-63.5 84.5 -63.5 264.5 q0 180 63.5 267.5 q63.5 87.5 218.5 87.5 q155 0 218.5 -87.5 q63.5 -87.5 63.5 -267.5 q0 -180 -63.5 -264.5 ZM466 777.5 q-31 -19.5 -57 -19.5 q-26 0 -89.5 23 q-63.5 23 -76.5 23 q-25 0 -67 -32 l-14 -10 l-29 96 q20 24 51.5 44 q31.5 20 61 20 q29.5 0 90.5 -23 q61 -23 72 -23 q23 0 66 32 l15 10 l29 -97 q-21 -24 -52 -43.5 Z" /><glyph glyph-name="Odieresis" unicode="ö" d="M215.5 160.5 q29.5 -52.5 110.5 -52.5 q81 0 110.5 52.5 q29.5 52.5 29.5 176 q0 123.5 -30 179.5 q-30 56 -110 56 q-80 0 -110 -56 q-30 -56 -30 -179.5 q0 -123.5 29.5 -176 ZM544.5 72.5 q-63.5 -84.5 -218.5 -84.5 q-155 0 -218.5 84.5 q-63.5 84.5 -63.5 264.5 q0 180 63.5 267.5 q63.5 87.5 218.5 87.5 q155 0 218.5 -87.5 q63.5 -87.5 63.5 -267.5 q0 -180 -63.5 -264.5 ZM155 764 l0 132 l128 0 l0 -132 l-128 0 ZM369 764 l0 132 l128 0 l0 -132 l-128 0 Z" /><glyph glyph-name="multiply" unicode="×" d="M142 473 l138 -141 l140 143 l84 -85 l-143 -140 l143 -139 l-85 -85 l-139 142 l-139 -141 l-85 84 l142 139 l-141 138 l85 85 Z" /><glyph glyph-name="Oslash" unicode="ø" d="M326 -12 q-49 0 -96 10 l-58 -125 l-98 49 l58 124 q-88 78 -88 290 q0 181 63.5 268.5 q63.5 87.5 218.5 87.5 q58 0 101 -12 l61 130 l100 -43 l-65 -140 q85 -82 85 -291 q0 -179 -63.5 -263.5 q-63.5 -84.5 -218.5 -84.5 ZM326 572 q-80 0 -110 -56 q-30 -56 -30 -164.5 q0 -108.5 15 -157.5 l173 371 q-24 7 -48 7 ZM326 108 q81 0 110.5 52.5 q29.5 52.5 29.5 158.5 q0 106 -14 156 l-169 -363 q17 -4 43 -4 Z" /><glyph glyph-name="Ugrave" unicode="ù" d="M206 227 q0 -119 121 -119 q121 0 121 119 l0 453 l138 0 l0 -450 q0 -125 -64.5 -183.5 q-64.5 -58.5 -194.5 -58.5 q-130 0 -194.5 58.5 q-64.5 58.5 -64.5 183.5 l0 450 l138 0 l0 -453 ZM216 945 l252 -106 l-33 -93 l-260 79 l41 120 Z" /><glyph glyph-name="Uacute" unicode="ú" d="M206 227 q0 -119 121 -119 q121 0 121 119 l0 453 l138 0 l0 -450 q0 -125 -64.5 -183.5 q-64.5 -58.5 -194.5 -58.5 q-130 0 -194.5 58.5 q-64.5 58.5 -64.5 183.5 l0 450 l138 0 l0 -453 ZM175 839 l252 106 l41 -120 l-260 -79 l-33 93 Z" /><glyph glyph-name="Ucircumflex" unicode="û" d="M206 227 q0 -119 121 -119 q121 0 121 119 l0 453 l138 0 l0 -450 q0 -125 -64.5 -183.5 q-64.5 -58.5 -194.5 -58.5 q-130 0 -194.5 58.5 q-64.5 58.5 -64.5 183.5 l0 450 l138 0 l0 -453 ZM135 765 l134 149 l117 0 l134 -149 l-142 0 l-49 56 l-52 -56 l-142 0 Z" /><glyph glyph-name="Udieresis" unicode="ü" d="M206 227 q0 -119 121 -119 q121 0 121 119 l0 453 l138 0 l0 -450 q0 -125 -64.5 -183.5 q-64.5 -58.5 -194.5 -58.5 q-130 0 -194.5 58.5 q-64.5 58.5 -64.5 183.5 l0 450 l138 0 l0 -453 ZM156 764 l0 132 l128 0 l0 -132 l-128 0 ZM370 764 l0 132 l128 0 l0 -132 l-128 0 Z" /><glyph glyph-name="Yacute" unicode="ý" d="M348 0 l-138 0 l0 275 l-210 405 l153 0 l125 -271 l125 271 l153 0 l-208 -405 l0 -275 ZM133 839 l252 106 l41 -120 l-260 -79 l-33 93 Z" /><glyph glyph-name="Thorn" unicode="þ" d="M323 233 q51 0 78 31.5 q27 31.5 27 88.5 q0 107 -105 107 l-111 0 l0 -227 l111 0 ZM324 99 l-112 0 l0 -99 l-138 0 l0 690 l138 0 l0 -98 l112 0 q244 0 244 -239 q0 -121 -62.5 -187.5 q-62.5 -66.5 -181.5 -66.5 Z" /><glyph glyph-name="germandbls" unicode="ß" d="M196 0 l-134 0 l0 522 q0 102 53.5 146 q53.5 44 173.5 44 q120 0 177 -37 q57 -37 57 -120 q0 -54 -21.5 -79 q-21.5 -25 -65.5 -44.5 q-44 -19.5 -55 -28.5 q-11 -9 -11 -23 q0 -14 16 -26 q16 -12 82.5 -42.5 q66.5 -30.5 93 -60 q26.5 -29.5 26.5 -87.5 q0 -101 -45.5 -138.5 q-45.5 -37.5 -156.5 -37.5 q-54 0 -130 18 l-24 5 l4 107 q97 -12 134 -12 q80 0 80 38 q0 23 -15 35 q-15 12 -81 40 q-66 28 -94 61.5 q-28 33.5 -28 84.5 q0 51 18 79 q18 28 62 46 q44 18 58.5 29 q14.5 11 14.5 32 q0 21 -20 32 q-20 11 -73.5 11 q-53.5 0 -74.5 -17.5 q-21 -17.5 -21 -57.5 l0 -519 Z" /><glyph glyph-name="agrave" unicode="à" d="M445 344 l0 -208 q2 -24 8 -33.5 q6 -9.5 25 -13.5 l-4 -101 q-51 0 -81.5 7 q-30.5 7 -61.5 28 q-72 -35 -147 -35 q-155 0 -155 164 q0 80 43 113.5 q43 33.5 132 39.5 l107 8 l0 31 q0 31 -14 42.5 q-14 11.5 -45 11.5 l-188 -8 l-4 93 q107 29 203.5 29 q96.5 0 139 -40 q42.5 -40 42.5 -128 ZM220 212 q-56 -5 -56 -60 q0 -55 49 -55 q38 0 83 12 l15 4 l0 107 l-91 -8 ZM143 753 l252 -102 l-30 -87 l-262 74 l40 115 Z" /><glyph glyph-name="aacute" unicode="á" d="M445 344 l0 -208 q2 -24 8 -33.5 q6 -9.5 25 -13.5 l-4 -101 q-51 0 -81.5 7 q-30.5 7 -61.5 28 q-72 -35 -147 -35 q-155 0 -155 164 q0 80 43 113.5 q43 33.5 132 39.5 l107 8 l0 31 q0 31 -14 42.5 q-14 11.5 -45 11.5 l-188 -8 l-4 93 q107 29 203.5 29 q96.5 0 139 -40 q42.5 -40 42.5 -128 ZM220 212 q-56 -5 -56 -60 q0 -55 49 -55 q38 0 83 12 l15 4 l0 107 l-91 -8 ZM96 651 l252 102 l40 -115 l-262 -74 l-30 87 Z" /><glyph glyph-name="acircumflex" unicode="â" d="M445 344 l0 -208 q2 -24 8 -33.5 q6 -9.5 25 -13.5 l-4 -101 q-51 0 -81.5 7 q-30.5 7 -61.5 28 q-72 -35 -147 -35 q-155 0 -155 164 q0 80 43 113.5 q43 33.5 132 39.5 l107 8 l0 31 q0 31 -14 42.5 q-14 11.5 -45 11.5 l-188 -8 l-4 93 q107 29 203.5 29 q96.5 0 139 -40 q42.5 -40 42.5 -128 ZM220 212 q-56 -5 -56 -60 q0 -55 49 -55 q38 0 83 12 l15 4 l0 107 l-91 -8 ZM83 580 l126 151 l84 0 l128 -151 l-123 0 l-46 67 l-46 -67 l-123 0 Z" /><glyph glyph-name="atilde" unicode="ã" d="M445 344 l0 -208 q2 -24 8 -33.5 q6 -9.5 25 -13.5 l-4 -101 q-51 0 -81.5 7 q-30.5 7 -61.5 28 q-72 -35 -147 -35 q-155 0 -155 164 q0 80 43 113.5 q43 33.5 132 39.5 l107 8 l0 31 q0 31 -14 42.5 q-14 11.5 -45 11.5 l-188 -8 l-4 93 q107 29 203.5 29 q96.5 0 139 -40 q42.5 -40 42.5 -128 ZM220 212 q-56 -5 -56 -60 q0 -55 49 -55 q38 0 83 12 l15 4 l0 107 l-91 -8 ZM378 629.5 q-10 -10.5 -38 -27.5 q-28 -17 -50.5 -17 q-22.5 0 -68.5 18 q-46 18 -59 18 q-29 0 -66 -23 l-13 -8 l-29 75 q20 23 50.5 41.5 q30.5 18.5 53 18.5 q22.5 0 69 -18 q46.5 -18 58.5 -18 q24 0 66 25 l14 9 l29 -76 q-6 -7 -16 -17.5 Z" /><glyph glyph-name="adieresis" unicode="ä" d="M445 344 l0 -208 q2 -24 8 -33.5 q6 -9.5 25 -13.5 l-4 -101 q-51 0 -81.5 7 q-30.5 7 -61.5 28 q-72 -35 -147 -35 q-155 0 -155 164 q0 80 43 113.5 q43 33.5 132 39.5 l107 8 l0 31 q0 31 -14 42.5 q-14 11.5 -45 11.5 l-188 -8 l-4 93 q107 29 203.5 29 q96.5 0 139 -40 q42.5 -40 42.5 -128 ZM220 212 q-56 -5 -56 -60 q0 -55 49 -55 q38 0 83 12 l15 4 l0 107 l-91 -8 ZM65 596 l0 132 l128 0 l0 -132 l-128 0 ZM281 596 l0 132 l128 0 l0 -132 l-128 0 Z" /><glyph glyph-name="aring" unicode="å" d="M445 344 l0 -208 q2 -24 8 -33.5 q6 -9.5 25 -13.5 l-4 -101 q-51 0 -81.5 7 q-30.5 7 -61.5 28 q-72 -35 -147 -35 q-155 0 -155 164 q0 80 43 113.5 q43 33.5 132 39.5 l107 8 l0 31 q0 31 -14 42.5 q-14 11.5 -45 11.5 l-188 -8 l-4 93 q107 29 203.5 29 q96.5 0 139 -40 q42.5 -40 42.5 -128 ZM220 212 q-56 -5 -56 -60 q0 -55 49 -55 q38 0 83 12 l15 4 l0 107 l-91 -8 ZM264.5 521 q-49.5 0 -83 33.5 q-33.5 33.5 -33.5 83 q0 49.5 33.5 83.5 q33.5 34 83 34 q49.5 0 83.5 -34 q34 -34 34 -83.5 q0 -49.5 -34 -83 q-34 -33.5 -83.5 -33.5 ZM233 670.5 q-13 -12.5 -13 -32.5 q0 -20 13 -33 q13 -13 33 -13 q20 0 32.5 13 q12.5 13 12.5 33 q0 20 -12.5 32.5 q-12.5 12.5 -32.5 12.5 q-20 0 -33 -12.5 Z" /><glyph glyph-name="ae" unicode="æ" d="M445 192 q1 -43 24 -62 q23 -19 68 -19 q68 0 166 7 l28 2 l2 -104 q-115 -28 -212.5 -28 q-97.5 0 -148.5 48 l-23 -11 q-84 -37 -164 -37 q-80 0 -118 43.5 q-38 43.5 -38 122 q0 78.5 43.5 113 q43.5 34.5 130.5 39.5 l108 7 l0 25 q0 20 -14 32.5 q-14 12.5 -41 12.5 q-72 0 -157 -8 l-32 -3 l-4 117 q133 22 212.5 22 q79.5 0 122.5 -37 q52 37 133 37 q218 0 218 -225 l-10 -94 l-294 0 ZM311 118 l-1 93 l-90 -4 q-56 -3 -56 -51 q0 -53 41 -53 q40 0 89 11 l17 4 ZM445 295 l172 0 q0 53 -19.5 75 q-19.5 22 -67 22 q-47.5 0 -66.5 -23 q-19 -23 -19 -74 Z" /><glyph glyph-name="ccedilla" unicode="ç" d="M255 -37 q64 -1 93.5 -19 q29.5 -18 29.5 -73 q0 -55 -29 -83.5 q-29 -28.5 -82 -28.5 q-43 0 -79 8 l-14 3 l4 78 q31 -1 48 -1 q38 0 38 26 q0 22 -38 22 l-24 0 l0 96 q-87 11 -125.5 74 q-38.5 63 -38.5 193.5 q0 130.5 50 192 q50 61.5 161 61.5 q52 0 133 -16 l27 -6 l-4 -106 q-79 8 -117 8 q-69 0 -91.5 -29.5 q-22.5 -29.5 -22.5 -111.5 q0 -82 22.5 -112.5 q22.5 -30.5 92.5 -30.5 l116 8 l4 -107 q-97 -19 -154 -21 l0 -25 Z" /><glyph glyph-name="egrave" unicode="è" d="M172 193 q1 -46 24.5 -66.5 q23.5 -20.5 67.5 -20.5 q93 0 166 6 l28 3 l2 -99 q-115 -28 -208 -28 q-113 0 -164 60 q-51 60 -51 195 q0 269 221 269 q218 0 218 -226 l-10 -93 l-294 0 ZM344 295 q0 60 -19 83.5 q-19 23.5 -66.5 23.5 q-47.5 0 -67 -24.5 q-19.5 -24.5 -20.5 -82.5 l173 0 ZM150 753 l252 -102 l-30 -87 l-262 74 l40 115 Z" /><glyph glyph-name="eacute" unicode="é" d="M172 193 q1 -46 24.5 -66.5 q23.5 -20.5 67.5 -20.5 q93 0 166 6 l28 3 l2 -99 q-115 -28 -208 -28 q-113 0 -164 60 q-51 60 -51 195 q0 269 221 269 q218 0 218 -226 l-10 -93 l-294 0 ZM344 295 q0 60 -19 83.5 q-19 23.5 -66.5 23.5 q-47.5 0 -67 -24.5 q-19.5 -24.5 -20.5 -82.5 l173 0 ZM105 651 l252 102 l40 -115 l-262 -74 l-30 87 Z" /><glyph glyph-name="ecircumflex" unicode="ê" d="M172 193 q1 -46 24.5 -66.5 q23.5 -20.5 67.5 -20.5 q93 0 166 6 l28 3 l2 -99 q-115 -28 -208 -28 q-113 0 -164 60 q-51 60 -51 195 q0 269 221 269 q218 0 218 -226 l-10 -93 l-294 0 ZM344 295 q0 60 -19 83.5 q-19 23.5 -66.5 23.5 q-47.5 0 -67 -24.5 q-19.5 -24.5 -20.5 -82.5 l173 0 ZM89 580 l126 151 l84 0 l128 -151 l-123 0 l-46 67 l-46 -67 l-123 0 Z" /><glyph glyph-name="edieresis" unicode="ë" d="M172 193 q1 -46 24.5 -66.5 q23.5 -20.5 67.5 -20.5 q93 0 166 6 l28 3 l2 -99 q-115 -28 -208 -28 q-113 0 -164 60 q-51 60 -51 195 q0 269 221 269 q218 0 218 -226 l-10 -93 l-294 0 ZM344 295 q0 60 -19 83.5 q-19 23.5 -66.5 23.5 q-47.5 0 -67 -24.5 q-19.5 -24.5 -20.5 -82.5 l173 0 ZM84 596 l0 132 l128 0 l0 -132 l-128 0 ZM300 596 l0 132 l128 0 l0 -132 l-128 0 Z" /><glyph glyph-name="igrave" unicode="ì" d="M62 0 l0 500 l134 0 l0 -500 l-134 0 ZM-19 753 l252 -102 l-30 -87 l-262 74 l40 115 Z" /><glyph glyph-name="iacute" unicode="í" d="M31 651 l252 102 l40 -115 l-262 -74 l-30 87 ZM62 500 l134 0 l0 -500 l-134 0 l0 500 Z" /><glyph glyph-name="icircumflex" unicode="î" d="M62 500 l134 0 l0 -500 l-134 0 l0 500 ZM-45 580 l126 151 l84 0 l128 -151 l-123 0 l-46 67 l-46 -67 l-123 0 Z" /><glyph glyph-name="idieresis" unicode="ï" d="M62 500 l134 0 l0 -500 l-134 0 l0 500 ZM-48 596 l0 132 l128 0 l0 -132 l-128 0 ZM168 596 l0 132 l128 0 l0 -132 l-128 0 Z" /><glyph glyph-name="eth" unicode="ð" d="M405 625 q123 -88 123 -274.5 q0 -186.5 -60 -273 q-60 -86.5 -195 -86.5 q-235 0 -235 225 q0 104 54.5 163 q54.5 59 163.5 59 q62 0 113 -18 l17 -6 q-5 47 -25 80.5 q-20 33.5 -64 58.5 l-129 -86 l-54 76 l76 51 q-46 12 -108 24 l18 94 q121 -9 209 -39 l96 64 l54 -76 l-54 -36 ZM264 320 q-41 0 -62.5 -30.5 q-21.5 -30.5 -21.5 -73.5 q0 -105 93 -105 q56 0 84.5 44 q28.5 44 28.5 143 q-50 22 -122 22 Z" /><glyph glyph-name="ntilde" unicode="ñ" d="M62 0 l0 500 l133 0 l0 -28 l19 10 q18 10 49.5 20 q31.5 10 56.5 10 q100 0 138 -59 q38 -59 38 -182 q0 0 0 -271 l-134 0 l0 267 q0 64 -15 94.5 q-15 30.5 -61 30.5 q-46 0 -90 -18 l0 -374 l-134 0 ZM435 629.5 q-10 -10.5 -38 -27.5 q-28 -17 -50.5 -17 q-22.5 0 -68.5 18 q-46 18 -60 18 q-28 0 -65 -23 l-13 -8 l-29 75 q20 23 50.5 41.5 q30.5 18.5 53 18.5 q22.5 0 69 -18 q46.5 -18 58.5 -18 q24 0 66 25 l14 9 l29 -76 q-6 -7 -16 -17.5 Z" /><glyph glyph-name="ograve" unicode="ò" d="M89 443.5 q53 68.5 177 68.5 q124 0 177 -68.5 q53 -68.5 53 -192.5 q0 -263 -230 -263 q-230 0 -230 263 q0 124 53 192.5 ZM192.5 138 q20.5 -36 73.5 -36 q53 0 73.5 36 q20.5 36 20.5 113 q0 77 -20.5 112 q-20.5 35 -73.5 35 q-53 0 -73.5 -35 q-20.5 -35 -20.5 -112 q0 -77 20.5 -113 ZM163 753 l252 -102 l-30 -87 l-262 74 l40 115 Z" /><glyph glyph-name="oacute" unicode="ó" d="M89 443.5 q53 68.5 177 68.5 q124 0 177 -68.5 q53 -68.5 53 -192.5 q0 -263 -230 -263 q-230 0 -230 263 q0 124 53 192.5 ZM192.5 138 q20.5 -36 73.5 -36 q53 0 73.5 36 q20.5 36 20.5 113 q0 77 -20.5 112 q-20.5 35 -73.5 35 q-53 0 -73.5 -35 q-20.5 -35 -20.5 -112 q0 -77 20.5 -113 ZM116 651 l252 102 l40 -115 l-262 -74 l-30 87 Z" /><glyph glyph-name="ocircumflex" unicode="ô" d="M89 443.5 q53 68.5 177 68.5 q124 0 177 -68.5 q53 -68.5 53 -192.5 q0 -263 -230 -263 q-230 0 -230 263 q0 124 53 192.5 ZM192.5 138 q20.5 -36 73.5 -36 q53 0 73.5 36 q20.5 36 20.5 113 q0 77 -20.5 112 q-20.5 35 -73.5 35 q-53 0 -73.5 -35 q-20.5 -35 -20.5 -112 q0 -77 20.5 -113 ZM91 580 l126 151 l84 0 l128 -151 l-123 0 l-46 67 l-46 -67 l-123 0 Z" /><glyph glyph-name="otilde" unicode="õ" d="M89 443.5 q53 68.5 177 68.5 q124 0 177 -68.5 q53 -68.5 53 -192.5 q0 -263 -230 -263 q-230 0 -230 263 q0 124 53 192.5 ZM192.5 138 q20.5 -36 73.5 -36 q53 0 73.5 36 q20.5 36 20.5 113 q0 77 -20.5 112 q-20.5 35 -73.5 35 q-53 0 -73.5 -35 q-20.5 -35 -20.5 -112 q0 -77 20.5 -113 ZM415 629.5 q-10 -10.5 -38 -27.5 q-28 -17 -50.5 -17 q-22.5 0 -68.5 18 q-46 18 -60 18 q-28 0 -65 -23 l-13 -8 l-29 75 q20 23 50.5 41.5 q30.5 18.5 53 18.5 q22.5 0 69 -18 q46.5 -18 58.5 -18 q24 0 66 25 l14 9 l29 -76 q-6 -7 -16 -17.5 Z" /><glyph glyph-name="odieresis" unicode="ö" d="M89 443.5 q53 68.5 177 68.5 q124 0 177 -68.5 q53 -68.5 53 -192.5 q0 -263 -230 -263 q-230 0 -230 263 q0 124 53 192.5 ZM192.5 138 q20.5 -36 73.5 -36 q53 0 73.5 36 q20.5 36 20.5 113 q0 77 -20.5 112 q-20.5 35 -73.5 35 q-53 0 -73.5 -35 q-20.5 -35 -20.5 -112 q0 -77 20.5 -113 ZM93 596 l0 132 l128 0 l0 -132 l-128 0 ZM309 596 l0 132 l128 0 l0 -132 l-128 0 Z" /><glyph glyph-name="divide" unicode="÷" d="M213 352 l0 132 l132 0 l0 -132 l-132 0 ZM50 191 l0 120 l460 0 l0 -120 l-460 0 ZM213 17 l0 132 l132 0 l0 -132 l-132 0 Z" /><glyph glyph-name="oslash" unicode="ø" d="M266 512 q28 0 56 -5 l40 100 l81 -30 l-41 -98 q94 -59 94 -228 q0 -263 -230 -263 q-34 0 -63 6 l-41 -102 l-80 30 l43 103 q-89 60 -89 226 q0 124 53 192.5 q53 68.5 177 68.5 ZM266 102 q53 0 73.5 36 q20.5 36 20.5 107 q0 71 -14 105 l-100 -247 q6 -1 20 -1 ZM279 397 l-13 1 q-53 0 -73.5 -35 q-20.5 -35 -20.5 -105 q0 -70 12 -102 l95 241 Z" /><glyph glyph-name="ugrave" unicode="ù" d="M357 500 l134 0 l0 -500 l-133 0 l0 28 q-72 -40 -125 -40 q-104 0 -140 57.5 q-36 57.5 -36 192.5 l0 262 l134 0 l0 -264 q0 -74 12 -101 q12 -27 58 -27 q44 0 83 14 l13 4 l0 374 ZM138 753 l252 -102 l-30 -87 l-262 74 l40 115 Z" /><glyph glyph-name="uacute" unicode="ú" d="M491 500 l0 -500 l-133 0 l0 28 l-20 -10 q-19 -10 -50 -20 q-31 -10 -55 -10 q-104 0 -140 57.5 q-36 57.5 -36 192.5 q0 0 0 262 l134 0 l0 -264 q0 -74 12 -101 q12 -27 60 -27 q48 0 94 18 l0 374 l134 0 ZM130 651 l252 102 l40 -115 l-262 -74 l-30 87 Z" /><glyph glyph-name="ucircumflex" unicode="û" d="M491 500 l0 -500 l-133 0 l0 28 l-20 -10 q-19 -10 -50 -20 q-31 -10 -55 -10 q-104 0 -140 57.5 q-36 57.5 -36 192.5 q0 0 0 262 l134 0 l0 -264 q0 -74 12 -101 q12 -27 60 -27 q48 0 94 18 l0 374 l134 0 ZM82 580 l126 151 l84 0 l128 -151 l-123 0 l-46 67 l-46 -67 l-123 0 Z" /><glyph glyph-name="udieresis" unicode="ü" d="M491 500 l0 -500 l-133 0 l0 28 l-20 -10 q-19 -10 -50 -20 q-31 -10 -55 -10 q-104 0 -140 57.5 q-36 57.5 -36 192.5 q0 0 0 262 l134 0 l0 -264 q0 -74 12 -101 q12 -27 60 -27 q48 0 94 18 l0 374 l134 0 ZM106 596 l0 132 l128 0 l0 -132 l-128 0 ZM322 596 l0 132 l128 0 l0 -132 l-128 0 Z" /><glyph glyph-name="yacute" unicode="ý" d="M16 500 l132 0 l91 -386 l23 0 l91 386 l132 0 l-176 -710 l-131 0 l55 210 l-94 0 l-123 500 ZM122 651 l252 102 l40 -115 l-262 -74 l-30 87 Z" /><glyph glyph-name="thorn" unicode="þ" d="M269 104 q58 0 79.5 34 q21.5 34 21.5 117 q0 137 -84 137 q-40 0 -76 -10 l-14 -3 l0 -269 q45 -6 73 -6 ZM304 512 q105 0 153.5 -57.5 q48.5 -57.5 48.5 -205.5 q0 -148 -53 -204.5 q-53 -56.5 -174 -56.5 q-33 0 -71 6 l-12 2 l0 -206 l-134 0 l0 910 l134 0 l0 -215 q64 27 108 27 Z" /><glyph glyph-name="ydieresis" unicode="ÿ" d="M16 500 l132 0 l91 -386 l23 0 l91 386 l132 0 l-176 -710 l-131 0 l55 210 l-94 0 l-123 500 ZM79 596 l0 132 l128 0 l0 -132 l-128 0 ZM295 596 l0 132 l128 0 l0 -132 l-128 0 Z" /><glyph glyph-name="Amacron" unicode="&#x100;" d="M17 0 l153 680 l262 0 l153 -680 l-138 0 l-27 123 l-238 0 l-27 -123 l-138 0 ZM277 566 l-69 -323 l186 0 l-69 323 l-48 0 ZM124 782 l0 98 l347 0 l0 -98 l-347 0 Z" /><glyph glyph-name="amacron" unicode="&#x101;" d="M445 344 l0 -208 q2 -24 8 -33.5 q6 -9.5 25 -13.5 l-4 -101 q-51 0 -81.5 7 q-30.5 7 -61.5 28 q-72 -35 -147 -35 q-155 0 -155 164 q0 80 43 113.5 q43 33.5 132 39.5 l107 8 l0 31 q0 31 -14 42.5 q-14 11.5 -45 11.5 l-188 -8 l-4 93 q107 29 203.5 29 q96.5 0 139 -40 q42.5 -40 42.5 -128 ZM220 212 q-56 -5 -56 -60 q0 -55 49 -55 q38 0 83 12 l15 4 l0 107 l-91 -8 ZM107 597 l0 100 l287 0 l0 -100 l-287 0 Z" /><glyph glyph-name="Abreve" unicode="&#x102;" d="M17 0 l153 680 l262 0 l153 -680 l-138 0 l-27 123 l-238 0 l-27 -123 l-138 0 ZM277 566 l-69 -323 l186 0 l-69 323 l-48 0 ZM232 910 q4 -25 21 -41 q17 -16 44.5 -16 q27.5 0 45 16 q17.5 16 20.5 41 l121 0 q-8 -68 -54.5 -109.5 q-46.5 -41.5 -132.5 -41.5 q-86 0 -132 41.5 q-46 41.5 -54 109.5 l121 0 Z" /><glyph glyph-name="abreve" unicode="&#x103;" d="M445 154 q0 -29 6 -38.5 q6 -9.5 26 -13.5 l-4 -114 q-60 0 -87 7.5 q-27 7.5 -55 26.5 l-23 -8 q-69 -26 -130 -26 q-73 0 -111 43.5 q-38 43.5 -38 122 q0 78.5 42.5 112.5 q42.5 34 131.5 40 l108 7 l0 25 q0 20 -14 32.5 q-14 12.5 -36 12.5 q-74 0 -194 -8 l-4 114 l35 5 q107 17 171 17 q88 0 132 -39.5 q44 -39.5 44 -132.5 l0 -185 ZM164 156 q0 -53 41 -53 q41 0 106 15 l0 93 l-91 -4 q-56 -3 -56 -51 ZM198 748 q7 -44 55.5 -44 q48.5 0 54.5 44 l139 0 q-8 -75 -56.5 -119 q-48.5 -44 -137.5 -44 q-89 0 -137.5 44 q-48.5 44 -56.5 119 l139 0 Z" /><glyph glyph-name="Aogonek" unicode="&#x104;" d="M567 0 q-56 -47 -56 -80.5 q0 -33.5 32 -33.5 l42 4 l12 -95 q-59 -11 -104.5 -11 q-45.5 0 -76 26 q-30.5 26 -30.5 70 q0 68 66 120 l-5 0 l-27 123 l-238 0 l-27 -123 l-138 0 l153 680 l262 0 l153 -680 l-18 0 ZM277 566 l-69 -323 l186 0 l-69 323 l-48 0 Z" /><glyph glyph-name="aogonek" unicode="&#x105;" d="M474 -12 l-38 1 q-44 -41 -44 -70 q0 -33 32 -33 l42 4 l12 -95 q-59 -11 -104.5 -11 q-45.5 0 -76 26 q-30.5 26 -30.5 66 q0 40 20.5 72.5 q20.5 32.5 40.5 47.5 l20 15 l3 -1 l-20 13 q-72 -35 -147 -35 q-155 0 -155 164 q0 80 43 113.5 q43 33.5 132 39.5 l107 8 l0 31 q0 31 -14 42.5 q-14 11.5 -45 11.5 l-188 -8 l-4 93 q107 29 203.5 29 q96.5 0 139 -40 q42.5 -40 42.5 -128 l0 -208 q2 -24 8 -33.5 q6 -9.5 25 -13.5 l-4 -101 ZM220 212 q-56 -5 -56 -60 q0 -55 49 -55 q38 0 83 12 l15 4 l0 107 l-91 -8 Z" /><glyph glyph-name="Cacute" unicode="&#x106;" d="M505 11 q-106 -23 -191 -23 q-85 0 -136 21 q-51 21 -80 67 q-29 46 -40 108 q-11 62 -11 156 q0 197 55.5 274.5 q55.5 77.5 204.5 77.5 q86 0 199 -27 l-4 -110 q-99 15 -164.5 15 q-65.5 0 -93.5 -17.5 q-28 -17.5 -41.5 -66.5 q-13.5 -49 -13.5 -167 q0 -118 27.5 -163.5 q27.5 -45.5 110 -45.5 q82.5 0 175.5 14 l3 -113 ZM147 839 l252 106 l41 -120 l-260 -79 l-33 93 Z" /><glyph glyph-name="cacute" unicode="&#x107;" d="M249 512 q52 0 133 -16 l27 -6 l-4 -106 q-79 8 -117 8 q-69 0 -91.5 -29.5 q-22.5 -29.5 -22.5 -111.5 q0 -82 22.5 -112.5 q22.5 -30.5 92.5 -30.5 l116 8 l4 -107 q-107 -21 -163 -21 q-111 0 -159.5 62.5 q-48.5 62.5 -48.5 200.5 q0 138 50 199.5 q50 61.5 161 61.5 ZM97 651 l252 102 l40 -115 l-262 -74 l-30 87 Z" /><glyph glyph-name="Ccircumflex" unicode="&#x108;" d="M505 11 q-106 -23 -191 -23 q-85 0 -136 21 q-51 21 -80 67 q-29 46 -40 108 q-11 62 -11 156 q0 197 55.5 274.5 q55.5 77.5 204.5 77.5 q86 0 199 -27 l-4 -110 q-99 15 -164.5 15 q-65.5 0 -93.5 -17.5 q-28 -17.5 -41.5 -66.5 q-13.5 -49 -13.5 -167 q0 -118 27.5 -163.5 q27.5 -45.5 110 -45.5 q82.5 0 175.5 14 l3 -113 ZM107 765 l134 149 l117 0 l134 -149 l-142 0 l-49 56 l-52 -56 l-142 0 Z" /><glyph glyph-name="ccircumflex" unicode="&#x109;" d="M249 512 q52 0 133 -16 l27 -6 l-4 -106 q-79 8 -117 8 q-69 0 -91.5 -29.5 q-22.5 -29.5 -22.5 -111.5 q0 -82 22.5 -112.5 q22.5 -30.5 92.5 -30.5 l116 8 l4 -107 q-107 -21 -163 -21 q-111 0 -159.5 62.5 q-48.5 62.5 -48.5 200.5 q0 138 50 199.5 q50 61.5 161 61.5 ZM54 580 l126 151 l84 0 l128 -151 l-123 0 l-46 67 l-46 -67 l-123 0 Z" /><glyph glyph-name="Cdotaccent" unicode="&#x10a;" d="M505 11 q-106 -23 -191 -23 q-85 0 -136 21 q-51 21 -80 67 q-29 46 -40 108 q-11 62 -11 156 q0 197 55.5 274.5 q55.5 77.5 204.5 77.5 q86 0 199 -27 l-4 -110 q-99 15 -164.5 15 q-65.5 0 -93.5 -17.5 q-28 -17.5 -41.5 -66.5 q-13.5 -49 -13.5 -167 q0 -118 27.5 -163.5 q27.5 -45.5 110 -45.5 q82.5 0 175.5 14 l3 -113 ZM219 760 l0 135 l134 0 l0 -135 l-134 0 Z" /><glyph glyph-name="cdotaccent" unicode="&#x10b;" d="M249 512 q52 0 133 -16 l27 -6 l-4 -106 q-79 8 -117 8 q-69 0 -91.5 -29.5 q-22.5 -29.5 -22.5 -111.5 q0 -82 22.5 -112.5 q22.5 -30.5 92.5 -30.5 l116 8 l4 -107 q-107 -21 -163 -21 q-111 0 -159.5 62.5 q-48.5 62.5 -48.5 200.5 q0 138 50 199.5 q50 61.5 161 61.5 ZM189 556 l0 135 l134 0 l0 -135 l-134 0 Z" /><glyph glyph-name="Ccaron" unicode="&#x10c;" d="M505 11 q-106 -23 -191 -23 q-85 0 -136 21 q-51 21 -80 67 q-29 46 -40 108 q-11 62 -11 156 q0 197 55.5 274.5 q55.5 77.5 204.5 77.5 q86 0 199 -27 l-4 -110 q-99 15 -164.5 15 q-65.5 0 -93.5 -17.5 q-28 -17.5 -41.5 -66.5 q-13.5 -49 -13.5 -167 q0 -118 27.5 -163.5 q27.5 -45.5 110 -45.5 q82.5 0 175.5 14 l3 -113 ZM250 765 l-134 149 l142 0 l52 -56 l49 56 l142 0 l-134 -149 l-117 0 Z" /><glyph glyph-name="ccaron" unicode="&#x10d;" d="M249 512 q52 0 133 -16 l27 -6 l-4 -106 q-79 8 -117 8 q-69 0 -91.5 -29.5 q-22.5 -29.5 -22.5 -111.5 q0 -82 22.5 -112.5 q22.5 -30.5 92.5 -30.5 l116 8 l4 -107 q-107 -21 -163 -21 q-111 0 -159.5 62.5 q-48.5 62.5 -48.5 200.5 q0 138 50 199.5 q50 61.5 161 61.5 ZM199 580 l-126 151 l123 0 l46 -67 l46 67 l123 0 l-128 -151 l-84 0 Z" /><glyph glyph-name="Dcaron" unicode="&#x10e;" d="M303 0 l-229 0 l0 680 l229 0 q88 0 145 -18.5 q57 -18.5 88.5 -61 q31.5 -42.5 43.5 -100 q12 -57.5 12 -149.5 q0 -92 -11 -152.5 q-11 -60.5 -41.5 -108 q-30.5 -47.5 -88.5 -69 q-58 -21.5 -148 -21.5 ZM448 270 q2 32 2 88.5 q0 56.5 -4 90.5 q-4 34 -19 62 q-15 28 -44.5 38.5 q-29.5 10.5 -79.5 10.5 l-91 0 l0 -440 l91 0 q75 0 109 38 q29 31 36 112 ZM246 765 l-134 149 l142 0 l52 -56 l49 56 l142 0 l-134 -149 l-117 0 Z" /><glyph glyph-name="dcaron" unicode="&#x10f;" d="M590 678 l130 0 l-55 -234 l-121 0 l46 234 ZM487 700 l0 -700 l-133 0 l0 21 q-70 -33 -121 -33 q-109 0 -152 63 q-43 63 -43 199.5 q0 136.5 51.5 199 q51.5 62.5 155.5 62.5 q32 0 89 -10 l19 -4 l0 202 l134 0 ZM339 120 l14 3 l0 263 q-55 10 -98 10 q-81 0 -81 -144 q0 -78 18 -111 q18 -33 59.5 -33 q41.5 0 87.5 12 Z" /><glyph glyph-name="Dcroat" unicode="&#x110;" d="M25 277 l0 132 l54 0 l0 281 l227 0 q88 0 145 -19 q57 -19 88.5 -62.5 q31.5 -43.5 43.5 -102 q12 -58.5 12 -151 q0 -92.5 -11 -153.5 q-11 -61 -41.5 -109.5 q-30.5 -48.5 -88.5 -70.5 q-58 -22 -148 -22 l-227 0 l0 277 l-54 0 ZM453 354 q0 43 -1.5 68 q-1.5 25 -6.5 50 q-5 25 -15 39.5 q-10 14.5 -26 26.5 q-31 21 -98 21 l-91 0 l0 -150 l130 0 l0 -132 l-130 0 l0 -146 l91 0 q75 0 110 38 q37 41 37 185 Z" /><glyph glyph-name="dcroat" unicode="&#x111;" d="M129 622 l0 116 l327 0 l0 -38 l31 0 l0 -700 l-133 0 l0 21 q-70 -33 -121 -33 q-109 0 -152 63 q-43 63 -43 199.5 q0 136.5 51.5 199 q51.5 62.5 155.5 62.5 q32 0 89 -10 l19 -4 l0 124 l-224 0 ZM339 120 l14 3 l0 263 q-55 10 -98 10 q-81 0 -81 -144 q0 -78 18 -111 q18 -33 59.5 -33 q41.5 0 87.5 12 Z" /><glyph glyph-name="Emacron" unicode="&#x112;" d="M74 0 l0 680 l440 0 l0 -120 l-302 0 l0 -159 l242 0 l0 -118 l-242 0 l0 -163 l302 0 l0 -120 l-440 0 ZM116 782 l0 98 l347 0 l0 -98 l-347 0 Z" /><glyph glyph-name="emacron" unicode="&#x113;" d="M172 193 q1 -46 24.5 -66.5 q23.5 -20.5 67.5 -20.5 q93 0 166 6 l28 3 l2 -99 q-115 -28 -208 -28 q-113 0 -164 60 q-51 60 -51 195 q0 269 221 269 q218 0 218 -226 l-10 -93 l-294 0 ZM344 295 q0 60 -19 83.5 q-19 23.5 -66.5 23.5 q-47.5 0 -67 -24.5 q-19.5 -24.5 -20.5 -82.5 l173 0 ZM113 597 l0 100 l287 0 l0 -100 l-287 0 Z" /><glyph glyph-name="Ebreve" unicode="&#x114;" d="M74 0 l0 680 l440 0 l0 -120 l-302 0 l0 -159 l242 0 l0 -118 l-242 0 l0 -163 l302 0 l0 -120 l-440 0 ZM235 910 q4 -25 21 -41 q17 -16 44.5 -16 q27.5 0 45 16 q17.5 16 20.5 41 l121 0 q-8 -68 -54.5 -109.5 q-46.5 -41.5 -132.5 -41.5 q-86 0 -132 41.5 q-46 41.5 -54 109.5 l121 0 Z" /><glyph glyph-name="ebreve" unicode="&#x115;" d="M172 193 q1 -46 24.5 -66.5 q23.5 -20.5 67.5 -20.5 q93 0 166 6 l28 3 l2 -99 q-115 -28 -208 -28 q-113 0 -164 60 q-51 60 -51 195 q0 269 221 269 q218 0 218 -226 l-10 -93 l-294 0 ZM344 295 q0 60 -19 83.5 q-19 23.5 -66.5 23.5 q-47.5 0 -67 -24.5 q-19.5 -24.5 -20.5 -82.5 l173 0 ZM258 664 q56 0 63 66 l101 0 q-8 -65 -50.5 -111 q-42.5 -46 -113.5 -46 q-71 0 -113.5 46 q-42.5 46 -50.5 111 l101 0 q4 -31 20.5 -48.5 q16.5 -17.5 42.5 -17.5 Z" /><glyph glyph-name="Edotaccent" unicode="&#x116;" d="M74 0 l0 680 l440 0 l0 -120 l-302 0 l0 -159 l242 0 l0 -118 l-242 0 l0 -163 l302 0 l0 -120 l-440 0 ZM233 767 l0 135 l134 0 l0 -135 l-134 0 Z" /><glyph glyph-name="edotaccent" unicode="&#x117;" d="M172 193 q1 -46 24.5 -66.5 q23.5 -20.5 67.5 -20.5 q93 0 166 6 l28 3 l2 -99 q-115 -28 -208 -28 q-113 0 -164 60 q-51 60 -51 195 q0 269 221 269 q218 0 218 -226 l-10 -93 l-294 0 ZM344 295 q0 60 -19 83.5 q-19 23.5 -66.5 23.5 q-47.5 0 -67 -24.5 q-19.5 -24.5 -20.5 -82.5 l173 0 ZM190 556 l0 135 l134 0 l0 -135 l-134 0 Z" /><glyph glyph-name="Eogonek" unicode="&#x118;" d="M74 0 l0 680 l440 0 l0 -120 l-302 0 l0 -159 l242 0 l0 -118 l-242 0 l0 -163 l302 0 l0 -120 l-28 0 q-56 -47 -56 -80.5 q0 -33.5 32 -33.5 l42 4 l12 -95 q-59 -11 -104.5 -11 q-45.5 0 -76 26 q-30.5 26 -30.5 70 q0 68 66 120 l-297 0 Z" /><glyph glyph-name="eogonek" unicode="&#x119;" d="M407 1 q-58 -47 -58 -81 q0 -34 32 -34 l42 4 l12 -95 q-59 -11 -104.5 -11 q-45.5 0 -76 26 q-30.5 26 -30.5 70 q0 59 52 109 q-8 -1 -24 -1 q-113 0 -164 60 q-51 60 -51 195 q0 269 221 269 q218 0 218 -226 l-10 -93 l-294 0 q1 -46 24.5 -66.5 q23.5 -20.5 67.5 -20.5 q93 0 166 6 l28 3 l2 -99 q-30 -7 -67 -14 l14 -1 ZM344 295 q0 60 -19 83.5 q-19 23.5 -66.5 23.5 q-47.5 0 -67 -24.5 q-19.5 -24.5 -20.5 -82.5 l173 0 Z" /><glyph glyph-name="Ecaron" unicode="&#x11a;" d="M74 0 l0 680 l440 0 l0 -120 l-302 0 l0 -159 l242 0 l0 -118 l-242 0 l0 -163 l302 0 l0 -120 l-440 0 ZM221 765 l-134 149 l142 0 l52 -56 l49 56 l142 0 l-134 -149 l-117 0 Z" /><glyph glyph-name="ecaron" unicode="&#x11b;" d="M172 193 q1 -46 24.5 -66.5 q23.5 -20.5 67.5 -20.5 q93 0 166 6 l28 3 l2 -99 q-115 -28 -208 -28 q-113 0 -164 60 q-51 60 -51 195 q0 269 221 269 q218 0 218 -226 l-10 -93 l-294 0 ZM344 295 q0 60 -19 83.5 q-19 23.5 -66.5 23.5 q-47.5 0 -67 -24.5 q-19.5 -24.5 -20.5 -82.5 l173 0 ZM211 580 l-126 151 l123 0 l46 -67 l46 67 l123 0 l-128 -151 l-84 0 Z" /><glyph glyph-name="Gcircumflex" unicode="&#x11c;" d="M357 244 l0 120 l198 0 l0 -353 q-143 -23 -232 -23 q-159 0 -218.5 85 q-59.5 85 -59.5 270 q0 185 62 267 q62 82 211 82 q93 0 201 -21 l36 -7 l-4 -107 q-120 13 -196.5 13 q-76.5 0 -107.5 -18 q-31 -18 -45.5 -66.5 q-14.5 -48.5 -14.5 -166 q0 -117.5 29 -164.5 q29 -47 120 -47 l83 4 l0 132 l-62 0 ZM136 765 l134 149 l117 0 l134 -149 l-142 0 l-49 56 l-52 -56 l-142 0 Z" /><glyph glyph-name="gcircumflex" unicode="&#x11d;" d="M515 -62.5 q0 -85.5 -66 -126.5 q-66 -41 -178.5 -41 q-112.5 0 -173 30 q-60.5 30 -60.5 109 q0 63 72 119 q-37 25 -37 76 q0 20 30 66 l9 14 q-68 49 -68 144.5 q0 95.5 57.5 138.5 q57.5 43 152.5 43 q43 0 85 -10 l16 -3 l161 5 l0 -107 l-75 6 q22 -34 22 -68 q0 -100 -51 -138 q-51 -38 -160 -38 q-23 0 -41 4 q-10 -26 -10 -42.5 q0 -16.5 17 -22.5 q17 -6 80 -7 q126 -1 172 -33.5 q46 -32.5 46 -118 ZM169 -77 q0 -43 105.5 -43 q105.5 0 105.5 50 q0 27 -18 34.5 q-18 7.5 -76 8.5 l-90 7 q-27 -27 -27 -57 ZM177 332.5 q0 -73.5 76.5 -73.5 q76.5 0 76.5 73.5 q0 73.5 -76.5 73.5 q-76.5 0 -76.5 -73.5 ZM103 580 l126 151 l84 0 l128 -151 l-123 0 l-46 67 l-46 -67 l-123 0 Z" /><glyph glyph-name="Gbreve" unicode="&#x11e;" d="M357 244 l0 120 l198 0 l0 -353 q-143 -23 -232 -23 q-159 0 -218.5 85 q-59.5 85 -59.5 270 q0 185 62 267 q62 82 211 82 q93 0 201 -21 l36 -7 l-4 -107 q-120 13 -196.5 13 q-76.5 0 -107.5 -18 q-31 -18 -45.5 -66.5 q-14.5 -48.5 -14.5 -166 q0 -117.5 29 -164.5 q29 -47 120 -47 l83 4 l0 132 l-62 0 ZM257 910 q4 -25 21 -41 q17 -16 44.5 -16 q27.5 0 45 16 q17.5 16 20.5 41 l121 0 q-8 -68 -54.5 -109.5 q-46.5 -41.5 -132.5 -41.5 q-86 0 -132 41.5 q-46 41.5 -54 109.5 l121 0 Z" /><glyph glyph-name="gbreve" unicode="&#x11f;" d="M515 -62.5 q0 -85.5 -66 -126.5 q-66 -41 -178.5 -41 q-112.5 0 -173 30 q-60.5 30 -60.5 109 q0 63 72 119 q-37 25 -37 76 q0 20 30 66 l9 14 q-68 49 -68 144.5 q0 95.5 57.5 138.5 q57.5 43 152.5 43 q43 0 85 -10 l16 -3 l161 5 l0 -107 l-75 6 q22 -34 22 -68 q0 -100 -51 -138 q-51 -38 -160 -38 q-23 0 -41 4 q-10 -26 -10 -42.5 q0 -16.5 17 -22.5 q17 -6 80 -7 q126 -1 172 -33.5 q46 -32.5 46 -118 ZM169 -77 q0 -43 105.5 -43 q105.5 0 105.5 50 q0 27 -18 34.5 q-18 7.5 -76 8.5 l-90 7 q-27 -27 -27 -57 ZM177 332.5 q0 -73.5 76.5 -73.5 q76.5 0 76.5 73.5 q0 73.5 -76.5 73.5 q-76.5 0 -76.5 -73.5 ZM271 664 q56 0 63 66 l101 0 q-8 -65 -50.5 -111 q-42.5 -46 -113.5 -46 q-71 0 -113.5 46 q-42.5 46 -50.5 111 l101 0 q4 -31 20.5 -48.5 q16.5 -17.5 42.5 -17.5 Z" /><glyph glyph-name="Gdotaccent" unicode="&#x120;" d="M357 244 l0 120 l198 0 l0 -353 q-143 -23 -232 -23 q-159 0 -218.5 85 q-59.5 85 -59.5 270 q0 185 62 267 q62 82 211 82 q93 0 201 -21 l36 -7 l-4 -107 q-120 13 -196.5 13 q-76.5 0 -107.5 -18 q-31 -18 -45.5 -66.5 q-14.5 -48.5 -14.5 -166 q0 -117.5 29 -164.5 q29 -47 120 -47 l83 4 l0 132 l-62 0 ZM245 767 l0 135 l134 0 l0 -135 l-134 0 Z" /><glyph glyph-name="gdotaccent" unicode="&#x121;" d="M515 -62.5 q0 -85.5 -66 -126.5 q-66 -41 -178.5 -41 q-112.5 0 -173 30 q-60.5 30 -60.5 109 q0 63 72 119 q-37 25 -37 76 q0 20 30 66 l9 14 q-68 49 -68 144.5 q0 95.5 57.5 138.5 q57.5 43 152.5 43 q43 0 85 -10 l16 -3 l161 5 l0 -107 l-75 6 q22 -34 22 -68 q0 -100 -51 -138 q-51 -38 -160 -38 q-23 0 -41 4 q-10 -26 -10 -42.5 q0 -16.5 17 -22.5 q17 -6 80 -7 q126 -1 172 -33.5 q46 -32.5 46 -118 ZM169 -77 q0 -43 105.5 -43 q105.5 0 105.5 50 q0 27 -18 34.5 q-18 7.5 -76 8.5 l-90 7 q-27 -27 -27 -57 ZM177 332.5 q0 -73.5 76.5 -73.5 q76.5 0 76.5 73.5 q0 73.5 -76.5 73.5 q-76.5 0 -76.5 -73.5 ZM203 556 l0 135 l134 0 l0 -135 l-134 0 Z" /><glyph glyph-name="Gcommaaccent" unicode="&#x122;" d="M357 244 l0 120 l198 0 l0 -353 q-143 -23 -232 -23 q-159 0 -218.5 85 q-59.5 85 -59.5 270 q0 185 62 267 q62 82 211 82 q93 0 201 -21 l36 -7 l-4 -107 q-120 13 -196.5 13 q-76.5 0 -107.5 -18 q-31 -18 -45.5 -66.5 q-14.5 -48.5 -14.5 -166 q0 -117.5 29 -164.5 q29 -47 120 -47 l83 4 l0 132 l-62 0 ZM266 -77 l130 0 l-55 -234 l-121 0 l46 234 Z" /><glyph glyph-name="gcommaaccent" unicode="&#x123;" d="M346 817 l-46 -234 l-130 0 l55 234 l121 0 ZM515 -62.5 q0 -85.5 -66 -126.5 q-66 -41 -178.5 -41 q-112.5 0 -173 30 q-60.5 30 -60.5 109 q0 63 72 119 q-37 25 -37 76 q0 20 30 66 l9 14 q-68 49 -68 144.5 q0 95.5 57.5 138.5 q57.5 43 152.5 43 q43 0 85 -10 l16 -3 l161 5 l0 -107 l-75 6 q22 -34 22 -68 q0 -100 -51 -138 q-51 -38 -160 -38 q-23 0 -41 4 q-10 -26 -10 -42.5 q0 -16.5 17 -22.5 q17 -6 80 -7 q126 -1 172 -33.5 q46 -32.5 46 -118 ZM169 -77 q0 -43 105.5 -43 q105.5 0 105.5 50 q0 27 -18 34.5 q-18 7.5 -76 8.5 l-90 7 q-27 -27 -27 -57 ZM177 332.5 q0 -73.5 76.5 -73.5 q76.5 0 76.5 73.5 q0 73.5 -76.5 73.5 q-76.5 0 -76.5 -73.5 Z" /><glyph glyph-name="Hcircumflex" unicode="&#x124;" d="M465 0 l0 282 l-253 0 l0 -282 l-138 0 l0 680 l138 0 l0 -278 l253 0 l0 278 l138 0 l0 -680 l-138 0 ZM146 765 l134 149 l117 0 l134 -149 l-142 0 l-49 56 l-52 -56 l-142 0 Z" /><glyph glyph-name="hcircumflex" unicode="&#x125;" d="M196 0 l-134 0 l0 700 l134 0 l0 -224 q69 36 124 36 q100 0 138 -59 q38 -59 38 -182 l0 -271 l-134 0 l0 268 q0 63 -15 93.5 q-15 30.5 -60 30.5 q-39 0 -78 -12 l-13 -4 l0 -376 ZM107 750 l126 151 l84 0 l128 -151 l-123 0 l-46 67 l-46 -67 l-123 0 Z" /><glyph glyph-name="Hbar" unicode="&#x126;" d="M19 486 l0 116 l59 0 l0 78 l138 0 l0 -78 l253 0 l0 78 l138 0 l0 -78 l66 0 l0 -116 l-66 0 l0 -486 l-138 0 l0 282 l-253 0 l0 -282 l-138 0 l0 486 l-59 0 ZM216 402 l253 0 l0 84 l-253 0 l0 -84 Z" /><glyph glyph-name="hbar" unicode="&#x127;" d="M12 532 l0 116 l50 0 l0 52 l134 0 l0 -52 l143 0 l0 -116 l-143 0 l0 -56 q69 36 124 36 q100 0 138 -59 q38 -59 38 -182 l0 -271 l-134 0 l0 268 q0 63 -15 93.5 q-15 30.5 -60 30.5 q-39 0 -78 -12 l-13 -4 l0 -376 l-134 0 l0 532 l-50 0 Z" /><glyph glyph-name="Itilde" unicode="&#x128;" d="M74 0 l0 680 l138 0 l0 -680 l-138 0 ZM282 777.5 q-31 -19.5 -57 -19.5 q-26 0 -89.5 23 q-63.5 23 -76.5 23 q-25 0 -67 -32 l-14 -10 l-29 96 q20 24 51.5 44 q31.5 20 61 20 q29.5 0 90.5 -23 q61 -23 72 -23 q23 0 66 32 l15 10 l29 -97 q-21 -24 -52 -43.5 Z" /><glyph glyph-name="itilde" unicode="&#x129;" d="M62 500 l134 0 l0 -500 l-134 0 l0 500 ZM286 629.5 q-10 -10.5 -38 -27.5 q-28 -17 -50.5 -17 q-22.5 0 -68.5 18 q-46 18 -59 18 q-29 0 -66 -23 l-13 -8 l-29 75 q20 23 50.5 41.5 q30.5 18.5 53 18.5 q22.5 0 69 -18 q46.5 -18 58.5 -18 q24 0 66 25 l14 9 l29 -76 q-6 -7 -16 -17.5 Z" /><glyph glyph-name="Imacron" unicode="&#x12a;" d="M74 0 l0 680 l138 0 l0 -680 l-138 0 ZM-27 782 l0 98 l347 0 l0 -98 l-347 0 Z" /><glyph glyph-name="imacron" unicode="&#x12b;" d="M62 500 l134 0 l0 -500 l-134 0 l0 500 ZM-14 597 l0 100 l287 0 l0 -100 l-287 0 Z" /><glyph glyph-name="Ibreve" unicode="&#x12c;" d="M74 0 l0 680 l138 0 l0 -680 l-138 0 ZM95 910 q4 -25 21 -41 q17 -16 44.5 -16 q27.5 0 45 16 q17.5 16 20.5 41 l121 0 q-8 -68 -54.5 -109.5 q-46.5 -41.5 -132.5 -41.5 q-86 0 -132 41.5 q-46 41.5 -54 109.5 l121 0 Z" /><glyph glyph-name="ibreve" unicode="&#x12d;" d="M62 500 l134 0 l0 -500 l-134 0 l0 500 ZM129 664 q56 0 63 66 l101 0 q-8 -65 -50.5 -111 q-42.5 -46 -113.5 -46 q-71 0 -113.5 46 q-42.5 46 -50.5 111 l101 0 q4 -31 20.5 -48.5 q16.5 -17.5 42.5 -17.5 Z" /><glyph glyph-name="Iogonek" unicode="&#x12e;" d="M74 0 l0 680 l138 0 l0 -680 q-24 -15 -45.5 -40 q-21.5 -25 -21.5 -41 q0 -33 32 -33 l42 4 l12 -95 q-59 -11 -104.5 -11 q-45.5 0 -76 26 q-30.5 26 -30.5 70 q0 66 68 120 l-14 0 Z" /><glyph glyph-name="iogonek" unicode="&#x12f;" d="M62 0 l0 500 l134 0 l0 -500 q-24 -15 -45.5 -40 q-21.5 -25 -21.5 -41 q0 -33 32 -33 l42 4 l12 -95 q-59 -11 -104.5 -11 q-45.5 0 -76 26 q-30.5 26 -30.5 70 q0 67 70 120 l-12 0 ZM62 564 l0 136 l134 0 l0 -136 l-134 0 Z" /><glyph glyph-name="Idotaccent" unicode="&#x130;" d="M74 0 l0 680 l138 0 l0 -680 l-138 0 ZM76 767 l0 135 l134 0 l0 -135 l-134 0 Z" /><glyph glyph-name="dotlessi" unicode="&#x131;" d="M62 0 l0 500 l134 0 l0 -500 l-134 0 Z" /><glyph glyph-name="Jcircumflex" unicode="&#x134;" d="M19 -70 l0 120 q40 0 58 15 q18 15 18 56 l0 559 l137 0 l1 -565 q0 -109 -48.5 -147 q-48.5 -38 -165.5 -38 ZM-29 765 l134 149 l117 0 l134 -149 l-142 0 l-49 56 l-52 -56 l-142 0 Z" /><glyph glyph-name="jcircumflex" unicode="&#x135;" d="M63 24 l0 476 l134 0 l0 -477 q0 -102 -35.5 -150.5 q-35.5 -48.5 -142.5 -102.5 l-53 99 q45 30 63 47 q18 17 26 40.5 q8 23.5 8 67.5 ZM-37 580 l126 151 l84 0 l128 -151 l-123 0 l-46 67 l-46 -67 l-123 0 Z" /><glyph glyph-name="Kcommaaccent" unicode="&#x136;" d="M212 0 l-138 0 l0 690 l138 0 l0 -296 l90 10 l112 286 l159 0 l-148 -343 l152 -347 l-159 0 l-114 271 l-92 -10 l0 -261 ZM245 -77 l130 0 l-55 -234 l-121 0 l46 234 Z" /><glyph glyph-name="kcommaaccent" unicode="&#x137;" d="M-10 -311 l46 234 l130 0 l-55 -234 l-121 0 ZM196 0 l-134 0 l0 700 l134 0 l0 -398 l51 9 l99 189 l150 0 l-130 -237 l137 -263 l-151 0 l-101 195 l-55 -9 l0 -186 Z" /><glyph glyph-name="Lacute" unicode="&#x139;" d="M461 0 l-387 0 l0 690 l138 0 l0 -557 l249 0 l0 -133 ZM110 839 l252 106 l41 -120 l-260 -79 l-33 93 Z" /><glyph glyph-name="lacute" unicode="&#x13a;" d="M68 0 l0 700 l134 0 l0 -700 l-134 0 ZM41 861 l252 102 l40 -115 l-262 -74 l-30 87 Z" /><glyph glyph-name="Lcommaaccent" unicode="&#x13b;" d="M204 -77 l130 0 l-55 -234 l-121 0 l46 234 ZM461 0 l-387 0 l0 680 l138 0 l0 -558 l249 0 l0 -122 Z" /><glyph glyph-name="lcommaaccent" unicode="&#x13c;" d="M68 0 l0 700 l134 0 l0 -700 l-134 0 ZM66 -77 l130 0 l-55 -234 l-121 0 l46 234 Z" /><glyph glyph-name="Lcaron" unicode="&#x13d;" d="M461 690 l0 -260 l-130 0 l0 260 l130 0 ZM461 0 l-387 0 l0 680 l138 0 l0 -558 l249 0 l0 -122 Z" /><glyph glyph-name="lcaron" unicode="&#x13e;" d="M303 678 l130 0 l-55 -234 l-121 0 l46 234 ZM68 0 l0 700 l134 0 l0 -700 l-134 0 Z" /><glyph glyph-name="Lslash" unicode="&#x141;" d="M470 0 l-387 0 l0 217 l-42 -29 l-65 90 l107 75 l0 327 l138 0 l0 -231 l99 70 l65 -90 l-164 -115 l0 -192 l249 0 l0 -122 Z" /><glyph glyph-name="lslash" unicode="&#x142;" d="M119 0 l0 218 l-51 -35 l-65 90 l116 81 l0 346 l134 0 l0 -252 l63 44 l65 -90 l-128 -90 l0 -312 l-134 0 Z" /><glyph glyph-name="Nacute" unicode="&#x143;" d="M74 0 l0 680 l233 0 l164 -560 l10 0 l0 560 l138 0 l0 -680 l-227 0 l-170 560 l-10 0 l0 -560 l-138 0 ZM202 839 l252 106 l41 -120 l-260 -79 l-33 93 Z" /><glyph glyph-name="nacute" unicode="&#x144;" d="M62 0 l0 500 l133 0 l0 -28 l19 10 q18 10 49.5 20 q31.5 10 56.5 10 q100 0 138 -59 q38 -59 38 -182 q0 0 0 -271 l-134 0 l0 267 q0 64 -15 94.5 q-15 30.5 -61 30.5 q-46 0 -90 -18 l0 -374 l-134 0 ZM146 651 l252 102 l40 -115 l-262 -74 l-30 87 Z" /><glyph glyph-name="Ncommaaccent" unicode="&#x145;" d="M299 -77 l130 0 l-55 -234 l-121 0 l46 234 ZM74 0 l0 680 l233 0 l164 -560 l10 0 l0 560 l138 0 l0 -680 l-227 0 l-170 560 l-10 0 l0 -560 l-138 0 Z" /><glyph glyph-name="ncommaaccent" unicode="&#x146;" d="M-10 -311 l46 234 l130 0 l-55 -234 l-121 0 ZM196 0 l-134 0 l0 500 l133 0 l0 -28 q68 40 125 40 q100 0 138 -59 q38 -59 38 -182 l0 -271 l-134 0 l0 267 q0 64 -15 94.5 q-15 30.5 -60 30.5 q-41 0 -79 -14 l-12 -4 l0 -374 Z" /><glyph glyph-name="Ncaron" unicode="&#x147;" d="M74 0 l0 680 l233 0 l164 -560 l10 0 l0 560 l138 0 l0 -680 l-227 0 l-170 560 l-10 0 l0 -560 l-138 0 ZM289 765 l-134 149 l142 0 l52 -56 l49 56 l142 0 l-134 -149 l-117 0 Z" /><glyph glyph-name="ncaron" unicode="&#x148;" d="M196 0 l-134 0 l0 500 l133 0 l0 -28 q68 40 125 40 q100 0 138 -59 q38 -59 38 -182 l0 -271 l-134 0 l0 267 q0 64 -15 94.5 q-15 30.5 -60 30.5 q-41 0 -79 -14 l-12 -4 l0 -374 ZM231 580 l-126 151 l123 0 l46 -67 l46 67 l123 0 l-128 -151 l-84 0 Z" /><glyph glyph-name="Eng" unicode="&#x14a;" d="M74 0 l0 680 l233 0 l164 -560 l10 0 l0 560 l138 0 l0 -707 q0 -109 -48.5 -147 q-48.5 -38 -165.5 -38 l0 120 q40 0 58 15 q18 15 18 56 l0 21 l-89 0 l-170 560 l-10 0 l0 -560 l-138 0 Z" /><glyph glyph-name="eng" unicode="&#x14b;" d="M195 0 l-134 0 l0 499 l134 0 l0 -22 q82 35 129 35 q93 0 132.5 -64.5 q39.5 -64.5 39.5 -186.5 l0 -256 q0 -105 -33.5 -153 q-33.5 -48 -144.5 -100 l-60 111 q69 38 86.5 60.5 q17.5 22.5 17.5 76.5 l0 261 q0 128 -66 128 q-29 0 -83 -13 l-18 -5 l0 -371 Z" /><glyph glyph-name="Omacron" unicode="&#x14c;" d="M215.5 160.5 q29.5 -52.5 110.5 -52.5 q81 0 110.5 52.5 q29.5 52.5 29.5 176 q0 123.5 -30 179.5 q-30 56 -110 56 q-80 0 -110 -56 q-30 -56 -30 -179.5 q0 -123.5 29.5 -176 ZM544.5 72.5 q-63.5 -84.5 -218.5 -84.5 q-155 0 -218.5 84.5 q-63.5 84.5 -63.5 264.5 q0 180 63.5 267.5 q63.5 87.5 218.5 87.5 q155 0 218.5 -87.5 q63.5 -87.5 63.5 -267.5 q0 -180 -63.5 -264.5 ZM149 782 l0 98 l347 0 l0 -98 l-347 0 Z" /><glyph glyph-name="omacron" unicode="&#x14d;" d="M89 443.5 q53 68.5 177 68.5 q124 0 177 -68.5 q53 -68.5 53 -192.5 q0 -263 -230 -263 q-230 0 -230 263 q0 124 53 192.5 ZM192.5 138 q20.5 -36 73.5 -36 q53 0 73.5 36 q20.5 36 20.5 113 q0 77 -20.5 112 q-20.5 35 -73.5 35 q-53 0 -73.5 -35 q-20.5 -35 -20.5 -112 q0 -77 20.5 -113 ZM126 597 l0 100 l287 0 l0 -100 l-287 0 Z" /><glyph glyph-name="Obreve" unicode="&#x14e;" d="M215.5 160.5 q29.5 -52.5 110.5 -52.5 q81 0 110.5 52.5 q29.5 52.5 29.5 176 q0 123.5 -30 179.5 q-30 56 -110 56 q-80 0 -110 -56 q-30 -56 -30 -179.5 q0 -123.5 29.5 -176 ZM544.5 72.5 q-63.5 -84.5 -218.5 -84.5 q-155 0 -218.5 84.5 q-63.5 84.5 -63.5 264.5 q0 180 63.5 267.5 q63.5 87.5 218.5 87.5 q155 0 218.5 -87.5 q63.5 -87.5 63.5 -267.5 q0 -180 -63.5 -264.5 ZM262 910 q4 -25 21 -41 q17 -16 44.5 -16 q27.5 0 45 16 q17.5 16 20.5 41 l121 0 q-8 -68 -54.5 -109.5 q-46.5 -41.5 -132.5 -41.5 q-86 0 -132 41.5 q-46 41.5 -54 109.5 l121 0 Z" /><glyph glyph-name="obreve" unicode="&#x14f;" d="M89 443.5 q53 68.5 177 68.5 q124 0 177 -68.5 q53 -68.5 53 -192.5 q0 -263 -230 -263 q-230 0 -230 263 q0 124 53 192.5 ZM192.5 138 q20.5 -36 73.5 -36 q53 0 73.5 36 q20.5 36 20.5 113 q0 77 -20.5 112 q-20.5 35 -73.5 35 q-53 0 -73.5 -35 q-20.5 -35 -20.5 -112 q0 -77 20.5 -113 ZM268 664 q56 0 63 66 l101 0 q-8 -65 -50.5 -111 q-42.5 -46 -113.5 -46 q-71 0 -113.5 46 q-42.5 46 -50.5 111 l101 0 q4 -31 20.5 -48.5 q16.5 -17.5 42.5 -17.5 Z" /><glyph glyph-name="Ohungarumlaut" unicode="&#x150;" d="M215.5 160.5 q29.5 -52.5 110.5 -52.5 q81 0 110.5 52.5 q29.5 52.5 29.5 176 q0 123.5 -30 179.5 q-30 56 -110 56 q-80 0 -110 -56 q-30 -56 -30 -179.5 q0 -123.5 29.5 -176 ZM544.5 72.5 q-63.5 -84.5 -218.5 -84.5 q-155 0 -218.5 84.5 q-63.5 84.5 -63.5 264.5 q0 180 63.5 267.5 q63.5 87.5 218.5 87.5 q155 0 218.5 -87.5 q63.5 -87.5 63.5 -267.5 q0 -180 -63.5 -264.5 ZM366 775 l67 197 l116 -42 l-78 -191 l-105 36 ZM158 776 l67 197 l116 -42 l-78 -191 l-105 36 Z" /><glyph glyph-name="ohungarumlaut" unicode="&#x151;" d="M89 443.5 q53 68.5 177 68.5 q124 0 177 -68.5 q53 -68.5 53 -192.5 q0 -263 -230 -263 q-230 0 -230 263 q0 124 53 192.5 ZM192.5 138 q20.5 -36 73.5 -36 q53 0 73.5 36 q20.5 36 20.5 113 q0 77 -20.5 112 q-20.5 35 -73.5 35 q-53 0 -73.5 -35 q-20.5 -35 -20.5 -112 q0 -77 20.5 -113 ZM257 628 l117 190 l109 -67 l-125 -188 l-101 65 ZM53 628 l117 189 l109 -66 l-125 -188 l-101 65 Z" /><glyph glyph-name="OE" unicode="&#x152;" d="M861 0 l-436 0 q-76 -12 -119 -12 q-151 0 -205.5 83.5 q-54.5 83.5 -54.5 276.5 q0 193 58.5 273.5 q58.5 80.5 201.5 80.5 q43 0 117 -12 l438 0 l0 -132 l-302 0 l0 -143 l242 0 l0 -131 l-242 0 l0 -152 l302 0 l0 -132 ZM330 124 q25 0 93 6 l0 430 q-70 6 -111 6 q-41 0 -69.5 -17.5 q-28.5 -17.5 -41.5 -65 q-13 -47.5 -13 -158.5 q0 -111 27.5 -156 q27.5 -45 114.5 -45 Z" /><glyph glyph-name="oe" unicode="&#x153;" d="M495 192 q1 -43 24 -62 q23 -19 68 -19 q68 0 166 7 l28 2 l2 -104 q-115 -28 -215.5 -28 q-100.5 0 -145.5 68 q-48 -68 -164 -68 q-116 0 -169 69 q-53 69 -53 193 q0 124 53 192.5 q53 68.5 177 68.5 q58 0 97 -18.5 q39 -18.5 65 -62.5 q26 45 63.5 63 q37.5 18 89.5 18 q218 0 218 -225 l-10 -94 l-294 0 ZM192.5 143 q20.5 -34 73.5 -34 q53 0 73.5 34 q20.5 34 20.5 107 q0 73 -20.5 106.5 q-20.5 33.5 -73.5 33.5 q-53 0 -73.5 -33.5 q-20.5 -33.5 -20.5 -106.5 q0 -73 20.5 -107 ZM494 295 l173 0 q0 53 -19.5 75 q-19.5 22 -66.5 22 q-47 0 -67 -23.5 q-20 -23.5 -20 -73.5 Z" /><glyph glyph-name="Racute" unicode="&#x154;" d="M212 228 l0 -228 l-138 0 l0 680 l264 0 q240 0 240 -224 q0 -133 -100 -196 l97 -260 l-151 0 l-79 228 l-133 0 ZM437 455 q0 49 -25.5 78 q-25.5 29 -73.5 29 l-126 0 l0 -216 l128 0 q49 0 73 30 q24 30 24 79 ZM170 839 l252 106 l41 -120 l-260 -79 l-33 93 Z" /><glyph glyph-name="racute" unicode="&#x155;" d="M62 0 l0 500 l133 0 l0 -53 q84 50 160 65 l0 -135 q-81 -17 -139 -35 l-20 -7 l0 -335 l-134 0 ZM48 651 l252 102 l40 -115 l-262 -74 l-30 87 Z" /><glyph glyph-name="Rcommaaccent" unicode="&#x156;" d="M211 -311 l46 234 l130 0 l-55 -234 l-121 0 ZM212 228 l0 -228 l-138 0 l0 680 l264 0 q240 0 240 -224 q0 -133 -100 -196 l97 -260 l-151 0 l-79 228 l-133 0 ZM340 346 q49 0 73 30 q24 30 24 79 q0 49 -25.5 78 q-25.5 29 -73.5 29 l-126 0 l0 -216 l128 0 Z" /><glyph glyph-name="rcommaaccent" unicode="&#x157;" d="M62 -77 l130 0 l-55 -234 l-121 0 l46 234 ZM62 0 l0 500 l133 0 l0 -53 q84 50 160 65 l0 -135 q-81 -17 -139 -35 l-20 -7 l0 -335 l-134 0 Z" /><glyph glyph-name="Rcaron" unicode="&#x158;" d="M212 228 l0 -228 l-138 0 l0 680 l264 0 q240 0 240 -224 q0 -133 -100 -196 l97 -260 l-151 0 l-79 228 l-133 0 ZM340 346 q49 0 73 30 q24 30 24 79 q0 49 -25.5 78 q-25.5 29 -73.5 29 l-126 0 l0 -216 l128 0 ZM241 765 l-134 149 l142 0 l52 -56 l49 56 l142 0 l-134 -149 l-117 0 Z" /><glyph glyph-name="rcaron" unicode="&#x159;" d="M62 0 l0 500 l133 0 l0 -53 q84 50 160 65 l0 -135 q-81 -17 -139 -35 l-20 -7 l0 -335 l-134 0 ZM131 580 l-126 151 l123 0 l46 -67 l46 67 l123 0 l-128 -151 l-84 0 Z" /><glyph glyph-name="Sacute" unicode="&#x15a;" d="M283 572 q-109 0 -109 -72 q0 -32 27 -49 q27 -17 126.5 -49 q99.5 -32 139.5 -72.5 q40 -40.5 40 -124.5 q0 -107 -65 -162 q-65 -55 -170 -55 q-78 0 -191 24 l-36 7 l14 107 q134 -18 205 -18 q106 0 106 88 q0 32 -24.5 50 q-24.5 18 -97.5 39 q-116 33 -163.5 78.5 q-47.5 45.5 -47.5 126.5 q0 102 62 152 q62 50 170 50 q74 0 188 -20 l36 -7 l-11 -109 q-141 16 -199 16 ZM144 839 l252 106 l41 -120 l-260 -79 l-33 93 Z" /><glyph glyph-name="sacute" unicode="&#x15b;" d="M421 375 q-124 16 -173.5 16 q-49.5 0 -64 -9 q-14.5 -9 -14.5 -28.5 q0 -19.5 19.5 -27 q19.5 -7.5 100 -22 q80.5 -14.5 114.5 -47.5 q34 -33 34 -107 q0 -162 -201 -162 q-66 0 -160 18 l-32 6 l4 112 q124 -16 172.5 -16 q48.5 0 66 9.5 q17.5 9.5 17.5 28.5 q0 19 -18.5 28 q-18.5 9 -96 22 q-77.5 13 -115.5 44 q-38 31 -38 110.5 q0 79.5 54 120 q54 40.5 139 40.5 q59 0 161 -19 l33 -6 l-2 -111 ZM91 651 l252 102 l40 -115 l-262 -74 l-30 87 Z" /><glyph glyph-name="Scircumflex" unicode="&#x15c;" d="M283 572 q-109 0 -109 -72 q0 -32 27 -49 q27 -17 126.5 -49 q99.5 -32 139.5 -72.5 q40 -40.5 40 -124.5 q0 -107 -65 -162 q-65 -55 -170 -55 q-78 0 -191 24 l-36 7 l14 107 q134 -18 205 -18 q106 0 106 88 q0 32 -24.5 50 q-24.5 18 -97.5 39 q-116 33 -163.5 78.5 q-47.5 45.5 -47.5 126.5 q0 102 62 152 q62 50 170 50 q74 0 188 -20 l36 -7 l-11 -109 q-141 16 -199 16 ZM84 765 l134 149 l117 0 l134 -149 l-142 0 l-49 56 l-52 -56 l-142 0 Z" /><glyph glyph-name="scircumflex" unicode="&#x15d;" d="M421 375 q-124 16 -173.5 16 q-49.5 0 -64 -9 q-14.5 -9 -14.5 -28.5 q0 -19.5 19.5 -27 q19.5 -7.5 100 -22 q80.5 -14.5 114.5 -47.5 q34 -33 34 -107 q0 -162 -201 -162 q-66 0 -160 18 l-32 6 l4 112 q124 -16 172.5 -16 q48.5 0 66 9.5 q17.5 9.5 17.5 28.5 q0 19 -18.5 28 q-18.5 9 -96 22 q-77.5 13 -115.5 44 q-38 31 -38 110.5 q0 79.5 54 120 q54 40.5 139 40.5 q59 0 161 -19 l33 -6 l-2 -111 ZM68 580 l126 151 l84 0 l128 -151 l-123 0 l-46 67 l-46 -67 l-123 0 Z" /><glyph glyph-name="Scedilla" unicode="&#x15e;" d="M311 -37 q64 -1 93.5 -19 q29.5 -18 29.5 -73 q0 -55 -29 -83.5 q-29 -28.5 -82 -28.5 q-44 0 -79 8 l-14 3 l4 78 q31 -1 48 -1 q38 0 38 26 q0 22 -38 22 l-24 0 l0 93 q-76 2 -180 24 l-33 7 l14 107 q134 -18 205 -18 q106 0 106 88 q0 32 -24.5 50 q-24.5 18 -97.5 39 q-116 33 -163.5 78.5 q-47.5 45.5 -47.5 126.5 q0 102 62 152 q62 50 170 50 q74 0 188 -20 l36 -7 l-11 -109 q-141 16 -199 16 q-109 0 -109 -72 q0 -32 27 -49 q27 -17 126.5 -49 q99.5 -32 139.5 -72.5 q40 -40.5 40 -130.5 q0 -90 -53.5 -145 q-53.5 -55 -142.5 -64 l0 -27 Z" /><glyph glyph-name="scedilla" unicode="&#x15f;" d="M256 -37 q64 -1 93.5 -19 q29.5 -18 29.5 -73 q0 -55 -29 -83.5 q-29 -28.5 -82 -28.5 q-43 0 -80 8 l-13 3 l4 78 q31 -1 48 -1 q38 0 38 26 q0 22 -38 22 l-24 0 l0 95 q-63 4 -135 18 l-24 4 l4 112 q124 -16 172.5 -16 q48.5 0 66 9.5 q17.5 9.5 17.5 28.5 q0 19 -18.5 28 q-18.5 9 -96 22 q-77.5 13 -115.5 44 q-38 31 -38 110.5 q0 79.5 54 120 q54 40.5 139 40.5 q59 0 161 -19 l33 -6 l-2 -111 q-124 16 -173.5 16 q-49.5 0 -64 -9 q-14.5 -9 -14.5 -28.5 q0 -19.5 19.5 -27 q19.5 -7.5 100 -22 q80.5 -14.5 114.5 -47.5 q34 -33 34 -107 q0 -155 -181 -161 l0 -26 Z" /><glyph glyph-name="Scaron" unicode="&#x160;" d="M283 572 q-109 0 -109 -72 q0 -32 27 -49 q27 -17 126.5 -49 q99.5 -32 139.5 -72.5 q40 -40.5 40 -124.5 q0 -107 -65 -162 q-65 -55 -170 -55 q-78 0 -191 24 l-36 7 l14 107 q134 -18 205 -18 q106 0 106 88 q0 32 -24.5 50 q-24.5 18 -97.5 39 q-116 33 -163.5 78.5 q-47.5 45.5 -47.5 126.5 q0 102 62 152 q62 50 170 50 q74 0 188 -20 l36 -7 l-11 -109 q-141 16 -199 16 ZM235 765 l-134 149 l142 0 l52 -56 l49 56 l142 0 l-134 -149 l-117 0 Z" /><glyph glyph-name="scaron" unicode="&#x161;" d="M421 375 q-124 16 -173.5 16 q-49.5 0 -64 -9 q-14.5 -9 -14.5 -28.5 q0 -19.5 19.5 -27 q19.5 -7.5 100 -22 q80.5 -14.5 114.5 -47.5 q34 -33 34 -107 q0 -162 -201 -162 q-66 0 -160 18 l-32 6 l4 112 q124 -16 172.5 -16 q48.5 0 66 9.5 q17.5 9.5 17.5 28.5 q0 19 -18.5 28 q-18.5 9 -96 22 q-77.5 13 -115.5 44 q-38 31 -38 110.5 q0 79.5 54 120 q54 40.5 139 40.5 q59 0 161 -19 l33 -6 l-2 -111 ZM203 580 l-126 151 l123 0 l46 -67 l46 67 l123 0 l-128 -151 l-84 0 Z" /><glyph glyph-name="Tcedilla" unicode="&#x162;" d="" /><glyph glyph-name="tcedilla" unicode="&#x163;" d="M161 -37 q64 -1 93.5 -19 q29.5 -18 29.5 -73 q0 -55 -29 -83.5 q-29 -28.5 -82 -28.5 q-44 0 -79 8 l-14 3 l4 78 q31 -1 48 -1 q38 0 38 26 q0 22 -38 22 l-24 0 l0 106 l45 0 q-40 16 -55.5 57 q-15.5 41 -15.5 120 l0 208 l-59 0 l0 114 l59 0 l0 139 l134 0 l0 -139 l123 0 l0 -114 l-123 0 l0 -205 q0 -30 1.5 -42.5 q1.5 -12.5 11 -21.5 q9.5 -9 29.5 -9 l76 2 l6 -107 q-67 -15 -108.5 -15 q-41.5 0 -70.5 10 l0 -35 Z" /><glyph glyph-name="Tcaron" unicode="&#x164;" d="M13 558 l0 122 l500 0 l0 -122 l-180 0 l0 -558 l-138 0 l0 558 l-182 0 ZM206 765 l-134 149 l142 0 l52 -56 l49 56 l142 0 l-134 -149 l-117 0 Z" /><glyph glyph-name="tcaron" unicode="&#x165;" d="M340 378 l-123 0 l0 -189 q0 -30 1.5 -42.5 q1.5 -12.5 11 -21.5 q9.5 -9 29.5 -9 l76 2 l6 -115 q-67 -15 -102 -15 q-90 0 -123 40.5 q-33 40.5 -33 149.5 l0 200 l-59 0 l0 121 l59 0 l0 140 l134 0 l0 -140 l123 0 l0 -121 ZM506 690 l0 -260 l-130 0 l0 260 l130 0 Z" /><glyph glyph-name="Tbar" unicode="&#x166;" d="M14 558 l0 122 l500 0 l0 -122 l-180 0 l0 -189 l139 0 l0 -116 l-139 0 l0 -253 l-138 0 l0 253 l-132 0 l0 116 l132 0 l0 189 l-182 0 Z" /><glyph glyph-name="tbar" unicode="&#x167;" d="M339 378 l-123 0 l0 -69 l95 0 l0 -100 l-95 0 l0 -20 q0 -30 1.5 -42.5 q1.5 -12.5 11 -21.5 q9.5 -9 29.5 -9 l76 2 l6 -115 q-67 -15 -102 -15 q-90 0 -123 40.5 q-33 40.5 -33 149.5 l0 31 l-30 0 l0 100 l30 0 l0 69 l-59 0 l0 121 l59 0 l0 140 l134 0 l0 -140 l123 0 l0 -121 Z" /><glyph glyph-name="Utilde" unicode="&#x168;" d="M206 227 q0 -119 121 -119 q121 0 121 119 l0 453 l138 0 l0 -450 q0 -125 -64.5 -183.5 q-64.5 -58.5 -194.5 -58.5 q-130 0 -194.5 58.5 q-64.5 58.5 -64.5 183.5 l0 450 l138 0 l0 -453 ZM461 777.5 q-31 -19.5 -57 -19.5 q-26 0 -89.5 23 q-63.5 23 -76.5 23 q-25 0 -67 -32 l-14 -10 l-29 96 q20 24 51.5 44 q31.5 20 61 20 q29.5 0 90.5 -23 q61 -23 72 -23 q23 0 67 32 l14 10 l29 -97 q-21 -24 -52 -43.5 Z" /><glyph glyph-name="utilde" unicode="&#x169;" d="M491 500 l0 -500 l-133 0 l0 28 l-20 -10 q-19 -10 -50 -20 q-31 -10 -55 -10 q-104 0 -140 57.5 q-36 57.5 -36 192.5 q0 0 0 262 l134 0 l0 -264 q0 -74 12 -101 q12 -27 60 -27 q48 0 94 18 l0 374 l134 0 ZM423 629.5 q-10 -10.5 -38 -27.5 q-28 -17 -50.5 -17 q-22.5 0 -68.5 18 q-46 18 -60 18 q-28 0 -65 -23 l-13 -8 l-29 75 q20 23 50.5 41.5 q30.5 18.5 53 18.5 q22.5 0 69 -18 q46.5 -18 58.5 -18 q24 0 66 25 l14 9 l29 -76 q-6 -7 -16 -17.5 Z" /><glyph glyph-name="Umacron" unicode="&#x16a;" d="M206 227 q0 -119 121 -119 q121 0 121 119 l0 453 l138 0 l0 -450 q0 -125 -64.5 -183.5 q-64.5 -58.5 -194.5 -58.5 q-130 0 -194.5 58.5 q-64.5 58.5 -64.5 183.5 l0 450 l138 0 l0 -453 ZM157 782 l0 98 l347 0 l0 -98 l-347 0 Z" /><glyph glyph-name="umacron" unicode="&#x16b;" d="M491 500 l0 -500 l-133 0 l0 28 l-20 -10 q-19 -10 -50 -20 q-31 -10 -55 -10 q-104 0 -140 57.5 q-36 57.5 -36 192.5 q0 0 0 262 l134 0 l0 -264 q0 -74 12 -101 q12 -27 60 -27 q48 0 94 18 l0 374 l134 0 ZM133 597 l0 100 l287 0 l0 -100 l-287 0 Z" /><glyph glyph-name="Ubreve" unicode="&#x16c;" d="M206 227 q0 -119 121 -119 q121 0 121 119 l0 453 l138 0 l0 -450 q0 -125 -64.5 -183.5 q-64.5 -58.5 -194.5 -58.5 q-130 0 -194.5 58.5 q-64.5 58.5 -64.5 183.5 l0 450 l138 0 l0 -453 ZM266 910 q4 -25 21 -41 q17 -16 44.5 -16 q27.5 0 45 16 q17.5 16 20.5 41 l121 0 q-8 -68 -54.5 -109.5 q-46.5 -41.5 -132.5 -41.5 q-86 0 -132 41.5 q-46 41.5 -54 109.5 l121 0 Z" /><glyph glyph-name="ubreve" unicode="&#x16d;" d="M491 500 l0 -500 l-133 0 l0 28 l-20 -10 q-19 -10 -50 -20 q-31 -10 -55 -10 q-104 0 -140 57.5 q-36 57.5 -36 192.5 q0 0 0 262 l134 0 l0 -264 q0 -74 12 -101 q12 -27 60 -27 q48 0 94 18 l0 374 l134 0 ZM276 664 q56 0 63 66 l101 0 q-8 -65 -50.5 -111 q-42.5 -46 -113.5 -46 q-71 0 -113.5 46 q-42.5 46 -50.5 111 l101 0 q4 -31 20.5 -48.5 q16.5 -17.5 42.5 -17.5 Z" /><glyph glyph-name="Uring" unicode="&#x16e;" d="M206 227 q0 -119 121 -119 q121 0 121 119 l0 453 l138 0 l0 -450 q0 -125 -64.5 -183.5 q-64.5 -58.5 -194.5 -58.5 q-130 0 -194.5 58.5 q-64.5 58.5 -64.5 183.5 l0 450 l138 0 l0 -453 ZM438 931.5 q43 -33.5 43 -92.5 q0 -59 -43 -92.5 q-43 -33.5 -107 -33.5 q-64 0 -107 33.5 q-43 33.5 -43 92.5 q0 59 43 92.5 q43 33.5 107 33.5 q64 0 107 -33.5 ZM288 869 q-16 -11 -16 -30 q0 -19 16 -30 q16 -11 43 -11 q27 0 43 11 q16 11 16 30 q0 19 -16 30 q-16 11 -43 11 q-27 0 -43 -11 Z" /><glyph glyph-name="uring" unicode="&#x16f;" d="M491 500 l0 -500 l-133 0 l0 28 l-20 -10 q-19 -10 -50 -20 q-31 -10 -55 -10 q-104 0 -140 57.5 q-36 57.5 -36 192.5 q0 0 0 262 l134 0 l0 -264 q0 -74 12 -101 q12 -27 60 -27 q48 0 94 18 l0 374 l134 0 ZM275.5 521 q-49.5 0 -83 33.5 q-33.5 33.5 -33.5 83 q0 49.5 33.5 83.5 q33.5 34 83 34 q49.5 0 83.5 -34 q34 -34 34 -83.5 q0 -49.5 -34 -83 q-34 -33.5 -83.5 -33.5 ZM244 670.5 q-13 -12.5 -13 -32.5 q0 -20 13 -33 q13 -13 33 -13 q20 0 32.5 13 q12.5 13 12.5 33 q0 20 -13 32.5 q-13 12.5 -32.5 12.5 q-19.5 0 -32.5 -12.5 Z" /><glyph glyph-name="Uhungarumlaut" unicode="&#x170;" d="M206 227 q0 -119 121 -119 q121 0 121 119 l0 453 l138 0 l0 -450 q0 -125 -64.5 -183.5 q-64.5 -58.5 -194.5 -58.5 q-130 0 -194.5 58.5 q-64.5 58.5 -64.5 183.5 l0 450 l138 0 l0 -453 ZM361 775 l67 197 l116 -42 l-78 -191 l-105 36 ZM153 776 l67 197 l116 -42 l-78 -191 l-105 36 Z" /><glyph glyph-name="uhungarumlaut" unicode="&#x171;" d="M491 500 l0 -500 l-133 0 l0 28 l-20 -10 q-19 -10 -50 -20 q-31 -10 -55 -10 q-104 0 -140 57.5 q-36 57.5 -36 192.5 q0 0 0 262 l134 0 l0 -264 q0 -74 12 -101 q12 -27 60 -27 q48 0 94 18 l0 374 l134 0 ZM300 628 l117 190 l109 -67 l-125 -188 l-101 65 ZM96 628 l117 189 l109 -66 l-125 -188 l-101 65 Z" /><glyph glyph-name="Uogonek" unicode="&#x172;" d="M207 227 q0 -119 121 -119 q121 0 121 119 l0 453 l138 0 l0 -450 q0 -197 -167 -233 q-53 -45 -53 -78 q0 -33 32 -33 l42 4 l12 -95 q-59 -11 -104.5 -11 q-45.5 0 -76 26 q-30.5 26 -30.5 70 q0 60 53 109 q-113 7 -169.5 65 q-56.5 58 -56.5 176 l0 450 l138 0 l0 -453 Z" /><glyph glyph-name="uogonek" unicode="&#x173;" d="M357 499 l134 0 l0 -499 q-8 -4 -20 -11 q-12 -7 -31.5 -28.5 q-19.5 -21.5 -19.5 -41.5 q0 -33 32 -33 l42 4 l12 -95 q-59 -11 -104.5 -11 q-45.5 0 -76 26 q-30.5 26 -30.5 70 q0 66 74 120 l-12 0 l0 21 q-78 -33 -124 -33 q-105 0 -140.5 57 q-35.5 57 -35.5 193 l0 261 l134 0 l0 -261 q0 -76 11.5 -102.5 q11.5 -26.5 58.5 -26.5 q26 0 79 13 l17 4 l0 373 Z" /><glyph glyph-name="Wcircumflex" unicode="&#x174;" d="M19 680 l145 0 l84 -562 l15 0 l122 562 l160 0 l122 -562 l15 0 l84 562 l145 0 l-130 -680 l-209 0 l-107 517 l-107 -517 l-209 0 l-130 680 ZM273 765 l134 149 l117 0 l134 -149 l-142 0 l-49 56 l-52 -56 l-142 0 Z" /><glyph glyph-name="wcircumflex" unicode="&#x175;" d="M24 500 l132 0 l61 -386 l24 0 l76 376 l138 0 l76 -376 l24 0 l61 386 l132 0 l-95 -500 l-210 0 l-57 306 l-57 -306 l-210 0 l-95 500 ZM219 580 l126 151 l84 0 l128 -151 l-123 0 l-46 67 l-46 -67 l-123 0 Z" /><glyph glyph-name="Ycircumflex" unicode="&#x176;" d="M348 0 l-138 0 l0 275 l-210 405 l153 0 l125 -271 l125 271 l153 0 l-208 -405 l0 -275 ZM88 765 l134 149 l117 0 l134 -149 l-142 0 l-49 56 l-52 -56 l-142 0 Z" /><glyph glyph-name="ycircumflex" unicode="&#x177;" d="M16 500 l132 0 l91 -386 l23 0 l91 386 l132 0 l-176 -710 l-131 0 l55 210 l-94 0 l-123 500 ZM82 580 l126 151 l84 0 l128 -151 l-123 0 l-46 67 l-46 -67 l-123 0 Z" /><glyph glyph-name="Ydieresis" unicode="&#x178;" d="M348 0 l-138 0 l0 275 l-210 405 l153 0 l125 -271 l125 271 l153 0 l-208 -405 l0 -275 ZM105 764 l0 132 l128 0 l0 -132 l-128 0 ZM319 764 l0 132 l128 0 l0 -132 l-128 0 Z" /><glyph glyph-name="Zacute" unicode="&#x179;" d="M41 560 l0 120 l450 0 l0 -120 l-284 -422 l0 -18 l284 0 l0 -120 l-450 0 l0 119 l284 423 l0 18 l-284 0 ZM121 839 l252 106 l41 -120 l-260 -79 l-33 93 Z" /><glyph glyph-name="zacute" unicode="&#x17a;" d="M41 500 l371 0 l0 -120 l-210 -260 l210 0 l0 -120 l-371 0 l0 120 l210 260 l-210 0 l0 120 ZM82 651 l252 102 l40 -115 l-262 -74 l-30 87 Z" /><glyph glyph-name="Zdotaccent" unicode="&#x17b;" d="M41 560 l0 120 l450 0 l0 -120 l-284 -422 l0 -18 l284 0 l0 -120 l-450 0 l0 119 l284 423 l0 18 l-284 0 ZM199 767 l0 135 l134 0 l0 -135 l-134 0 Z" /><glyph glyph-name="zdotaccent" unicode="&#x17c;" d="M41 500 l371 0 l0 -120 l-210 -260 l210 0 l0 -120 l-371 0 l0 120 l210 260 l-210 0 l0 120 ZM159 556 l0 135 l134 0 l0 -135 l-134 0 Z" /><glyph glyph-name="Zcaron" unicode="&#x17d;" d="M41 560 l0 120 l450 0 l0 -120 l-284 -422 l0 -18 l284 0 l0 -120 l-450 0 l0 119 l284 423 l0 18 l-284 0 ZM210 765 l-134 149 l142 0 l52 -56 l49 56 l142 0 l-134 -149 l-117 0 Z" /><glyph glyph-name="zcaron" unicode="&#x17e;" d="M41 380 l0 120 l371 0 l0 -120 l-210 -260 l210 0 l0 -120 l-371 0 l0 120 l210 260 l-210 0 ZM194 580 l-126 151 l123 0 l46 -67 l46 67 l123 0 l-128 -151 l-84 0 Z" /><glyph glyph-name="florin" unicode="&#x192;" d="M321 -47 q0 -103 -39.5 -143 q-39.5 -40 -128.5 -40 q-51 0 -93 10 l-16 3 l0 110 q64 -3 92 -3 q51 0 51 66 l0 430 l-54 0 l0 114 l54 0 l0 24 q0 107 31.5 147.5 q31.5 40.5 114.5 40.5 q36 0 91 -10 l21 -3 l0 -109 q-44 2 -74 2 q-30 0 -40 -15.5 q-10 -15.5 -10 -53.5 l0 -23 l121 0 l0 -114 l-121 0 l0 -433 Z" /><glyph glyph-name="Aringacute" unicode="&#x1fa;" d="M450 721 q0 -33 -14 -58 l149 -663 l-138 0 l-27 123 l-238 0 l-27 -123 l-138 0 l148 660 q-15 26 -15 61 q0 59 43 92.5 q43 33.5 107 33.5 q64 0 107 -33.5 q43 -33.5 43 -92.5 ZM277 566 l-69 -323 l186 0 l-69 323 l-48 0 ZM142 939 l252 106 l41 -120 l-260 -79 l-33 93 ZM257 751 q-16 -11 -16 -30 q0 -19 16 -30 q16 -11 43 -11 l5 0 q25 1 39.5 12 q14.5 11 14.5 29.5 q0 18.5 -16 29.5 q-16 11 -43 11 q-27 0 -43 -11 Z" /><glyph glyph-name="aringacute" unicode="&#x1fb;" d="M445 344 l0 -208 q2 -24 8 -33.5 q6 -9.5 25 -13.5 l-4 -101 q-51 0 -81.5 7 q-30.5 7 -61.5 28 q-72 -35 -147 -35 q-155 0 -155 164 q0 80 43 113.5 q43 33.5 132 39.5 l107 8 l0 31 q0 31 -14 42.5 q-14 11.5 -45 11.5 l-188 -8 l-4 93 q107 29 203.5 29 q96.5 0 139 -40 q42.5 -40 42.5 -128 ZM220 212 q-56 -5 -56 -60 q0 -55 49 -55 q38 0 83 12 l15 4 l0 107 l-91 -8 ZM251.5 521 q-49.5 0 -83 33.5 q-33.5 33.5 -33.5 83 q0 49.5 33.5 83.5 q33.5 34 83 34 q49.5 0 83.5 -34 q34 -34 34 -83.5 q0 -49.5 -34 -83 q-34 -33.5 -83.5 -33.5 ZM220 670.5 q-13 -12.5 -13 -32.5 q0 -20 13 -33 q13 -13 33 -13 q20 0 32.5 13 q12.5 13 12.5 33 q0 20 -13 32.5 q-13 12.5 -32.5 12.5 q-19.5 0 -32.5 -12.5 ZM108 852 l252 102 l40 -115 l-262 -74 l-30 87 Z" /><glyph glyph-name="AEacute" unicode="&#x1fc;" d="M393 0 l0 116 l-213 0 l-29 -116 l-138 0 l184 690 l634 0 l0 -132 l-302 0 l0 -143 l242 0 l0 -131 l-242 0 l0 -152 l302 0 l0 -132 l-438 0 ZM294 558 l-80 -309 l179 0 l1 309 l-100 0 ZM365 839 l252 106 l41 -120 l-260 -79 l-33 93 Z" /><glyph glyph-name="aeacute" unicode="&#x1fd;" d="M445 192 q1 -43 24 -62 q23 -19 68 -19 q68 0 166 7 l28 2 l2 -104 q-115 -28 -212.5 -28 q-97.5 0 -148.5 48 l-23 -11 q-84 -37 -164 -37 q-80 0 -118 43.5 q-38 43.5 -38 122 q0 78.5 43.5 113 q43.5 34.5 130.5 39.5 l108 7 l0 25 q0 20 -14 32.5 q-14 12.5 -41 12.5 q-72 0 -157 -8 l-32 -3 l-4 117 q133 22 212.5 22 q79.5 0 122.5 -37 q52 37 133 37 q218 0 218 -225 l-10 -94 l-294 0 ZM311 118 l-1 93 l-90 -4 q-56 -3 -56 -51 q0 -53 41 -53 q40 0 89 11 l17 4 ZM445 295 l172 0 q0 53 -19.5 75 q-19.5 22 -67 22 q-47.5 0 -66.5 -23 q-19 -23 -19 -74 ZM256 651 l252 102 l40 -115 l-262 -74 l-30 87 Z" /><glyph glyph-name="Oslashacute" unicode="&#x1fe;" d="M327 -12 q-49 0 -96 10 l-58 -125 l-98 49 l58 124 q-88 78 -88 290 q0 181 63.5 268.5 q63.5 87.5 218.5 87.5 q57 0 101 -12 l61 130 l100 -43 l-65 -140 q85 -82 85 -291 q0 -179 -63.5 -263.5 q-63.5 -84.5 -218.5 -84.5 ZM327 572 q-80 0 -110 -56 q-30 -56 -30 -164.5 q0 -108.5 15 -157.5 l173 371 q-25 7 -48 7 ZM327 108 q81 0 110.5 52.5 q29.5 52.5 29.5 158.5 q0 106 -14 156 l-169 -363 q17 -4 43 -4 ZM170 839 l252 106 l41 -120 l-260 -79 l-33 93 Z" /><glyph glyph-name="oslashacute" unicode="&#x1ff;" d="M266 512 q28 0 56 -5 l40 100 l81 -30 l-41 -98 q94 -59 94 -228 q0 -263 -230 -263 q-34 0 -63 6 l-41 -102 l-80 30 l43 103 q-89 60 -89 226 q0 124 53 192.5 q53 68.5 177 68.5 ZM121 651 l252 102 l40 -115 l-262 -74 l-30 87 ZM266 102 q53 0 73.5 36 q20.5 36 20.5 107 q0 71 -14 105 l-100 -247 q6 -1 20 -1 ZM266 398 q-53 0 -73.5 -35 q-20.5 -35 -20.5 -105 q0 -70 12 -102 l95 241 q-2 0 -6.5 0.5 q-4.5 0.5 -6.5 0.5 Z" /><glyph glyph-name="Scommaaccent" unicode="&#x218;" d="M215 -77 l130 0 l-55 -234 l-121 0 l46 234 ZM283 572 q-109 0 -109 -72 q0 -32 27 -49 q27 -17 126.5 -49 q99.5 -32 139.5 -72.5 q40 -40.5 40 -124.5 q0 -107 -65 -162 q-65 -55 -170 -55 q-78 0 -191 24 l-36 7 l14 107 q134 -18 205 -18 q106 0 106 88 q0 32 -24.5 50 q-24.5 18 -97.5 39 q-116 33 -163.5 78.5 q-47.5 45.5 -47.5 126.5 q0 102 62 152 q62 50 170 50 q74 0 188 -20 l36 -7 l-11 -109 q-141 16 -199 16 Z" /><glyph glyph-name="scommaaccent" unicode="&#x219;" d="M29 -77 l130 0 l-55 -234 l-121 0 l46 234 ZM421 375 q-124 16 -173.5 16 q-49.5 0 -64 -9 q-14.5 -9 -14.5 -28.5 q0 -19.5 19.5 -27 q19.5 -7.5 100 -22 q80.5 -14.5 114.5 -47.5 q34 -33 34 -107 q0 -162 -201 -162 q-66 0 -160 18 l-32 6 l4 112 q124 -16 172.5 -16 q48.5 0 66 9.5 q17.5 9.5 17.5 28.5 q0 19 -18.5 28 q-18.5 9 -96 22 q-77.5 13 -115.5 44 q-38 31 -38 110.5 q0 79.5 54 120 q54 40.5 139 40.5 q59 0 161 -19 l33 -6 l-2 -111 Z" /><glyph glyph-name="Tcommaaccent" unicode="&#x21a;" d="M223 -77 l130 0 l-55 -234 l-121 0 l46 234 ZM13 558 l0 122 l500 0 l0 -122 l-180 0 l0 -558 l-138 0 l0 558 l-182 0 Z" /><glyph glyph-name="tcommaaccent" unicode="&#x21b;" d="M49 -77 l130 0 l-55 -234 l-121 0 l46 234 ZM339 386 l-123 0 l0 -205 q0 -30 1.5 -42.5 q1.5 -12.5 11 -21.5 q9.5 -9 29.5 -9 l76 2 l6 -107 q-67 -15 -102 -15 q-90 0 -123 40.5 q-33 40.5 -33 149.5 l0 208 l-59 0 l0 114 l59 0 l0 139 l134 0 l0 -139 l123 0 l0 -114 Z" /><glyph glyph-name="circumflex" unicode="&#x2c6;" d="M-24 580 l126 151 l84 0 l128 -151 l-123 0 l-46 67 l-46 -67 l-123 0 Z" /><glyph glyph-name="caron" unicode="&#x2c7;" d="M106 580 l-126 151 l123 0 l46 -67 l46 67 l123 0 l-128 -151 l-84 0 Z" /><glyph glyph-name="breve" unicode="&#x2d8;" d="M144 664 q56 0 63 66 l101 0 q-8 -65 -50.5 -111 q-42.5 -46 -113.5 -46 q-71 0 -113.5 46 q-42.5 46 -50.5 111 l101 0 q4 -31 20.5 -48.5 q16.5 -17.5 42.5 -17.5 Z" /><glyph glyph-name="dotaccent" unicode="&#x2d9;" d="M67 556 l0 135 l134 0 l0 -135 l-134 0 Z" /><glyph glyph-name="ring" unicode="&#x2da;" d="M136.5 521 q-49.5 0 -83 33.5 q-33.5 33.5 -33.5 83 q0 49.5 33.5 83.5 q33.5 34 83 34 q49.5 0 83.5 -34 q34 -34 34 -83.5 q0 -49.5 -34 -83 q-34 -33.5 -83.5 -33.5 ZM105 670.5 q-13 -12.5 -13 -32.5 q0 -20 13 -33 q13 -13 33 -13 q20 0 32.5 13 q12.5 13 12.5 33 q0 20 -12.5 32.5 q-12.5 12.5 -32.5 12.5 q-20 0 -33 -12.5 Z" /><glyph glyph-name="ogonek" unicode="&#x2db;" d="M402 1 q-58 -47 -58 -81 q0 -34 32 -34 l42 4 l12 -95 q-59 -11 -104.5 -11 q-45.5 0 -76 26 q-30.5 26 -30.5 66 q0 40 20.5 72.5 q20.5 32.5 40.5 47.5 l20 15 l102 -10 Z" /><glyph glyph-name="tilde" unicode="&#x2dc;" d="M302 629.5 q-10 -10.5 -38 -27.5 q-28 -17 -50.5 -17 q-22.5 0 -68.5 18 q-46 18 -59 18 q-29 0 -66 -23 l-13 -8 l-29 75 q20 23 50.5 41.5 q30.5 18.5 53 18.5 q22.5 0 69 -18 q46.5 -18 58.5 -18 q24 0 66 25 l14 9 l29 -76 q-6 -7 -16 -17.5 Z" /><glyph glyph-name="hungarumlaut" unicode="&#x2dd;" d="M154 628 l117 190 l109 -67 l-125 -188 l-101 65 ZM-50 628 l117 189 l109 -66 l-125 -188 l-101 65 Z" /><glyph glyph-name="pi" unicode="&#x3c0;" d="M320 154 l0 232 l-85 0 l-26 -386 l-135 0 l32 386 q-32 0 -73 -10 l-15 -3 l0 109 q64 18 150 18 l251 0 q51 0 95 9 l14 3 l0 -110 q-24 -11 -74 -14 l0 -234 q0 -27 14 -38.5 q14 -11.5 55 -11.5 l0 -114 q-70 0 -108.5 6 q-38.5 6 -60.5 26.5 q-22 20.5 -28 49 q-6 28.5 -6 82.5 Z" /><glyph glyph-name="Wgrave" unicode="&#x1e80;" d="M19 680 l145 0 l84 -562 l15 0 l122 562 l160 0 l122 -562 l15 0 l84 562 l145 0 l-130 -680 l-209 0 l-107 517 l-107 -517 l-209 0 l-130 680 ZM368 945 l252 -106 l-33 -93 l-260 79 l41 120 Z" /><glyph glyph-name="wgrave" unicode="&#x1e81;" d="M24 500 l132 0 l61 -386 l24 0 l76 376 l138 0 l76 -376 l24 0 l61 386 l132 0 l-95 -500 l-210 0 l-57 306 l-57 -306 l-210 0 l-95 500 ZM264 753 l252 -102 l-30 -87 l-262 74 l40 115 Z" /><glyph glyph-name="Wacute" unicode="&#x1e82;" d="M19 680 l145 0 l84 -562 l15 0 l122 562 l160 0 l122 -562 l15 0 l84 562 l145 0 l-130 -680 l-209 0 l-107 517 l-107 -517 l-209 0 l-130 680 ZM329 839 l252 106 l41 -120 l-260 -79 l-33 93 Z" /><glyph glyph-name="wacute" unicode="&#x1e83;" d="M24 500 l132 0 l61 -386 l24 0 l76 376 l138 0 l76 -376 l24 0 l61 386 l132 0 l-95 -500 l-210 0 l-57 306 l-57 -306 l-210 0 l-95 500 ZM251 651 l252 102 l40 -115 l-262 -74 l-30 87 Z" /><glyph glyph-name="Wdieresis" unicode="&#x1e84;" d="M19 680 l145 0 l84 -562 l15 0 l122 562 l160 0 l122 -562 l15 0 l84 562 l145 0 l-130 -680 l-209 0 l-107 517 l-107 -517 l-209 0 l-130 680 ZM292 764 l0 132 l128 0 l0 -132 l-128 0 ZM506 764 l0 132 l128 0 l0 -132 l-128 0 Z" /><glyph glyph-name="wdieresis" unicode="&#x1e85;" d="M24 500 l132 0 l61 -386 l24 0 l76 376 l138 0 l76 -376 l24 0 l61 386 l132 0 l-95 -500 l-210 0 l-57 306 l-57 -306 l-210 0 l-95 500 ZM216 596 l0 132 l128 0 l0 -132 l-128 0 ZM432 596 l0 132 l128 0 l0 -132 l-128 0 Z" /><glyph glyph-name="uni1EAB" unicode="&#x1eab;" d="M445 344 l0 -208 q2 -24 8 -33.5 q6 -9.5 25 -13.5 l-4 -101 q-51 0 -81.5 7 q-30.5 7 -61.5 28 q-72 -35 -147 -35 q-155 0 -155 164 q0 80 43 113.5 q43 33.5 132 39.5 l107 8 l0 31 q0 31 -14 42.5 q-14 11.5 -45 11.5 l-188 -8 l-4 93 q107 29 203.5 29 q96.5 0 139 -40 q42.5 -40 42.5 -128 ZM220 212 q-56 -5 -56 -60 q0 -55 49 -55 q38 0 83 12 l15 4 l0 107 l-91 -8 ZM66 550 l126 151 l84 0 l128 -151 l-123 0 l-46 67 l-46 -67 l-123 0 ZM385 789.5 q-10 -10.5 -38 -27.5 q-28 -17 -50.5 -17 q-22.5 0 -68.5 18 q-46 18 -60 18 q-28 0 -65 -23 l-13 -8 l-29 75 q20 23 50.5 41.5 q30.5 18.5 53 18.5 q22.5 0 69 -18 q46.5 -18 58.5 -18 q24 0 66 25 l14 9 l29 -76 q-6 -7 -16 -17.5 Z" /><glyph glyph-name="uni1EB0" unicode="&#x1eb0;" d="M17 0 l153 690 l262 0 l150 -690 l-138 0 l-31 116 l-232 0 l-26 -116 l-138 0 ZM277 563 l-67 -314 l177 0 l-65 314 l-45 0 ZM239 870 q4 -25 21 -41 q17 -16 44.5 -16 q27.5 0 45 16 q17.5 16 20.5 41 l121 0 q-8 -68 -54.5 -109.5 q-46.5 -41.5 -132.5 -41.5 q-86 0 -132 41.5 q-46 41.5 -54 109.5 l121 0 ZM143 1114 l252 -102 l-30 -87 l-262 74 l40 115 Z" /><glyph glyph-name="uni1EC5" unicode="&#x1ec5;" d="M172 192 q1 -43 24 -62 q23 -19 68 -19 q68 0 166 7 l28 2 l2 -104 q-115 -28 -208 -28 q-113 0 -164 60 q-51 60 -51 195 q0 268 221 268 q218 0 218 -225 l-10 -94 l-294 0 ZM344 295 q0 53 -19.5 75 q-19.5 22 -66.5 22 q-47 0 -66.5 -23 q-19.5 -23 -20.5 -74 l173 0 ZM95 550 l126 151 l84 0 l128 -151 l-123 0 l-46 67 l-46 -67 l-123 0 ZM407 789.5 q-10 -10.5 -38 -27.5 q-28 -17 -50.5 -17 q-22.5 0 -68.5 18 q-46 18 -60 18 q-28 0 -65 -23 l-13 -8 l-29 75 q20 23 50.5 41.5 q30.5 18.5 53 18.5 q22.5 0 69 -18 q46.5 -18 58.5 -18 q24 0 66 25 l14 9 l29 -76 q-6 -7 -16 -17.5 Z" /><glyph glyph-name="uni1ED7" unicode="&#x1ed7;" d="M89 443.5 q53 68.5 177 68.5 q124 0 177 -68.5 q53 -68.5 53 -192.5 q0 -263 -230 -263 q-230 0 -230 263 q0 124 53 192.5 ZM192.5 138 q20.5 -36 73.5 -36 q53 0 73.5 36 q20.5 36 20.5 113 q0 77 -20.5 112 q-20.5 35 -73.5 35 q-53 0 -73.5 -35 q-20.5 -35 -20.5 -112 q0 -77 20.5 -113 ZM98 550 l126 151 l84 0 l128 -151 l-123 0 l-46 67 l-46 -67 l-123 0 ZM407 789.5 q-10 -10.5 -38 -27.5 q-28 -17 -50.5 -17 q-22.5 0 -68.5 18 q-46 18 -60 18 q-28 0 -65 -23 l-13 -8 l-29 75 q20 23 50.5 41.5 q30.5 18.5 53 18.5 q22.5 0 69 -18 q46.5 -18 58.5 -18 q24 0 66 25 l14 9 l29 -76 q-6 -7 -16 -17.5 Z" /><glyph glyph-name="Ygrave" unicode="&#x1ef2;" d="M348 0 l-138 0 l0 275 l-210 405 l153 0 l125 -271 l125 271 l153 0 l-208 -405 l0 -275 ZM182 945 l252 -106 l-33 -93 l-260 79 l41 120 Z" /><glyph glyph-name="ygrave" unicode="&#x1ef3;" d="M16 500 l132 0 l91 -386 l23 0 l91 386 l132 0 l-176 -710 l-131 0 l55 210 l-94 0 l-123 500 ZM120 753 l252 -102 l-30 -87 l-262 74 l40 115 Z" /><glyph glyph-name="uni1EF8" unicode="&#x1ef8;" d="M341 0 l-138 0 l0 295 l-208 395 l153 0 l123 -241 l122 241 l153 0 l-205 -396 l0 -294 ZM422 820.5 q-10 -10.5 -38 -27.5 q-28 -17 -50.5 -17 q-22.5 0 -68.5 18 q-46 18 -59 18 q-25 0 -66 -24 l-13 -7 l-29 75 q20 23 50.5 41.5 q30.5 18.5 53 18.5 q22.5 0 69 -18 q46.5 -18 58.5 -18 q24 0 66 26 l14 8 l29 -76 q-6 -7 -16 -17.5 Z" /><glyph glyph-name="uni1EF9" unicode="&#x1ef9;" d="M16 499 l132 0 l91 -368 l23 0 l91 368 l132 0 l-176 -709 l-131 0 l51 210 l-90 0 l-123 499 ZM402 629.5 q-10 -10.5 -38 -27.5 q-28 -17 -50.5 -17 q-22.5 0 -68.5 18 q-46 18 -59 18 q-29 0 -66 -23 l-13 -8 l-29 75 q20 23 50.5 41.5 q30.5 18.5 53 18.5 q22.5 0 69 -18 q46.5 -18 58.5 -18 q24 0 66 25 l14 9 l29 -76 q-6 -7 -16 -17.5 Z" /><glyph glyph-name="endash" unicode="&#x2013;" d="M57 323 l500 0 l0 -114 l-500 0 l0 114 Z" /><glyph glyph-name="emdash" unicode="&#x2014;" d="M57 323 l1000 0 l0 -114 l-1000 0 l0 114 Z" /><glyph glyph-name="quoteleft" unicode="&#x2018;" d="M223 679 l-48 -247 l-140 0 l85 247 l103 0 Z" /><glyph glyph-name="quoteright" unicode="&#x2019;" d="M41 433 l47 247 l141 0 l-85 -247 l-103 0 Z" /><glyph glyph-name="quotesinglbase" unicode="&#x201a;" d="M23 -117 l47 247 l141 0 l-85 -247 l-103 0 Z" /><glyph glyph-name="quotedblleft" unicode="&#x201c;" d="M407 679 l-48 -247 l-140 0 l85 247 l103 0 ZM223 679 l-48 -247 l-140 0 l85 247 l103 0 Z" /><glyph glyph-name="quotedblright" unicode="&#x201d;" d="M41 434 l47 247 l141 0 l-86 -247 l-102 0 ZM225 434 l47 247 l141 0 l-85 -247 l-103 0 Z" /><glyph glyph-name="quotedblbase" unicode="&#x201e;" d="M181 117 l-48 -247 l-140 0 l85 247 l103 0 ZM371 117 l-48 -247 l-140 0 l85 247 l103 0 Z" /><glyph glyph-name="dagger" unicode="&#x2020;" d="M28 386 l0 114 l145 0 l0 180 l134 0 l0 -180 l145 0 l0 -114 l-145 0 l-10 -457 l-114 0 l-10 457 l-145 0 Z" /><glyph glyph-name="daggerdbl" unicode="&#x2021;" d="M189 -71 l0 180 l-145 0 l0 114 l145 0 l0 163 l-145 0 l0 114 l145 0 l0 180 l134 0 l0 -180 l144 0 l0 -114 l-144 0 l0 -163 l145 0 l0 -114 l-145 0 l0 -180 l-134 0 Z" /><glyph glyph-name="bullet" unicode="&#x2022;" d="M100 100 l0 280 l250 0 l0 -280 l-250 0 Z" /><glyph glyph-name="ellipsis" unicode="&#x2026;" d="M56 0 l0 166 l144 0 l0 -166 l-144 0 ZM311 0 l0 166 l144 0 l0 -166 l-144 0 ZM566 0 l0 166 l144 0 l0 -166 l-144 0 Z" /><glyph glyph-name="perthousand" unicode="&#x2030;" d="M166.5 577.5 q-4.5 14.5 -17.5 14.5 q-13 0 -17.5 -14.5 q-4.5 -14.5 -4.5 -50.5 q0 -36 4.5 -51 q4.5 -15 17.5 -15 q13 0 17.5 15 q4.5 15 4.5 51 q0 36 -4.5 50.5 ZM140 -8 l235 707 l73 -26 l-235 -705 l-73 24 ZM29 526.5 q0 145.5 120 145.5 q120 0 120 -145.5 q0 -145.5 -120 -145.5 q-120 0 -120 145.5 ZM561 133.5 q0 -145.5 -120 -145.5 q-120 0 -120 145.5 q0 145.5 120 145.5 q120 0 120 -145.5 ZM423.5 184.5 q-4.5 -14.5 -4.5 -50.5 q0 -36 4.5 -51 q4.5 -15 17.5 -15 q13 0 17.5 15 q4.5 15 4.5 51 q0 36 -4.5 50.5 q-4.5 14.5 -17.5 14.5 q-13 0 -17.5 -14.5 ZM818 133.5 q0 -145.5 -120 -145.5 q-120 0 -120 145.5 q0 145.5 120 145.5 q120 0 120 -145.5 ZM680.5 184.5 q-4.5 -14.5 -4.5 -50.5 q0 -36 4.5 -51 q4.5 -15 17.5 -15 q13 0 17.5 15 q4.5 15 4.5 51 q0 36 -4.5 50.5 q-4.5 14.5 -17.5 14.5 q-13 0 -17.5 -14.5 Z" /><glyph glyph-name="guilsinglleft" unicode="&#x2039;" d="M263 319 l-109 -75 l109 -86 l0 -135 l-223 171 l0 96 l223 164 l0 -135 Z" /><glyph glyph-name="guilsinglright" unicode="&#x203a;" d="M163 254 l-109 75 l0 135 l223 -164 l0 -96 l-223 -171 l0 135 l109 86 Z" /><glyph glyph-name="fraction" unicode="&#x2044;" d="M-224 29 l393 632 l53 -35 l-393 -633 l-53 36 Z" /><glyph glyph-name="zerosuperior" unicode="&#x2070;" d="M42.5 763 q31.5 38 97.5 38 q66 0 97.5 -38 q31.5 -38 31.5 -130.5 q0 -92.5 -31 -129 q-31 -36.5 -98 -36.5 q-67 0 -98 36.5 q-31 36.5 -31 129 q0 92.5 31.5 130.5 ZM140 706 q-7 0 -11 -4.5 q-4 -4.5 -6 -21 q-2 -16.5 -2 -48.5 q0 -32 2.5 -47.5 q2.5 -15.5 6 -19 q3.5 -3.5 12.5 -3.5 q9 0 13 12 q4 12 4 58.5 q0 46.5 -4 60 q-4 13.5 -15 13.5 Z" /><glyph glyph-name="foursuperior" unicode="&#x2074;" d="M146 478 l0 35 l-132 0 l0 88 l39 189 l118 0 l-52 -182 l27 0 l14 90 l91 0 l0 -90 l11 0 l0 -95 l-11 0 l0 -35 l-105 0 Z" /><glyph glyph-name="fivesuperior" unicode="&#x2075;" d="M251 790 l0 -90 l-124 0 l-3 -25 q28 6 44 6 q93 0 93 -99 q0 -111 -118 -111 q-46 0 -100 11 l-18 3 l8 85 q56 -9 87 -9 q31 0 31 15.5 q0 15.5 -14 15.5 l-26 -4 l-78 11 l11 191 l207 0 Z" /><glyph glyph-name="sixsuperior" unicode="&#x2076;" d="M124 682 q30 5 38 5 q54 0 79 -26 q25 -26 25 -79.5 q0 -53.5 -33.5 -84 q-33.5 -30.5 -85.5 -30.5 q-131 0 -131 155 q0 89 30.5 134 q30.5 45 106.5 45 q32 0 86 -9 l18 -3 l-6 -87 q-66 6 -96.5 6 q-30.5 0 -30.5 -26 ZM143 601 q-11 0 -19 -8 q0 -34 17.5 -34 q17.5 0 17.5 21 q0 21 -16 21 Z" /><glyph glyph-name="sevensuperior" unicode="&#x2077;" d="M26 685 l0 105 l227 0 l0 -101 l-95 -221 l-121 19 l91 185 l0 13 l-102 0 Z" /><glyph glyph-name="eightsuperior" unicode="&#x2078;" d="M17 712 q0 89 123.5 89 q123.5 0 123.5 -90 q0 -38 -20 -63 l-7 -8 q13 -9 22 -27.5 q9 -18.5 9 -40.5 q0 -57 -32 -81 q-32 -24 -96.5 -24 q-64.5 0 -96 24 q-31.5 24 -31.5 81 q0 20 8 37 q8 17 16 25 l8 7 q-27 20 -27 71 ZM121 574 q0 -22 19 -22 q19 0 19 22 q0 13 -12 25 l-14 0 q-12 -12 -12 -25 ZM158 697 q0 19 -18 19 q-18 0 -18 -19 q0 -12 11 -25 l14 0 q11 13 11 25 Z" /><glyph glyph-name="ninesuperior" unicode="&#x2079;" d="M152 585 q-20 -4 -35 -4 q-102 0 -102 104 q0 55 32 85.5 q32 30.5 87 30.5 q131 0 131 -165 q0 -87 -30 -128 q-30 -41 -101 -41 q-42 0 -92 11 l-16 3 l6 87 q49 -6 84.5 -6 q35.5 0 35.5 23 ZM138 708 q-16 0 -16 -22.5 q0 -22.5 16 -22.5 l19 6 q0 39 -19 39 Z" /><glyph glyph-name="zeroinferior" unicode="&#x2080;" d="M42.5 185 q31.5 38 97.5 38 q66 0 97.5 -38 q31.5 -38 31.5 -130.5 q0 -92.5 -31 -129 q-31 -36.5 -98 -36.5 q-67 0 -98 36.5 q-31 36.5 -31 129 q0 92.5 31.5 130.5 ZM140 128 q-7 0 -11 -4.5 q-4 -4.5 -6 -21 q-2 -16.5 -2 -48.5 q0 -32 2.5 -47.5 q2.5 -15.5 6 -19 q3.5 -3.5 12.5 -3.5 q9 0 13 12 q4 12 4 58.5 q0 46.5 -4 60 q-4 13.5 -15 13.5 Z" /><glyph glyph-name="oneinferior" unicode="&#x2081;" d="M227 212 l0 -312 l-106 0 l0 195 l-47 -32 l-49 74 l106 75 l96 0 Z" /><glyph glyph-name="twoinferior" unicode="&#x2082;" d="M257 -100 l-231 0 l0 90 l73 59 q46 37 46 57 q0 15 -37 15 l-76 -6 l-4 99 q73 9 126 9 q53 0 78 -23 q25 -23 25 -66.5 q0 -43.5 -13 -66 q-13 -22.5 -43 -44.5 l-38 -28 l94 0 l0 -95 Z" /><glyph glyph-name="threeinferior" unicode="&#x2083;" d="M131 223 q121 0 121 -89 q0 -53 -29 -70 q35 -15 35 -70 q0 -105 -118 -105 l-121 8 l6 93 q61 -6 92 -6 q31 0 31 16 q0 14 -26 14 l-66 0 l0 85 l64 0 q20 0 20 14.5 q0 14.5 -27 14.5 l-84 -5 l-6 91 q68 9 108 9 Z" /><glyph glyph-name="fourinferior" unicode="&#x2084;" d="M150 -100 l0 35 l-132 0 l0 88 l39 189 l118 0 l-52 -182 l27 0 l14 90 l91 0 l0 -90 l11 0 l0 -95 l-11 0 l0 -35 l-105 0 Z" /><glyph glyph-name="fiveinferior" unicode="&#x2085;" d="M244 212 l0 -90 l-124 0 l-3 -25 q28 6 44 6 q93 0 93 -99 q0 -111 -118 -111 q-46 0 -100 11 l-18 3 l8 85 q56 -9 87 -9 q31 0 31 15.5 q0 15.5 -14 15.5 l-26 -4 l-78 11 l11 191 l207 0 Z" /><glyph glyph-name="sixinferior" unicode="&#x2086;" d="M120 104 q30 5 38 5 q54 0 79 -26 q25 -26 25 -79.5 q0 -53.5 -33.5 -84 q-33.5 -30.5 -85.5 -30.5 q-131 0 -131 155 q0 89 30.5 134 q30.5 45 106.5 45 q32 0 86 -9 l18 -3 l-6 -87 q-66 6 -96.5 6 q-30.5 0 -30.5 -26 ZM139 23 q-11 0 -19 -8 q0 -34 17.5 -34 q17.5 0 17.5 21 q0 21 -16 21 Z" /><glyph glyph-name="seveninferior" unicode="&#x2087;" d="M26 107 l0 105 l227 0 l0 -101 l-95 -221 l-121 19 l91 185 l0 13 l-102 0 Z" /><glyph glyph-name="eightinferior" unicode="&#x2088;" d="M16 134 q0 89 123.5 89 q123.5 0 123.5 -90 q0 -20 -6.5 -37.5 q-6.5 -17.5 -13.5 -25.5 l-7 -8 q13 -9 22 -27.5 q9 -18.5 9 -40.5 q0 -57 -32 -81 q-32 -24 -96.5 -24 q-64.5 0 -96 24 q-31.5 24 -31.5 81 q0 20 8 37 q8 17 16 25 l8 7 q-27 20 -27 71 ZM120 -4 q0 -22 19 -22 q19 0 19 22 q0 13 -12 25 l-14 0 q-12 -12 -12 -25 ZM157 119 q0 19 -18 19 q-18 0 -18 -19 q0 -12 11 -25 l14 0 q11 13 11 25 Z" /><glyph glyph-name="nineinferior" unicode="&#x2089;" d="M151 7 q-20 -4 -35 -4 q-102 0 -102 104 q0 55 32 85.5 q32 30.5 87 30.5 q131 0 131 -165 q0 -87 -30 -128 q-30 -41 -101 -41 q-42 0 -91 11 l-17 3 l6 87 q49 -6 84.5 -6 q35.5 0 35.5 23 ZM137 130 q-16 0 -16 -22.5 q0 -22.5 16 -22.5 l19 6 q0 39 -19 39 Z" /><glyph glyph-name="Euro" unicode="&#x20ac;" d="M26 355 l0 102 l62 0 q15 117 70.5 166 q55.5 49 174.5 49 q77 0 193 -26 l-4 -107 q-88 14 -157.5 14 q-69.5 0 -97.5 -20 q-28 -20 -40 -76 l235 0 l0 -102 l-243 0 l0 -66 l243 0 l0 -102 l-231 0 q12 -45 40 -62.5 q28 -17.5 90 -17.5 q62 0 161 13 l3 -109 q-101 -23 -203.5 -23 q-102.5 0 -158.5 48 q-56 48 -73 151 l-64 0 l0 102 l55 0 l0 66 l-55 0 Z" /><glyph glyph-name="trademark" unicode="&#x2122;" d="M80 565 l0 79 l200 0 l0 -79 l-41 0 l0 -233 l-88 0 l0 233 l-71 0 ZM305 331 l0 313 l103 0 l41 -158 l45 158 l102 0 l0 -313 l-82 0 l0 174 l-34 -153 l-55 0 l-38 153 l0 -174 l-82 0 Z" /><glyph glyph-name="Omega" unicode="&#x2126;" d="M52 105 l80 0 q-9 9 -28.5 43 q-19.5 34 -31.5 64 q-32 82 -32 173 q0 151 56 219 q56 68 184 68 q128 0 184 -68 q56 -68 56 -219 q0 -76 -23 -146 q-23 -70 -46 -102 l-23 -32 l80 0 l0 -114 l-208 0 l0 99 q29 49 53.5 126.5 q24.5 77.5 24.5 133.5 q0 116 -18.5 159 q-18.5 43 -79.5 43 q-61 0 -79.5 -43 q-18.5 -43 -18.5 -159 q0 -56 19.5 -121 q19.5 -65 38.5 -102 l20 -37 l0 -99 l-208 0 l0 114 Z" /><glyph glyph-name="partialdiff" unicode="&#x2202;" d="M262 712 q135 0 195.5 -89 q60.5 -89 60.5 -274 q0 -185 -60 -271.5 q-60 -86.5 -195 -86.5 q-235 0 -235 225 q0 106 57 164 q57 58 162 58 q61 0 111 -18 l16 -6 q-6 105 -34 144.5 q-28 39.5 -101 39.5 q-32 0 -70.5 -8.5 q-38.5 -8.5 -60.5 -17.5 l-23 -8 l-4 103 q85 45 181 45 ZM264 324 q-92 0 -92 -109.5 q0 -109.5 91 -109.5 q56 0 83.5 46.5 q27.5 46.5 27.5 150.5 q-38 22 -110 22 Z" /><glyph glyph-name="Delta" unicode="&#x2206;" d="M516 0 l-472 0 l0 104 l124 556 l225 0 l123 -558 l0 -102 ZM294 548 l-27 0 l-90 -434 l206 0 l-89 434 Z" /><glyph glyph-name="product" unicode="&#x220f;" d="M335 -180 l0 820 l-113 0 l0 -820 l-138 0 l0 820 l-53 0 l0 120 l499 0 l0 -120 l-57 0 l0 -820 l-138 0 Z" /><glyph glyph-name="summation" unicode="&#x2211;" d="M30 760 l500 0 l0 -120 l-354 0 l0 -15 l215 -281 l0 -93 l-215 -296 l0 -15 l354 0 l0 -120 l-500 0 l0 139 l238 339 l-238 322 l0 140 Z" /><glyph glyph-name="minus" unicode="&#x2212;" d="M62 191 l0 120 l436 0 l0 -120 l-436 0 Z" /><glyph glyph-name="radical" unicode="&#x221a;" d="M1 320 l0 120 l166 0 l92 -456 l13 0 l163 807 l136 0 l-200 -921 l-214 0 l-102 450 l-54 0 Z" /><glyph glyph-name="infinity" unicode="&#x221e;" d="M166 121 q-139 0 -139 171 q0 171 137 171 q75 0 116 -78 q41 78 116 78 q137 0 137 -171 q0 -171 -139 -171 q-75 0 -114 77 q-40 -77 -114 -77 ZM185 348 q-36 0 -36 -56 q0 -56 36 -56 q13 0 24 13.5 q11 13.5 26 42.5 q-28 56 -50 56 ZM375 236 q36 0 36 56 q0 56 -36 56 q-22 0 -50 -56 q15 -29 26 -42.5 q11 -13.5 24 -13.5 Z" /><glyph glyph-name="integral" unicode="&#x222b;" d="M345 -16 q0 -183 -149 -183 q-30 0 -82 10 l-15 3 l4 110 q25 -3 53.5 -3 q28.5 0 39.5 14.5 q11 14.5 11 51.5 l0 606 q0 106 33 147 q33 41 116 41 q33 0 87 -11 l18 -3 l-4 -110 q-32 4 -62 4 q-30 0 -40 -15.5 q-10 -15.5 -10 -53.5 l0 -608 Z" /><glyph glyph-name="approxequal" unicode="&#x2248;" d="M446 281 q-34 -16 -62.5 -16 q-28.5 0 -108 22 q-79.5 22 -99 22 q-19.5 0 -47 -9.5 q-27.5 -9.5 -43.5 -19.5 l-17 -10 l-10 107 q22 19 59.5 35.5 q37.5 16.5 65 16.5 q27.5 0 104 -22 q76.5 -22 96.5 -22 q39 0 90 29 l17 9 l8 -107 q-19 -19 -53 -35 ZM446 61 q-34 -16 -62.5 -16 q-28.5 0 -108 22 q-79.5 22 -99 22 q-19.5 0 -47 -9.5 q-27.5 -9.5 -43.5 -19.5 l-17 -10 l-10 107 q22 19 59.5 35.5 q37.5 16.5 65 16.5 q27.5 0 104 -22 q76.5 -22 96.5 -22 q39 0 90 29 l17 9 l8 -107 q-19 -19 -53 -35 Z" /><glyph glyph-name="notequal" unicode="&#x2260;" d="M57 295 l0 121 l228 0 l68 154 l104 -41 l-50 -113 l94 0 l0 -121 l-147 0 l-38 -87 l185 0 l0 -121 l-238 0 l-63 -143 l-104 41 l45 102 l-84 0 l0 121 l137 0 l38 87 l-175 0 Z" /><glyph glyph-name="lessequal" unicode="&#x2264;" d="M487 386 l-272 -49 l272 -54 l0 -130 l-421 121 l0 116 l421 126 l0 -130 ZM66 19 l0 120 l421 0 l0 -120 l-421 0 Z" /><glyph glyph-name="greaterequal" unicode="&#x2265;" d="M345 337 l-272 49 l0 130 l421 -126 l0 -116 l-421 -121 l0 130 l272 54 ZM494 139 l0 -120 l-421 0 l0 120 l421 0 Z" /><glyph glyph-name="lozenge" unicode="&#x25ca;" d="M193 0 l-149 324 l149 336 l175 0 l148 -336 l-148 -324 l-175 0 ZM289 114 l94 210 l-94 222 l-17 0 l-95 -222 l95 -210 l17 0 Z" /><glyph glyph-name="dotlessj" unicode="&#xf6be;" d="M63 24 l0 476 l134 0 l0 -477 q0 -102 -35.5 -150.5 q-35.5 -48.5 -142.5 -102.5 l-53 99 q45 30 63 47 q18 17 26 40.5 q8 23.5 8 67.5 Z" /><glyph glyph-name="commaaccent" unicode="&#xf6c3;" d="M-5 -311 l46 234 l130 0 l-55 -234 l-121 0 Z" /></font>
</defs>
</svg>
